<?xml version="1.0" encoding="UTF-8"?>
<svg width="146px" height="120px" viewBox="0 0 146 120" version="1.1" xmlns="http://www.w3.org/2000/svg" xmlns:xlink="http://www.w3.org/1999/xlink">
    <title>Group</title>
    <defs>
        <filter x="-10.7%" y="-13.5%" width="121.4%" height="127.0%" filterUnits="objectBoundingBox" id="filter-1">
            <feOffset dx="0" dy="2" in="SourceAlpha" result="shadowOffsetOuter1"></feOffset>
            <feGaussianBlur stdDeviation="2.5" in="shadowOffsetOuter1" result="shadowBlurOuter1"></feGaussianBlur>
            <feColorMatrix values="0 0 0 0 0   0 0 0 0 0   0 0 0 0 0  0 0 0 0.244700612 0" type="matrix" in="shadowBlurOuter1" result="shadowMatrixOuter1"></feColorMatrix>
            <feMerge>
                <feMergeNode in="shadowMatrixOuter1"></feMergeNode>
                <feMergeNode in="SourceGraphic"></feMergeNode>
            </feMerge>
        </filter>
    </defs>
    <g id="Page-1" stroke="none" stroke-width="1" fill="none" fill-rule="evenodd">
        <g id="Group-52" transform="translate(-277.000000, -40.000000)">
            <g id="Group" filter="url(#filter-1)" transform="translate(287.000000, 50.000000)">
                <circle id="Oval" fill="#322C61" cx="58.656" cy="16.656" r="8.256"></circle>
                <circle id="Oval" fill="#322C61" cx="45.072" cy="70.272" r="3.072"></circle>
                <circle id="Oval" fill="#322C61" cx="76.752" cy="89.952" r="5.952"></circle>
                <circle id="Oval" fill="#322C61" cx="117.552" cy="59.952" r="5.952"></circle>
                <circle id="Oval" fill="#C04074" cx="6.72" cy="31.92" r="6.72"></circle>
                <circle id="Oval" fill="#C04074" cx="101.472" cy="76.272" r="3.072"></circle>
                <circle id="Oval" fill="#C04074" cx="67.872" cy="53.472" r="3.072"></circle>
                <circle id="Oval" fill="#C04074" cx="48.672" cy="39.072" r="3.072"></circle>
                <circle id="Oval" fill="#C04074" cx="21.072" cy="83.472" r="3.072"></circle>
                <circle id="Oval" fill="#C04074" cx="78.72" cy="21.12" r="1.92"></circle>
                <circle id="Oval" fill="#322C61" cx="123.12" cy="34.32" r="1.92"></circle>
                <circle id="Oval" fill="#C04074" cx="48.096" cy="90.096" r="2.496"></circle>
                <path d="M41.1806121,89.912087 C42.0471465,89.5081958 43.0774953,89.883287 43.4813865,90.7498214 C43.6654761,91.1444966 43.8603945,91.5419366 44.0613033,91.9308518 C44.4997545,92.7807974 44.1663657,93.8252006 43.3166505,94.2634214 C42.4773033,94.696343 41.4167721,94.3569638 40.9840809,93.5187686 C40.7622057,93.0890726 40.5465513,92.6496998 40.3428777,92.2128614 C39.9387561,91.3460966 40.3140777,90.3159782 41.1806121,89.912087 Z M39.1627689,82.4072678 C40.1021097,82.2243302 41.0108073,82.8362726 41.1939753,83.7746918 C41.3488041,84.5684198 41.5407273,85.3690598 41.7637545,86.1547238 C42.0252585,87.0744806 41.4914217,88.032023 40.5712041,88.2932966 C39.6634281,88.5518054 38.6902185,88.0082918 38.4326313,87.1009766 C38.1831081,86.2224614 37.9686057,85.3268966 37.7953449,84.4384742 C37.6121769,83.4998246 38.2243497,82.5904358 39.1627689,82.4072678 Z M38.9545513,74.633438 L39.1037865,74.6363366 C40.0581033,74.6973926 40.7824809,75.5203814 40.7214249,76.4744678 C40.6827177,77.0801894 40.6631337,77.6942054 40.6631337,78.2994662 C40.6631337,78.9074918 40.7096745,79.478423 40.3255977,79.9919846 C40.0085673,80.4159206 39.5053737,80.6755814 38.9759145,80.686871 C38.4420777,80.7009254 37.9216041,80.4543974 37.5882153,80.039447 C37.1776425,79.5281894 37.2002217,78.9224678 37.2002217,78.2996966 C37.2002217,77.6209382 37.2223401,76.9327334 37.2656553,76.253975 C37.3267113,75.2998886 38.1513129,74.5773542 39.1037865,74.6363366 Z M74.2137513,74.070935 C75.1494057,73.8709478 76.0691625,74.4658406 76.2696105,75.4010342 C76.4700585,76.3362278 75.8747049,77.2564454 74.9397417,77.4573542 C74.0490153,77.6481254 73.1200425,77.7743846 72.1781673,77.8317542 L72.1781673,77.8317542 L72.0016809,77.8416614 C71.9726505,77.8430438 71.9431593,77.843735 71.9143593,77.843735 C70.9975977,77.843735 70.2324393,77.1241958 70.1865897,76.1982182 C70.1391273,75.2429798 70.8750249,74.430359 71.8300329,74.3828966 L71.8300329,74.3828966 L71.9645865,74.3752934 C72.7361961,74.327831 73.4921385,74.2255334 74.2137513,74.070935 Z M62.7181737,73.3196006 C63.2096169,72.4991462 64.2726825,72.232343 65.0933673,72.7233254 C65.7654441,73.1258342 66.4773801,73.461527 67.2091305,73.7209574 C68.0514729,74.0197862 68.5366953,74.9455334 68.3007657,75.8083814 C68.0390313,76.7659238 66.9888681,77.3170406 66.0516009,76.9848038 C65.1037353,76.6486502 64.1832873,76.2145766 63.3144489,75.6947942 C62.4939945,75.203351 62.2271913,74.140055 62.7181737,73.3196006 Z M80.4368553,70.8229862 C81.1303593,70.164503 82.2259113,70.1930726 82.8846249,70.8863462 C83.5431081,71.5798502 83.5147689,72.6756326 82.8214953,73.3341158 C82.0936617,74.0253158 81.2990121,74.650391 80.4598953,75.1922918 C79.6668585,75.704471 78.5772969,75.4692326 78.0660393,74.676887 C77.5474089,73.8734822 77.7780393,72.8018918 78.5814441,72.283031 C79.2403881,71.8574822 79.8645417,71.3664998 80.4368553,70.8229862 Z M38.8047273,68.211863 C39.0984873,67.3020134 40.0733097,66.801815 40.9843113,67.0960358 C41.8943913,67.3895654 42.3936681,68.3655398 42.1001385,69.2758502 C41.8494633,70.052759 41.6280489,70.8474086 41.4421161,71.6372198 C41.2262313,72.5553638 40.2790569,73.142423 39.3604521,72.9263078 C38.4296361,72.7074278 37.8522537,71.7754598 38.0713641,70.8448742 C38.2782633,69.9638246 38.5252521,69.0779366 38.8047273,68.211863 Z M57.9571881,66.8612582 C58.8020649,66.4142822 59.8501545,66.7366118 60.2973609,67.581719 C60.6731433,68.2920422 61.1076777,68.967575 61.5887529,69.589655 C62.1209769,70.2776294 62.0500137,71.2870118 61.4244777,71.8922726 C60.6922665,72.6002918 59.4720681,72.5132006 58.8495273,71.7079526 C58.2477225,70.9296614 57.7049001,70.0863974 57.2367273,69.201431 C56.7895209,68.3563238 57.1120809,67.308695 57.9571881,66.8612582 Z M84.1029801,64.771991 C84.3741609,63.854999 85.3367721,63.3315302 86.2542249,63.6020198 C87.1712169,63.8727398 87.6951465,64.8358118 87.4241961,65.7528038 C87.1431081,66.7043558 86.7786153,67.6379366 86.3408553,68.5277414 C85.9245225,69.3740006 84.8699817,69.7341158 84.0230313,69.3170918 C83.1647913,68.894999 82.8113577,67.857047 83.2336809,66.9992678 C83.5848105,66.2852582 83.8774185,65.5359974 84.1029801,64.771991 Z M42.2263977,60.7879142 C42.7275177,59.9736806 43.7938089,59.719319 44.6082729,60.2199782 C45.4227369,60.7208678 45.6770985,61.787159 45.1759785,62.6018534 C44.7497385,63.2946662 44.3456169,64.015127 43.9746729,64.7422694 C43.5463593,65.5825382 42.4872105,65.927447 41.6457897,65.4982118 C40.7937705,65.0639078 40.4553129,64.0211174 40.8898473,63.1693286 C41.3027241,62.3603942 41.7522345,61.559063 42.2263977,60.7879142 Z M56.7586473,58.9168358 C57.7122729,58.8958694 58.5076137,59.6515814 58.5297321,60.6077414 C58.5486249,61.4240486 58.6269609,62.2382822 58.7622057,63.027863 C58.9237161,63.970199 58.2908073,64.865303 57.3480105,65.026583 C56.4178857,65.186711 55.5082665,64.5422822 55.3490601,63.6128486 C55.1852457,62.6571494 55.0905513,61.673111 55.0677417,60.6879206 C55.0456233,59.731991 55.8027177,58.9389542 56.7586473,58.9168358 Z M85.3379241,55.6589798 C86.2505385,55.3742054 87.2216745,55.8838502 87.5062185,56.7969254 C87.8027433,57.7487078 87.9946665,58.7633894 88.0769193,59.8128614 C88.1504169,60.7535846 87.4260393,61.6003046 86.4855465,61.6740326 C85.5448233,61.7475302 84.6978729,61.023383 84.6243753,60.0826598 C84.5623977,59.2910054 84.4197801,58.5320678 84.1999785,57.8272742 C83.9156649,56.914199 84.4248489,55.9432934 85.3379241,55.6589798 Z M47.3661609,54.3943142 C48.0585129,53.7342182 49.1538345,53.760023 49.8143913,54.4519142 C50.4742569,55.1438054 50.4486825,56.2395878 49.7565609,56.9001446 C49.5989673,57.0503654 49.4422953,57.203351 49.2872361,57.3584102 C48.8741289,57.7717478 48.4649385,58.2095078 48.0716457,58.659479 C47.4509481,59.3695718 46.3385769,59.4442214 45.6284841,58.8232934 C44.9087145,58.1938406 44.8354473,57.0999014 45.4646697,56.3801318 C45.9086505,55.8720998 46.3708329,55.377431 46.8385449,54.9094886 C47.0134185,54.7350758 47.1889833,54.5631974 47.3661609,54.3943142 Z M56.7201705,52.1112806 C57.0950313,51.2316134 58.1120169,50.8221926 58.9916841,51.1970534 C59.8715817,51.5716838 60.2807721,52.5886694 59.9056809,53.4683366 C59.4612393,54.5115878 59.2137897,55.2993254 59.0843049,55.7764838 C58.8755625,56.5476326 58.1769897,57.0552038 57.4143657,57.0552038 C57.2643753,57.0552038 57.1118505,57.0356198 56.9604777,56.9946086 C56.0377257,56.7441638 55.4923689,55.793303 55.7425833,54.8703206 C55.9690665,54.0351206 56.3068329,53.0808038 56.7201705,52.1112806 Z M79.6507305,50.010263 C80.2006953,49.2275942 81.2805801,49.0388966 82.0627881,49.5888614 C82.9055913,50.1809894 83.6776617,50.8390118 84.3575721,51.544727 C85.0208937,52.2333926 85.0003881,53.3294054 84.3117225,53.9929574 C83.6320425,54.6475238 82.5182889,54.6267878 81.8634921,53.9473382 C81.3370281,53.400599 80.7343017,52.8874982 80.0721321,52.4223206 C79.2896937,51.8725862 79.1009961,50.7927014 79.6507305,50.010263 Z M52.8946089,50.1872102 C53.7155241,49.696919 54.7785897,49.9648742 55.2688809,50.785559 C55.7594025,51.6064742 55.4914473,52.6695398 54.6705321,53.1600614 C54.2995881,53.3814758 53.9291049,53.6151014 53.5685289,53.8542566 C52.7817129,54.3761126 51.6898473,54.1546982 51.1684521,53.3688038 C50.6396841,52.5720806 50.8571817,51.4977254 51.6539049,50.968727 C52.0598697,50.6993894 52.4771241,50.436503 52.8946089,50.1872102 Z M71.9549097,47.6458982 C72.1389993,46.7072486 73.0493097,46.0953062 73.9870377,46.2798566 C74.9487273,46.4683238 75.8917545,46.7116262 76.7896233,47.0030822 C77.6987817,47.2982246 78.1971369,48.2748902 77.9022249,49.1847398 C77.6107689,50.0821478 76.6188969,50.5881062 75.7207977,50.297111 C74.9544873,50.0485094 74.1469353,49.8402278 73.3209513,49.6782566 C72.3825321,49.494167 71.7708201,48.584087 71.9549097,47.6458982 Z M61.0701225,44.815895 C61.6578729,44.0615654 62.7455913,43.9267814 63.5001513,44.5149926 C64.2542505,45.1029734 64.3890345,46.1911526 63.8010537,46.9454822 C63.2787369,47.615255 62.7789993,48.312215 62.3158953,49.0165478 C61.7974953,49.8045158 60.7067817,50.0307686 59.9178921,49.5119078 C59.1188649,48.9865958 58.8969897,47.9129318 59.4225321,47.1139046 C59.9363241,46.331927 60.4908969,45.5587046 61.0701225,44.815895 Z M68.2807209,45.782423 C69.2322729,45.762839 70.0236969,46.5321446 70.0379817,47.4880742 C70.0522665,48.4440038 69.2887209,49.2308198 68.3325609,49.2451046 C67.9037865,49.2515558 67.4669481,49.2690662 67.0340265,49.2969446 C66.9960105,49.299479 66.9582249,49.300631 66.9206697,49.300631 C66.0154281,49.300631 65.2534953,48.5969894 65.1945129,47.6806886 C65.1329961,46.7263718 65.8564521,45.9029222 66.8107689,45.841175 C67.3003689,45.8093798 67.7950377,45.7895654 68.2807209,45.782423 Z M67.0243497,38.8114406 C67.7731497,38.217239 68.8624809,38.3423462 69.4569129,39.0913766 C70.0513449,39.8406374 69.9260073,40.9295078 69.1769769,41.5241702 C68.5134249,42.0504038 67.8627753,42.6100454 67.2434601,43.186967 C66.5531817,43.8300134 65.4391977,43.7903846 64.7966121,43.1003366 C64.1450409,42.4006118 64.1837481,41.3050598 64.8834729,40.6532582 C65.5691433,40.0138982 66.2896041,39.3943526 67.0243497,38.8114406 Z M74.2052265,34.369559 C75.0706089,33.962903 76.1018793,34.3347686 76.5085353,35.2006118 C76.9151913,36.0659942 76.5430953,37.0972646 75.6774825,37.5039206 C74.9063337,37.8661094 74.1423273,38.2607846 73.4071209,38.6766566 C73.1377833,38.828951 72.8451753,38.9012966 72.5562537,38.9012966 C71.7443241,38.9012966 71.0234025,38.3156198 70.8588969,37.520279 C70.7079849,36.7917542 71.0547369,36.028439 71.7021609,35.6623334 C72.5129385,35.203607 73.3552809,34.7686118 74.2052265,34.369559 Z M81.7896082,30.9851795 C82.7166848,30.7511177 83.6580525,31.3129267 83.8920264,32.2404556 C84.1260883,33.1675321 83.564053,34.1088559 82.6367504,34.3428738 C81.8106609,34.551266 80.9853838,34.7929106 80.1843331,35.0608579 C79.8908849,35.1589622 79.5898487,35.1741463 79.3062354,35.1190175 C78.5092233,34.964094 77.9132994,34.2516194 77.9035744,33.4395021 C77.8944442,32.695567 78.3804728,32.0124395 79.085858,31.7765946 C79.9692685,31.4809999 80.8791357,31.2147233 81.7896082,30.9851795 Z M86.8612618,30.0016165 C87.7919282,30.0422412 88.7367874,30.1197178 89.6690479,30.2317043 C90.6184287,30.3454233 91.2959368,31.2072733 91.1819737,32.1570448 C91.0682547,33.1064255 90.2062093,33.7838116 89.2566332,33.6699705 C88.4107311,33.5684775 87.553671,33.4983193 86.709802,33.4613987 C86.400687,33.4478245 86.114204,33.3541185 85.8691846,33.2010133 C85.1806293,32.7707562 84.8796145,31.8920439 85.1615722,31.1303819 C85.4196509,30.4325867 86.1182087,29.9690092 86.8612618,30.0016165 Z" id="Combined-Shape" fill="#000000" fill-rule="nonzero" transform="translate(64.197241, 62.225975) scale(1, -1) rotate(67.000000) translate(-64.197241, -62.225975) "></path>
                <g id="pin" transform="translate(86.400000, 0.000000)" fill-rule="nonzero">
                    <path d="M16.38,0 C7.44282,0 0.18,7.18734676 0.18,16.0312567 C0.18,19.023758 1.01718,21.936192 2.61009,24.4477555 L15.28182,44.969011 C15.498,45.3163549 15.822,45.530194 16.20009,45.5836316 C16.71291,45.6636988 17.28018,45.4500378 17.57709,44.9423813 L30.28509,24.2339164 C31.79691,21.7758794 32.58,18.916972 32.58,16.0312567 C32.58,7.18734676 25.31718,0 16.38,0 Z M16.38,24.0468851 C11.84418,24.0468851 8.28,20.4131335 8.28,16.0312567 C8.28,11.622572 11.92491,8.01562835 16.38,8.01562835 C20.83509,8.01562835 24.48,11.622572 24.48,16.0312567 C24.48,20.3864148 20.96991,24.0468851 16.38,24.0468851 Z" id="Shape" fill="#FD003A"></path>
                    <path d="M16.98,0 L16.98,8.01570128 C21.2700867,8.01570128 24.78,11.6226778 24.78,16.0314026 C24.78,20.3866003 21.3999133,24.0471038 16.98,24.0471038 L16.98,45.6 C17.4236467,45.6102309 17.87986,45.3916695 18.1326667,44.9427902 L30.37,24.2341369 C31.8259133,21.7760775 32.58,18.9171441 32.58,16.0314026 C32.58,7.18741215 25.5861733,0 16.98,0 Z" id="Path" fill="#E50027"></path>
                </g>
                <g id="pin" transform="translate(15.600000, 39.600000)" fill-rule="nonzero">
                    <path d="M9.828,0 C4.465692,0 0.108,4.31240805 0.108,9.61875402 C0.108,11.4142548 0.610308,13.1617152 1.566054,14.6686533 L9.169092,26.9814066 C9.2988,27.1898129 9.4932,27.3181164 9.720054,27.3501789 C10.027746,27.3982193 10.368108,27.2700227 10.546254,26.9654288 L18.171054,14.5403498 C19.078146,13.0655277 19.548,11.3501832 19.548,9.61875402 C19.548,4.31240805 15.190308,0 9.828,0 Z M9.828,14.428131 C7.106508,14.428131 4.968,12.2478801 4.968,9.61875402 C4.968,6.97354323 7.154946,4.80937701 9.828,4.80937701 C12.501054,4.80937701 14.688,6.97354323 14.688,9.61875402 C14.688,12.2318489 12.581946,14.428131 9.828,14.428131 Z" id="Shape" fill="#FD003A"></path>
                    <path d="M10.188,0 L10.188,4.80942077 C12.762052,4.80942077 14.868,6.97360668 14.868,9.61884154 C14.868,12.2319602 12.839948,14.4282623 10.188,14.4282623 L10.188,27.36 C10.454188,27.3661386 10.727916,27.2350017 10.8796,26.9656741 L18.222,14.5404821 C19.095548,13.0656465 19.548,11.3502865 19.548,9.61884154 C19.548,4.31244729 15.351704,0 10.188,0 Z" id="Path" fill="#E50027"></path>
                </g>
            </g>
        </g>
    </g>
</svg>