<?xml version="1.0" encoding="UTF-8"?>
<svg width="44px" height="44px" viewBox="0 0 44 44" version="1.1" xmlns="http://www.w3.org/2000/svg" xmlns:xlink="http://www.w3.org/1999/xlink">
    <title>Combined Shape</title>
    <defs>
        <path d="M188.952883,574.411866 C189.644959,572.363653 191.783834,578.459441 191.783834,578.459441 L191.783834,578.459441 L191.872461,578.548377 C192.203851,578.873043 193.321339,579.892008 192.728058,578.248885 C192.297433,577.056208 193.035841,577.79541 193.776505,578.693638 L193.934828,578.887903 C194.328595,579.376421 194.699092,579.874236 194.866933,580.10878 C195.370456,580.8125 195.306946,579.08498 194.866933,578.636903 C194.866933,578.636903 197.468282,580.528316 197.961134,583.614687 L197.961134,583.614687 L197.963114,583.626419 C198.089704,583.728151 198.216553,583.829796 198.339013,583.935905 C198.340538,583.848794 198.341402,583.759413 198.341763,583.67019 L198.341496,583.405416 C198.339062,582.972998 198.327998,582.605158 198.327998,582.605158 C198.327998,582.605158 199.792612,584.353778 200.066447,585.687677 L200.066447,585.687677 C200.315756,585.997776 200.557148,586.322496 200.789331,586.655446 L200.789331,586.655446 L200.789331,603.774202 C198.154592,607.537329 193.840955,610 188.952883,610 C184.121696,610 179.853412,607.592485 177.210325,603.902286 L177.210325,603.902286 L177.210325,586.517994 L176.872635,586.517994 C176.866611,586.517994 176.860415,586.518519 176.854391,586.518519 C177.237347,585.309815 178.005755,583.187972 179.074504,581.708916 C179.074504,581.708916 179.067778,581.724639 179.056085,581.753766 L179.007861,581.879044 C178.878712,582.227564 178.61401,583.0445 178.696798,583.693306 C178.794817,584.457436 179.435,583.372789 181.520089,580.748852 C182.686686,579.280477 182.747012,579.816803 182.573864,580.573579 C183.086854,579.799644 183.773851,578.957771 184.611536,578.380471 C186.561945,577.036241 186.939738,575.884006 186.939738,575.884006 C186.939738,575.884006 186.781995,577.236203 186.499726,577.901927 C187.108583,577.26063 188.465797,575.853802 188.952883,574.411866 Z M201.464883,587.213134 C202.370123,587.251743 203.232334,587.455208 204.034133,587.780978 C205.105636,588.21601 206.064662,588.878758 206.844515,589.719405 C208.179183,591.154511 209,593.088735 209,595.215218 C209,599.51651 205.650638,603.03625 201.464883,603.216951 L201.464883,603.216951 Z M176.534773,587.212609 L176.534773,603.216251 C172.349534,603.03625 169,599.515897 169,595.213817 C169,593.225575 169.722023,591.409892 170.905659,590.007967 C171.577253,589.212583 172.397382,588.5543 173.324394,588.075319 C174.297103,587.572961 175.382031,587.262249 176.534773,587.212609 L176.534773,587.212609 Z M188.694539,570 C198.827304,570 206.282301,577.808425 206.816891,588.742443 C205.987468,587.987069 205.014587,587.394886 203.943084,587.013084 C202.780532,578.591815 196.727413,572.749833 188.694539,572.749833 C180.578877,572.749833 174.480148,578.711057 173.408214,587.271004 C172.31425,587.767233 171.345155,588.491002 170.550414,589.381815 C170.821323,578.113446 178.364787,570 188.694539,570 Z" id="path-1"></path>
        <filter x="-10.0%" y="-5.0%" width="120.0%" height="120.0%" filterUnits="objectBoundingBox" id="filter-2">
            <feOffset dx="0" dy="2" in="SourceAlpha" result="shadowOffsetOuter1"></feOffset>
            <feGaussianBlur stdDeviation="1" in="shadowOffsetOuter1" result="shadowBlurOuter1"></feGaussianBlur>
            <feColorMatrix values="0 0 0 0 0   0 0 0 0 0   0 0 0 0 0  0 0 0 0.235085227 0" type="matrix" in="shadowBlurOuter1"></feColorMatrix>
        </filter>
    </defs>
    <g id="Page-1" stroke="none" stroke-width="1" fill="none" fill-rule="evenodd">
        <g id="Group-34" transform="translate(-167.000000, -570.000000)" fill-rule="nonzero">
            <g id="Combined-Shape">
                <use fill="black" fill-opacity="1" filter="url(#filter-2)" xlink:href="#path-1"></use>
                <use fill="#FFFFFF" xlink:href="#path-1"></use>
            </g>
        </g>
    </g>
</svg>