<?xml version="1.0" encoding="UTF-8"?>
<svg width="130px" height="119px" viewBox="0 0 130 119" version="1.1" xmlns="http://www.w3.org/2000/svg" xmlns:xlink="http://www.w3.org/1999/xlink">
    <title>Group</title>
    <defs>
        <filter x="-10.7%" y="-11.9%" width="121.4%" height="123.8%" filterUnits="objectBoundingBox" id="filter-1">
            <feOffset dx="0" dy="2" in="SourceAlpha" result="shadowOffsetOuter1"></feOffset>
            <feGaussianBlur stdDeviation="2" in="shadowOffsetOuter1" result="shadowBlurOuter1"></feGaussianBlur>
            <feColorMatrix values="0 0 0 0 0   0 0 0 0 0   0 0 0 0 0  0 0 0 0.306080638 0" type="matrix" in="shadowBlurOuter1" result="shadowMatrixOuter1"></feColorMatrix>
            <feMerge>
                <feMergeNode in="shadowMatrixOuter1"></feMergeNode>
                <feMergeNode in="SourceGraphic"></feMergeNode>
            </feMerge>
        </filter>
    </defs>
    <g id="Page-1" stroke="none" stroke-width="1" fill="none" fill-rule="evenodd">
        <g id="Artboard" transform="translate(-110.000000, -41.000000)">
            <g id="Group" filter="url(#filter-1)" transform="translate(119.000000, 50.000000)">
                <circle id="Oval" fill="#322C61" cx="34.88" cy="22.88" r="6.88"></circle>
                <circle id="Oval" fill="#322C61" cx="62.56" cy="20.56" r="2.56"></circle>
                <circle id="Oval" fill="#322C61" cx="51.96" cy="85.96" r="4.96"></circle>
                <circle id="Oval" fill="#322C61" cx="106.96" cy="31.96" r="4.96"></circle>
                <circle id="Oval" fill="#C04074" cx="86.6" cy="19.6" r="5.6"></circle>
                <circle id="Oval" fill="#C04074" cx="59.76" cy="2.56" r="2.56"></circle>
                <circle id="Oval" fill="#C04074" cx="21.56" cy="45.56" r="2.56"></circle>
                <circle id="Oval" fill="#C04074" cx="99.56" cy="68.56" r="2.56"></circle>
                <circle id="Oval" fill="#C04074" cx="99.56" cy="68.56" r="2.56"></circle>
                <circle id="Oval" fill="#C04074" cx="39.6" cy="37.6" r="1.6"></circle>
                <circle id="Oval" fill="#322C61" cx="34" cy="7.68" r="1.6"></circle>
                <circle id="Oval" fill="#C04074" cx="109.08" cy="52.08" r="2.08"></circle>
                <path d="M25.9006008,59.5743971 C25.4958648,59.5803491 25.0836408,59.5968611 24.6756408,59.6233571 C23.8803768,59.6748131 23.2774968,60.3610211 23.3287608,61.1562851 C23.3779128,61.9198691 24.0128568,62.5062371 24.7672248,62.5062371 C24.7985208,62.5062371 24.8300088,62.5052771 24.8616888,62.5031651 C25.2224568,62.4799331 25.5864888,62.4653411 25.9438008,62.4599651 C26.7406008,62.4480611 27.3768888,61.7923811 27.3649848,60.9957731 C27.3530808,60.1991651 26.6935608,59.5580771 25.9006008,59.5743971 Z" id="Path" fill="#000000" fill-rule="nonzero"></path>
                <path d="M32.9913528,60.5916131 C32.2431288,60.3487331 31.4572728,60.1459811 30.6558648,59.9889251 C29.8744248,59.8351331 29.1158328,60.3450851 28.9624248,61.1272931 C28.8090168,61.9091171 29.3187768,62.6675171 30.1007928,62.8209251 C30.7891128,62.9559011 31.4620728,63.1294691 32.1006648,63.3366371 C32.8490808,63.5791331 33.6756408,63.1575011 33.9185208,62.4096611 C34.1642808,61.6514531 33.7489848,60.8375651 32.9913528,60.5916131 Z" id="Path" fill="#000000" fill-rule="nonzero"></path>
                <path d="M17.9685048,73.9455971 C17.8558008,73.2876131 17.7905208,72.6090851 17.7747768,71.9288291 C17.7563448,71.1320291 17.0935608,70.5022691 16.2988728,70.5197411 C15.5022648,70.5381731 14.8713528,71.1990371 14.8897848,71.9956451 C14.9087928,72.8166371 14.9877048,73.6366691 15.1242168,74.4330851 C15.2568888,75.2076131 16.0149048,75.7446371 16.7900088,75.6111971 C17.5756728,75.4767971 18.1030968,74.7308771 17.9685048,73.9455971 Z" id="Path" fill="#000000" fill-rule="nonzero"></path>
                <path d="M25.0076088,82.8565091 C24.3978168,82.6403171 23.8045368,82.3605731 23.2444728,82.0251491 C22.5605688,81.6159971 21.6746808,81.8383331 21.2651448,82.5220451 C20.8559928,83.2057571 21.0783288,84.0918371 21.7620408,84.5013731 C22.4860728,84.9345251 23.2531128,85.2962531 24.0430008,85.5763811 C24.8240568,85.8532451 25.6991928,85.3939811 25.9173048,84.5960291 C26.1139128,83.8769891 25.7095608,83.1055331 25.0076088,82.8565091 Z" id="Path" fill="#000000" fill-rule="nonzero"></path>
                <path d="M26.8807608,53.9985251 C26.3854008,53.3743331 25.4776248,53.2700771 24.8536248,53.7652451 C24.2413368,54.2510051 23.6409528,54.7672931 23.0695608,55.3000931 C22.4864568,55.8432611 22.4542008,56.7562211 22.9971768,57.3393251 C23.5326648,57.9143651 24.4609848,57.9473891 25.0362168,57.4115171 C25.5523128,56.9307491 26.0945208,56.4643811 26.6474808,56.0258531 C27.2716728,55.5303011 27.3761208,54.6229091 26.8807608,53.9985251 Z" id="Path" fill="#000000" fill-rule="nonzero"></path>
                <path d="M20.3239608,79.4137571 C19.9230648,78.8953571 19.5609528,78.3324131 19.2478008,77.7404771 C18.8751288,77.0362211 18.0017208,76.7676131 17.2976568,77.1400931 C16.5934008,77.5129571 16.3246008,78.3859811 16.6972728,79.0902371 C17.0874168,79.8277091 17.5397688,80.5304291 18.0412728,81.1790051 C18.5600568,81.8500451 19.5768888,81.9226211 20.1870648,81.3326051 C20.7083448,80.8282211 20.7674808,79.9870691 20.3239608,79.4137571 Z" id="Path" fill="#000000" fill-rule="nonzero"></path>
                <path d="M18.1597368,64.0865891 C17.4266808,63.7742051 16.5791928,64.1153891 16.2668088,64.8484451 C15.9223608,65.6563811 15.6408888,66.4516451 15.4521528,67.1476451 C15.2436408,67.9167971 15.6981048,68.7091811 16.4670648,68.9178851 C16.5932088,68.9520611 16.7203128,68.9683811 16.8453048,68.9683811 C17.4808248,68.9683811 18.0629688,68.5454051 18.2369208,67.9027811 C18.3448248,67.5051491 18.5510328,66.8487011 18.9214008,65.9793251 C19.2339768,65.2462691 18.8929848,64.3987811 18.1597368,64.0865891 Z" id="Path" fill="#000000" fill-rule="nonzero"></path>
                <path d="M21.9167928,58.5182051 C21.2879928,58.0280291 20.3815608,58.1403491 19.8917688,58.7689571 C19.4090808,59.3879651 18.9469368,60.0323171 18.5187768,60.6839651 C18.0808248,61.3498211 18.2657208,62.2445411 18.9315768,62.6823011 C19.5889848,63.1146851 20.4979128,62.9261411 20.9299128,62.2695011 C21.3158328,61.6825571 21.7322808,61.1017571 22.1675448,60.5436131 C22.6575288,59.9150051 22.5452088,59.0081891 21.9167928,58.5182051 Z" id="Path" fill="#000000" fill-rule="nonzero"></path>
                <path d="M39.2979768,64.3763171 C38.7313848,63.7882211 38.0879928,63.2398691 37.3856568,62.7464291 C36.7338168,62.2881251 35.8339128,62.4453731 35.3756088,63.0975971 C34.9174968,63.7496291 35.0747448,64.6495331 35.7267768,65.1076451 C36.2785848,65.4952931 36.7808568,65.9228771 37.2195768,66.3784931 C37.7652408,66.9447011 38.6933688,66.9619811 39.2597688,66.4165091 C39.8336568,65.8635491 39.8507448,64.9502051 39.2979768,64.3763171 Z" id="Path" fill="#000000" fill-rule="nonzero"></path>
                <path d="M32.5580088,84.2565731 C32.3909688,83.4772451 31.6245048,82.9815011 30.8447928,83.1481571 C30.2434488,83.2769891 29.6134968,83.3622371 28.9704888,83.4017891 L28.8583608,83.4081251 C28.0625208,83.4476771 27.4492728,84.1248611 27.4888248,84.9208931 C27.5270328,85.6925411 28.1646648,86.2921571 28.9286328,86.2921571 C28.9526328,86.2921571 28.9772088,86.2915811 29.0014008,86.2904291 L29.1484728,86.2821731 C29.9333688,86.2343651 30.7075128,86.1291491 31.4497848,85.9701731 C32.2289208,85.8027491 32.7250488,85.0359011 32.5580088,84.2565731 Z" id="Path" fill="#000000" fill-rule="nonzero"></path>
                <path d="M67,78 C80.254834,78 91,67.254834 91,54 C91,40.745166 80.254834,30 67,30 C53.745166,30 43,40.745166 43,54 C43,67.254834 53.745166,78 67,78 Z" id="Oval-2" stroke="#000000" stroke-width="3" fill="#98E2A9" stroke-linecap="round" stroke-linejoin="round" stroke-dasharray="133" transform="translate(67.000000, 54.000000) rotate(-143.000000) translate(-67.000000, -54.000000) "></path>
                <path d="M42.3974328,71.2664291 C42.3288888,70.3918691 42.1689528,69.5463011 41.9218488,68.7531491 C41.6847288,67.9922531 40.8754488,67.5675491 40.1149368,67.8048611 C39.3540408,68.0417891 38.9297208,68.8508771 39.1666488,69.6117731 C39.3498168,70.1991011 39.4686648,70.8315491 39.5203128,71.4912611 C39.5815608,72.2751971 40.2873528,72.8786531 41.0712888,72.8174051 C41.8550328,72.7559651 42.4586808,72.0503651 42.3974328,71.2664291 Z" id="Path" fill="#000000" fill-rule="nonzero"></path>
                <path d="M40.8785208,74.4240611 C40.1139768,74.1986531 39.3118008,74.6348771 39.0858168,75.3990371 C38.8978488,76.0357091 38.6540088,76.6600931 38.3614008,77.2551011 C38.0094648,77.9699171 38.3039928,78.8348771 39.0191928,79.1866211 C39.7249848,79.5341411 40.6037688,79.2340451 40.9507128,78.5288291 C41.3155128,77.7873251 41.6192568,77.0093411 41.8534968,76.2163811 C42.0792888,75.4522211 41.6426808,74.6496611 40.8785208,74.4240611 Z" id="Path" fill="#000000" fill-rule="nonzero"></path>
                <path d="M32.7571128,50.7562211 C32.4182328,50.0346851 31.5588408,49.7247971 30.8376888,50.0636771 C30.1294008,50.3962211 29.4274488,50.7587171 28.7518008,51.1409891 C28.2122808,51.4460771 27.9233208,52.0821731 28.0490808,52.6892771 C28.1861688,53.3520611 28.7869368,53.8401251 29.4635448,53.8401251 C29.7043128,53.8401251 29.9481528,53.7798371 30.1726008,53.6529251 C30.7852728,53.3063651 31.4219448,52.9774691 32.0645688,52.6756451 C32.7859128,52.3367651 33.0959928,51.4773731 32.7571128,50.7562211 Z" id="Path" fill="#000000" fill-rule="nonzero"></path>
                <path d="M38.7372333,47.8298621 C38.3983533,47.1083261 37.5389613,46.7984381 36.8178093,47.1373181 C36.1095213,47.4698621 35.4075693,47.8323581 34.7319213,48.2146301 C34.1924013,48.5197181 33.9034413,49.1558141 34.0292013,49.7629181 C34.1662893,50.4257021 34.7670573,50.9137661 35.4436653,50.9137661 C35.6844333,50.9137661 35.9282733,50.8534781 36.1527213,50.7265661 C36.7653933,50.3800061 37.4020653,50.0511101 38.0446893,49.7492861 C38.7660333,49.4104061 39.0761133,48.5510141 38.7372333,47.8298621 Z" id="Path" fill="#000000" fill-rule="nonzero" transform="translate(36.437260, 48.956883) rotate(11.000000) translate(-36.437260, -48.956883) "></path>
                <path d="M44.7372333,46.8298621 C44.3983533,46.1083261 43.5389613,45.7984381 42.8178093,46.1373181 C42.1095213,46.4698621 41.4075693,46.8323581 40.7319213,47.2146301 C40.1924013,47.5197181 39.9034413,48.1558141 40.0292013,48.7629181 C40.1662893,49.4257021 40.7670573,49.9137661 41.4436653,49.9137661 C41.6844333,49.9137661 41.9282733,49.8534781 42.1527213,49.7265661 C42.7653933,49.3800061 43.4020653,49.0511101 44.0446893,48.7492861 C44.7660333,48.4104061 45.0761133,47.5510141 44.7372333,46.8298621 Z" id="Path" fill="#000000" fill-rule="nonzero" transform="translate(42.437260, 47.956883) rotate(32.000000) translate(-42.437260, -47.956883) "></path>
                <path d="M38.0705208,80.4943331 C37.5215928,79.9166051 36.6086328,79.8927971 36.0307128,80.4415331 C35.5537848,80.8944611 35.0336568,81.3036131 34.4845368,81.6582371 C33.8150328,82.0906211 33.6228408,82.9836131 34.0550328,83.6531171 C34.4810808,84.3134051 35.3890488,84.5094371 36.0499128,84.0826211 C36.7491768,83.6310371 37.4113848,83.1101411 38.0179128,82.5341411 C38.5956408,81.9854051 38.6192568,81.0722531 38.0705208,80.4943331 Z" id="Path" fill="#000000" fill-rule="nonzero"></path>
                <path d="M5.71775275,98.0314211 C5.55032875,97.7073251 5.38789675,97.3761251 5.23448875,97.0472291 C4.89791275,96.3251171 4.03928875,96.0125411 3.31717675,96.3491171 C2.59506475,96.6856931 2.28229675,97.5441251 2.61906475,98.2664291 C2.78879275,98.6304611 2.96850475,98.9966051 3.15340075,99.3546851 C3.51397675,100.053181 4.39775275,100.335997 5.09720875,99.9752291 C5.80530475,99.6100451 6.08312875,98.7397091 5.71775275,98.0314211 Z" id="Path" fill="#000000" fill-rule="nonzero"></path>
                <path d="M3.80312875,93.2179811 C3.61727275,92.5632611 3.45733675,91.8960611 3.32831275,91.2346211 C3.17567275,90.4526051 2.41842475,89.9426531 1.63564075,90.0951011 C0.853624751,90.2477411 0.343480751,91.0055651 0.496120751,91.7877731 C0.640504751,92.5281251 0.819256751,93.2744291 1.02719275,94.0065251 C1.24184875,94.7626211 2.05285675,95.2155491 2.80933675,95.0001251 C3.57618475,94.7823971 4.02104875,93.9844451 3.80312875,93.2179811 Z" id="Path" fill="#000000" fill-rule="nonzero"></path>
                <path d="M1.58648875,83.6193251 C0.792760751,83.5701731 0.105592751,84.1722851 0.054712751,84.9673571 C0.018616751,85.5329891 0.000184751031,86.1064931 0.000184751031,86.6721251 C0.000184751031,87.1911011 -0.018631249,87.6958691 0.323512751,88.1219171 C0.601336751,88.4677091 1.03506475,88.6731491 1.47992875,88.6614371 C1.92114475,88.6520291 2.34047275,88.4356451 2.60466475,88.0823651 C2.92472875,87.6543971 2.88594475,87.1786211 2.88594475,86.6719331 C2.88594475,86.1675491 2.90226475,85.6558691 2.93452075,85.1511011 C2.98540075,84.3560291 2.38175275,83.6702051 1.58648875,83.6193251 Z" id="Path" fill="#000000" fill-rule="nonzero"></path>
                <path d="M3.15359275,77.3357411 C2.39442475,77.0905571 1.58207275,77.5073891 1.33727275,78.2655971 C1.10437675,78.9873251 0.898552751,79.7255651 0.726136751,80.4597731 C0.543544751,81.2352611 1.02469675,82.0119011 1.80037675,82.1943011 C2.56588075,82.3743971 3.35519275,81.8851811 3.53509675,81.1200611 C3.69004075,80.4618851 3.87455275,79.7996771 4.08344875,79.1522531 C4.32805675,78.3936611 3.91199275,77.5803491 3.15359275,77.3357411 Z" id="Path" fill="#000000" fill-rule="nonzero"></path>
                <path d="M10.5119928,66.7989731 C9.96152875,66.2223971 9.04876075,66.2008931 8.47180075,66.7509731 C8.32415275,66.8917091 8.17784875,67.0349411 8.03212075,67.1802851 C7.64236075,67.5702371 7.25720875,67.9824611 6.88722475,68.4058211 C6.36287275,69.0056291 6.42392875,69.9172451 7.02373675,70.4417891 C7.61548075,70.9592291 8.54245675,70.8970211 9.05970475,70.3052771 C9.38744875,69.9303011 9.72844075,69.5655011 10.0726968,69.2210531 C10.2019128,69.0918371 10.3324728,68.9643491 10.4638008,68.8391651 C11.0405688,68.2887011 11.0618808,67.3755491 10.5119928,66.7989731 Z" id="Path" fill="#000000" fill-rule="nonzero"></path>
                <path d="M6.17356075,71.6056931 C5.49484075,71.1884771 4.60626475,71.4004451 4.18866475,72.0789731 C3.79352875,72.7215971 3.41893675,73.3893731 3.07487275,74.0634851 C2.71276075,74.7733091 2.99480875,75.6423011 3.70482475,76.0042211 C4.40600875,76.3619171 5.28863275,76.0744931 5.64556075,75.3742691 C5.95468075,74.7683171 6.29144875,74.1679331 6.64664875,73.5905891 C7.06424875,72.9116771 6.85228075,72.0231011 6.17356075,71.6056931 Z" id="Path" fill="#000000" fill-rule="nonzero"></path>
                <path d="M15.0574008,63.7436771 C14.6488248,63.0597731 13.7629368,62.8364771 13.0788408,63.2450531 C12.7309368,63.4527971 12.3832248,63.6718691 12.0449208,63.8963171 C11.3809848,64.3371491 11.1997368,65.2324451 11.6403768,65.8963811 C12.0748728,66.5512931 12.9847608,66.7358051 13.6404408,66.3009251 C13.9409208,66.1016291 14.2496568,65.9069411 14.5587768,65.7224291 C15.2428728,65.3136611 15.4661688,64.4277731 15.0574008,63.7436771 Z" id="Path" fill="#000000" fill-rule="nonzero"></path>
                <path d="M91.4142097,36.5783362 C90.633195,35.8072213 89.3669466,35.8072213 88.5857757,36.5783362 C83.1909497,41.5644048 79.1623579,45.3716261 76.5,48 C73.8376421,50.6283739 69.8791604,54.7062743 64.6245549,60.2337012 C62.8831075,58.2066099 61.5082559,56.6953761 60.5,55.7 C59.4615223,54.6747881 57.7662735,53.1551397 55.4142536,51.1410548 C54.633239,50.3699399 53.3669905,50.370017 52.5858196,51.1410548 C51.8047268,51.9120926 51.8047268,53.1621656 52.5858196,53.9332806 C55.0147712,55.9456887 56.819498,57.5345952 58,58.7 C59.180502,59.8654048 60.9172813,61.7727129 63.2103379,64.4219241 C63.9911182,65.1929619 65.2583041,65.192422 66.0387719,64.4219241 C71.7388151,58.377184 76.0592245,53.9032093 79,51 C81.6982107,48.336257 85.8362805,44.4598034 91.4142097,39.370639 C92.1953025,38.5996013 92.1952244,37.3494511 91.4142097,36.5783362 Z" id="Path" fill="#000000" fill-rule="nonzero"></path>
            </g>
        </g>
    </g>
</svg>