<svg width="84" height="84" viewBox="0 0 84 84" fill="none" xmlns="http://www.w3.org/2000/svg">
<path fill-rule="evenodd" clip-rule="evenodd" d="M0 3.897V59.103C0 61.2554 1.5114 63 3.37705 63H80.6229C82.4882 63 84 61.2554 84 59.103V3.897C84 1.74361 82.4882 0 80.6229 0H3.37705C1.5114 0 0 1.74361 0 3.897ZM5.06569 5.84537H78.9343V57.1544H5.06569V5.84537ZM0 76.125C0 80.4744 1.30349 84 2.91332 84H81.0867C82.695 84 84 80.4744 84 76.125C84 71.7756 82.695 68.25 81.0867 68.25H48.4787C48.4787 69.0953 48.0973 69.7801 47.6297 69.7801H36.3711C35.9018 69.7801 35.5218 69.0953 35.5218 68.25H2.91332C1.30349 68.25 0 71.7756 0 76.125ZM64.8772 75.6H75.8257C76.2819 75.6 76.65 76.3049 76.65 77.175C76.65 78.0451 76.2819 78.75 75.8257 78.75H64.8772C64.4203 78.75 64.05 78.0451 64.05 77.175C64.05 76.3049 64.4201 75.6 64.8772 75.6ZM13.65 33.6685H21.3175V36.0849H13.65V33.6685ZM31.3192 15.75H23.6517V18.1673H31.3192V15.75ZM33.6519 24.7512H41.3194V27.1688H33.6519V24.7512ZM31.3192 19.9181H23.6517V52.4452H31.3192V19.9181ZM33.6519 28.7511H41.3194V52.4452H33.6519V28.7511ZM21.3175 37.6683H13.65V52.4452H21.3175V37.6683ZM43.2161 33.6685H50.882V52.4452H43.2161V33.6685ZM50.882 29.668H43.2161V32.0844H50.882V29.668ZM53.2165 33.6685H60.8832V36.0849H53.2165V33.6685ZM70.8842 15.75H63.2178V18.1673H70.8842V15.75ZM63.2178 19.9181H70.8842V52.4452H63.2178V19.9181ZM60.8832 37.6683H53.2165V52.4452H60.8832V37.6683Z" fill="url(#paint0_radial)"/>
<defs>
<radialGradient id="paint0_radial" cx="0" cy="0" r="1" gradientUnits="userSpaceOnUse" gradientTransform="translate(82.3984 84) rotate(-100.94) scale(92.7946)">
<stop stop-color="#C24074"/>
<stop offset="1" stop-color="#322C61"/>
</radialGradient>
</defs>
</svg>
