<?xml version="1.0" encoding="UTF-8"?>
<svg width="252px" height="252px" viewBox="0 0 252 252" version="1.1" xmlns="http://www.w3.org/2000/svg" xmlns:xlink="http://www.w3.org/1999/xlink">
    <title>Group 57</title>
    <defs>
        <radialGradient cx="98.0933134%" cy="100%" fx="98.0933134%" fy="100%" r="110.469721%" id="radialGradient-1">
            <stop stop-color="#C24074" offset="0%"></stop>
            <stop stop-color="#322C61" offset="100%"></stop>
        </radialGradient>
    </defs>
    <g id="Page-1" stroke="none" stroke-width="1" fill="none" fill-rule="evenodd">
        <g id="Group-57" transform="translate(2.000000, 2.000000)">
            <path d="M124,248 C192.483309,248 248,192.483309 248,124 C248,55.516691 192.483309,0 124,0 C55.516691,0 0,55.516691 0,124 C0,192.483309 55.516691,248 124,248 Z" id="Oval" stroke="url(#radialGradient-1)" stroke-width="3" fill="#FFFFFF" stroke-dasharray="300"></path>
            <g id="document" transform="translate(57.000000, 67.000000)" fill-rule="nonzero">
                <path d="M133.5003,27.9216 L133.5003,105.1278 C133.5003,109.167 130.2249,112.4421 126.1857,112.4421 L7.5318,112.4421 C3.4926,112.4421 0.2175,109.167 0.2175,105.1278 L0.2175,91.6329 L0.2175,22.2327 C0.2175,18.1896 3.4926,14.9184 7.5318,14.9184 L66.0462,14.9184 C70.0854,14.9184 73.3605,11.6433 73.3605,7.6041 C73.3605,3.561 76.6356,0.2898 80.6748,0.2898 L123.7479,0.2898 L126.186,0.2898 C130.2252,0.2898 133.5003,3.561 133.5003,7.6041 L133.5003,14.9184 L133.5003,27.9216 L133.5003,27.9216 Z" id="Path" fill="#C04074"></path>
                <path d="M126.1857,0.2898 L123.7476,0.2898 L101.4258,0.2898 L51.8238,112.4421 L126.1857,112.4421 C130.2249,112.4421 133.5,109.167 133.5,105.1278 L133.5,27.9213 L133.5,14.9181 L133.5,7.6038 C133.5,3.561 130.2246,0.2898 126.1857,0.2898 Z" id="Path" fill="#322C61"></path>
            </g>
        </g>
    </g>
</svg>