<?xml version="1.0" encoding="UTF-8"?>
<svg width="265px" height="130px" viewBox="0 0 265 130" version="1.1" xmlns="http://www.w3.org/2000/svg" xmlns:xlink="http://www.w3.org/1999/xlink">
    <title>Group 3</title>
    <defs>
        <rect id="path-1" x="0" y="0" width="243" height="108" rx="13.5"></rect>
        <filter x="-7.2%" y="-14.4%" width="114.4%" height="132.4%" filterUnits="objectBoundingBox" id="filter-2">
            <feOffset dx="0" dy="2" in="SourceAlpha" result="shadowOffsetOuter1"></feOffset>
            <feGaussianBlur stdDeviation="5.5" in="shadowOffsetOuter1" result="shadowBlurOuter1"></feGaussianBlur>
            <feColorMatrix values="0 0 0 0 0.461553819   0 0 0 0 0.489347605   0 0 0 0 0.55004529  0 0 0 0.26324847 0" type="matrix" in="shadowBlurOuter1"></feColorMatrix>
        </filter>
        <path d="M41.2695,37.4976 L41.2695,29.8242 L48.5271,29.8242 L48.5271,27.6444 L41.2695,27.6444 L41.2695,21.5838 L49.7871,21.5838 L49.7871,19.404 L38.5731,19.404 L38.5731,37.4976 L41.2695,37.4976 Z M54.1173,22.428 C54.3441,22.428 54.5625,22.3839 54.7725,22.2957 C54.9825,22.2075 55.1652,22.0857 55.3206,21.9303 C55.476,21.7749 55.5999,21.5943 55.6923,21.3885 C55.7847,21.1827 55.8309,20.9664 55.8309,20.7396 C55.8309,20.5044 55.7847,20.2839 55.6923,20.0781 C55.5999,19.8723 55.476,19.6917 55.3206,19.5363 C55.1652,19.3809 54.9825,19.2591 54.7725,19.1709 C54.5625,19.0827 54.3441,19.0386 54.1173,19.0386 C53.8905,19.0386 53.6763,19.0827 53.4747,19.1709 C53.2731,19.2591 53.0946,19.3809 52.9392,19.5363 C52.7838,19.6917 52.662,19.8723 52.5738,20.0781 C52.4856,20.2839 52.4415,20.5044 52.4415,20.7396 C52.4415,20.9664 52.4856,21.1827 52.5738,21.3885 C52.662,21.5943 52.7838,21.7749 52.9392,21.9303 C53.0946,22.0857 53.2731,22.2075 53.4747,22.2957 C53.6763,22.3839 53.8905,22.428 54.1173,22.428 Z M55.3647,37.4976 L55.3647,24.696 L52.9077,24.696 L52.9077,37.4976 L55.3647,37.4976 Z M61.9125,37.4976 L61.9125,28.1106 C62.3829,27.5982 62.8932,27.1929 63.4434,26.8947 C63.9936,26.5965 64.5837,26.4474 65.2137,26.4474 C66.0789,26.4474 66.7215,26.7015 67.1415,27.2097 C67.5615,27.7179 67.7715,28.4298 67.7715,29.3454 L67.7715,29.3454 L67.7715,37.4976 L70.2411,37.4976 L70.2411,29.3454 C70.2411,28.623 70.1487,27.9636 69.9639,27.3672 C69.7791,26.7708 69.5061,26.2605 69.1449,25.8363 C68.7837,25.4121 68.3364,25.0824 67.803,24.8472 C67.2696,24.612 66.6501,24.4944 65.9445,24.4944 C65.4993,24.4944 65.0814,24.5427 64.6908,24.6393 C64.3002,24.7359 63.9348,24.8703 63.5946,25.0425 C63.2544,25.2147 62.9331,25.4226 62.6307,25.6662 C62.3283,25.9098 62.0385,26.1786 61.7613,26.4726 L61.7613,26.4726 L61.5723,25.1874 C61.4883,24.8598 61.2741,24.696 60.9297,24.696 L60.9297,24.696 L59.4555,24.696 L59.4555,37.4976 L61.9125,37.4976 Z M78.2001,37.674 C79.1073,37.674 79.9074,37.4787 80.6004,37.0881 C81.2934,36.6975 81.9129,36.1788 82.4589,35.532 L82.4589,35.532 L82.6731,37.0062 C82.7571,37.3338 82.9713,37.4976 83.3157,37.4976 L83.3157,37.4976 L84.8025,37.4976 L84.8025,18.9 L82.3329,18.9 L82.3329,25.9056 C81.9045,25.4436 81.4194,25.0866 80.8776,24.8346 C80.3358,24.5826 79.6785,24.4566 78.9057,24.4566 C78.0489,24.4566 77.2803,24.6267 76.5999,24.9669 C75.9195,25.3071 75.3399,25.7754 74.8611,26.3718 C74.3823,26.9682 74.0169,27.6738 73.7649,28.4886 C73.5129,29.3034 73.3869,30.1854 73.3869,31.1346 C73.3869,32.193 73.5003,33.1296 73.7271,33.9444 C73.9539,34.7592 74.2773,35.4417 74.6973,35.9919 C75.1173,36.5421 75.6234,36.96 76.2156,37.2456 C76.8078,37.5312 77.4693,37.674 78.2001,37.674 Z M79.0191,35.6958 C78.5319,35.6958 78.0951,35.6097 77.7087,35.4375 C77.3223,35.2653 76.9968,34.9965 76.7322,34.6311 C76.4676,34.2657 76.266,33.7953 76.1274,33.2199 C75.9888,32.6445 75.9195,31.9494 75.9195,31.1346 C75.9195,29.5806 76.2282,28.3983 76.8456,27.5877 C77.463,26.7771 78.3345,26.3718 79.4601,26.3718 C80.0397,26.3718 80.5626,26.4768 81.0288,26.6868 C81.495,26.8968 81.9297,27.2664 82.3329,27.7956 L82.3329,27.7956 L82.3329,33.8688 C81.8793,34.4484 81.3921,34.8978 80.8713,35.217 C80.3505,35.5362 79.7331,35.6958 79.0191,35.6958 Z M98.3265,37.6992 C98.8053,37.6992 99.2421,37.6572 99.6369,37.5732 C100.0317,37.4892 100.4034,37.3653 100.752,37.2015 C101.1006,37.0377 101.4345,36.8403 101.7537,36.6093 C102.0729,36.3783 102.3963,36.1116 102.7239,35.8092 L102.7239,35.8092 L102.9885,36.9306 C103.0641,37.149 103.1649,37.2981 103.2909,37.3779 C103.4169,37.4577 103.6017,37.4976 103.8453,37.4976 L103.8453,37.4976 L104.9415,37.4976 L104.9415,29.3328 C104.9415,28.6104 104.8428,27.951 104.6454,27.3546 C104.448,26.7582 104.1561,26.2458 103.7697,25.8174 C103.3833,25.389 102.9087,25.0551 102.3459,24.8157 C101.7831,24.5763 101.1363,24.4566 100.4055,24.4566 C99.4059,24.4566 98.4882,24.6246 97.6524,24.9606 C96.8166,25.2966 96.0417,25.8048 95.3277,26.4852 L95.3277,26.4852 L95.7687,27.279 C95.8443,27.405 95.943,27.5142 96.0648,27.6066 C96.1866,27.699 96.3315,27.7452 96.4995,27.7452 C96.7095,27.7452 96.9132,27.678 97.1106,27.5436 C97.308,27.4092 97.539,27.2601 97.8036,27.0963 C98.0682,26.9325 98.3832,26.7834 98.7486,26.649 C99.114,26.5146 99.5655,26.4474 100.1031,26.4474 C100.9011,26.4474 101.5059,26.6868 101.9175,27.1656 C102.3291,27.6444 102.5349,28.3668 102.5349,29.3328 L102.5349,29.3328 L102.5349,30.2652 C101.0817,30.2988 99.8574,30.4332 98.862,30.6684 C97.8666,30.9036 97.0602,31.206 96.4428,31.5756 C95.8254,31.9452 95.3802,32.3631 95.1072,32.8293 C94.8342,33.2955 94.6977,33.7806 94.6977,34.2846 C94.6977,34.8558 94.7922,35.3556 94.9812,35.784 C95.1702,36.2124 95.4285,36.5694 95.7561,36.855 C96.0837,37.1406 96.468,37.3527 96.909,37.4913 C97.35,37.6299 97.8225,37.6992 98.3265,37.6992 Z M99.0699,35.973 C98.7843,35.973 98.5197,35.9394 98.2761,35.8722 C98.0325,35.805 97.8204,35.6979 97.6398,35.5509 C97.4592,35.4039 97.3164,35.2149 97.2114,34.9839 C97.1064,34.7529 97.0539,34.4778 97.0539,34.1586 C97.0539,33.8226 97.1505,33.5181 97.3437,33.2451 C97.5369,32.9721 97.8519,32.7348 98.2887,32.5332 C98.7255,32.3316 99.2925,32.1699 99.9897,32.0481 C100.6869,31.9263 101.5353,31.8486 102.5349,31.815 L102.5349,31.815 L102.5349,34.335 C102.2913,34.5954 102.0435,34.8264 101.7915,35.028 C101.5395,35.2296 101.2749,35.3997 100.9977,35.5383 C100.7205,35.6769 100.4244,35.784 100.1094,35.8596 C99.7944,35.9352 99.4479,35.973 99.0699,35.973 Z M119.0325,37.6992 C119.8221,37.6992 120.5235,37.5942 121.1367,37.3842 C121.7499,37.1742 122.2644,36.8844 122.6802,36.5148 C123.096,36.1452 123.411,35.7063 123.6252,35.1981 C123.8394,34.6899 123.9465,34.1376 123.9465,33.5412 C123.9465,33.0204 123.852,32.5794 123.663,32.2182 C123.474,31.857 123.2262,31.5483 122.9196,31.2921 C122.613,31.0359 122.2644,30.8217 121.8738,30.6495 C121.4832,30.4773 121.0842,30.324 120.6768,30.1896 C120.2694,30.0552 119.8704,29.9271 119.4798,29.8053 C119.0892,29.6835 118.7406,29.547 118.434,29.3958 C118.1274,29.2446 117.8796,29.064 117.6906,28.854 C117.5016,28.644 117.4071,28.3794 117.4071,28.0602 C117.4071,27.8166 117.4617,27.5877 117.5709,27.3735 C117.6801,27.1593 117.8355,26.9745 118.0371,26.8191 C118.2387,26.6637 118.4844,26.5419 118.7742,26.4537 C119.064,26.3655 119.3853,26.3214 119.7381,26.3214 C120.1665,26.3214 120.5361,26.3676 120.8469,26.46 C121.1577,26.5524 121.4286,26.6532 121.6596,26.7624 C121.8906,26.8716 122.088,26.9724 122.2518,27.0648 C122.4156,27.1572 122.5647,27.2034 122.6991,27.2034 C122.8167,27.2034 122.9133,27.1803 122.9889,27.1341 C123.0645,27.0879 123.1359,27.0102 123.2031,26.901 L123.2031,26.901 L123.7449,26.0064 C123.2577,25.536 122.6718,25.1664 121.9872,24.8976 C121.3026,24.6288 120.5361,24.4944 119.6877,24.4944 C118.9485,24.4944 118.2912,24.5973 117.7158,24.8031 C117.1404,25.0089 116.6574,25.284 116.2668,25.6284 C115.8762,25.9728 115.578,26.3718 115.3722,26.8254 C115.1664,27.279 115.0635,27.7536 115.0635,28.2492 C115.0635,28.8036 115.158,29.274 115.347,29.6604 C115.536,30.0468 115.7838,30.3744 116.0904,30.6432 C116.397,30.912 116.7477,31.1346 117.1425,31.311 C117.5373,31.4874 117.9405,31.6428 118.3521,31.7772 C118.7637,31.9116 119.1669,32.0376 119.5617,32.1552 C119.9565,32.2728 120.3072,32.4114 120.6138,32.571 C120.9204,32.7306 121.1682,32.9217 121.3572,33.1443 C121.5462,33.3669 121.6407,33.6462 121.6407,33.9822 C121.6407,34.2426 121.5903,34.4904 121.4895,34.7256 C121.3887,34.9608 121.2354,35.1687 121.0296,35.3493 C120.8238,35.5299 120.5655,35.6727 120.2547,35.7777 C119.9439,35.8827 119.5785,35.9352 119.1585,35.9352 C118.6545,35.9352 118.2345,35.8785 117.8985,35.7651 C117.5625,35.6517 117.2769,35.5257 117.0417,35.3871 C116.8065,35.2485 116.6049,35.1204 116.4369,35.0028 C116.2689,34.8852 116.1051,34.8264 115.9455,34.8264 C115.7775,34.8264 115.6431,34.8579 115.5423,34.9209 C115.4415,34.9839 115.3575,35.0742 115.2903,35.1918 L115.2903,35.1918 L114.7107,36.1368 C115.2147,36.5904 115.8405,36.9642 116.5881,37.2582 C117.3357,37.5522 118.1505,37.6992 119.0325,37.6992 Z M131.2881,37.6992 C131.7333,37.6992 132.1491,37.6509 132.5355,37.5543 C132.9219,37.4577 133.2873,37.3233 133.6317,37.1511 C133.9761,36.9789 134.2995,36.771 134.6019,36.5274 C134.9043,36.2838 135.1941,36.015 135.4713,35.721 L135.4713,35.721 L135.6477,37.0062 C135.7485,37.3338 135.9669,37.4976 136.3029,37.4976 L136.3029,37.4976 L137.7771,37.4976 L137.7771,24.696 L135.3201,24.696 L135.3201,34.0704 C134.8413,34.5912 134.3289,35.0007 133.7829,35.2989 C133.2369,35.5971 132.6489,35.7462 132.0189,35.7462 C131.1537,35.7462 130.5111,35.4921 130.0911,34.9839 C129.6711,34.4757 129.4611,33.7638 129.4611,32.8482 L129.4611,32.8482 L129.4611,24.696 L126.9915,24.696 L126.9915,32.8482 C126.9915,33.5706 127.0839,34.23 127.2687,34.8264 C127.4535,35.4228 127.7265,35.9331 128.0877,36.3573 C128.4489,36.7815 128.8962,37.1112 129.4296,37.3464 C129.963,37.5816 130.5825,37.6992 131.2881,37.6992 Z M143.0649,22.428 C143.2917,22.428 143.5101,22.3839 143.7201,22.2957 C143.9301,22.2075 144.1128,22.0857 144.2682,21.9303 C144.4236,21.7749 144.5475,21.5943 144.6399,21.3885 C144.7323,21.1827 144.7785,20.9664 144.7785,20.7396 C144.7785,20.5044 144.7323,20.2839 144.6399,20.0781 C144.5475,19.8723 144.4236,19.6917 144.2682,19.5363 C144.1128,19.3809 143.9301,19.2591 143.7201,19.1709 C143.5101,19.0827 143.2917,19.0386 143.0649,19.0386 C142.8381,19.0386 142.6239,19.0827 142.4223,19.1709 C142.2207,19.2591 142.0422,19.3809 141.8868,19.5363 C141.7314,19.6917 141.6096,19.8723 141.5214,20.0781 C141.4332,20.2839 141.3891,20.5044 141.3891,20.7396 C141.3891,20.9664 141.4332,21.1827 141.5214,21.3885 C141.6096,21.5943 141.7314,21.7749 141.8868,21.9303 C142.0422,22.0857 142.2207,22.2075 142.4223,22.2957 C142.6239,22.3839 142.8381,22.428 143.0649,22.428 Z M144.3123,37.4976 L144.3123,24.696 L141.8553,24.696 L141.8553,37.4976 L144.3123,37.4976 Z M152.4099,37.6992 C153.0063,37.6992 153.5817,37.5984 154.1361,37.3968 C154.6905,37.1952 155.1693,36.9096 155.5725,36.54 L155.5725,36.54 L154.8417,35.3556 C154.7913,35.2716 154.743,35.2107 154.6968,35.1729 C154.6506,35.1351 154.5855,35.1162 154.5015,35.1162 C154.4343,35.1162 154.3587,35.1456 154.2747,35.2044 C154.1907,35.2632 154.0899,35.3283 153.9723,35.3997 C153.8547,35.4711 153.714,35.5362 153.5502,35.595 C153.3864,35.6538 153.1911,35.6832 152.9643,35.6832 C152.5779,35.6832 152.2608,35.5593 152.013,35.3115 C151.7652,35.0637 151.6413,34.6878 151.6413,34.1838 L151.6413,34.1838 L151.6413,26.6868 L155.2701,26.6868 L155.2701,24.8976 L151.6413,24.8976 L151.6413,20.601 L150.3939,20.601 C150.2427,20.601 150.1188,20.6409 150.0222,20.7207 C149.9256,20.8005 149.8605,20.9118 149.8269,21.0546 L149.8269,21.0546 L149.2725,24.8724 L147.1935,25.1622 L147.1935,26.1576 C147.1935,26.334 147.2418,26.4663 147.3384,26.5545 C147.435,26.6427 147.5547,26.6868 147.6975,26.6868 L147.6975,26.6868 L149.1843,26.6868 L149.1843,34.3476 C149.1843,35.4228 149.4636,36.2502 150.0222,36.8298 C150.5808,37.4094 151.3767,37.6992 152.4099,37.6992 Z M160.7217,37.6992 C161.2005,37.6992 161.6373,37.6572 162.0321,37.5732 C162.4269,37.4892 162.7986,37.3653 163.1472,37.2015 C163.4958,37.0377 163.8297,36.8403 164.1489,36.6093 C164.4681,36.3783 164.7915,36.1116 165.1191,35.8092 L165.1191,35.8092 L165.3837,36.9306 C165.4593,37.149 165.5601,37.2981 165.6861,37.3779 C165.8121,37.4577 165.9969,37.4976 166.2405,37.4976 L166.2405,37.4976 L167.3367,37.4976 L167.3367,29.3328 C167.3367,28.6104 167.238,27.951 167.0406,27.3546 C166.8432,26.7582 166.5513,26.2458 166.1649,25.8174 C165.7785,25.389 165.3039,25.0551 164.7411,24.8157 C164.1783,24.5763 163.5315,24.4566 162.8007,24.4566 C161.8011,24.4566 160.8834,24.6246 160.0476,24.9606 C159.2118,25.2966 158.4369,25.8048 157.7229,26.4852 L157.7229,26.4852 L158.1639,27.279 C158.2395,27.405 158.3382,27.5142 158.46,27.6066 C158.5818,27.699 158.7267,27.7452 158.8947,27.7452 C159.1047,27.7452 159.3084,27.678 159.5058,27.5436 C159.7032,27.4092 159.9342,27.2601 160.1988,27.0963 C160.4634,26.9325 160.7784,26.7834 161.1438,26.649 C161.5092,26.5146 161.9607,26.4474 162.4983,26.4474 C163.2963,26.4474 163.9011,26.6868 164.3127,27.1656 C164.7243,27.6444 164.9301,28.3668 164.9301,29.3328 L164.9301,29.3328 L164.9301,30.2652 C163.4769,30.2988 162.2526,30.4332 161.2572,30.6684 C160.2618,30.9036 159.4554,31.206 158.838,31.5756 C158.2206,31.9452 157.7754,32.3631 157.5024,32.8293 C157.2294,33.2955 157.0929,33.7806 157.0929,34.2846 C157.0929,34.8558 157.1874,35.3556 157.3764,35.784 C157.5654,36.2124 157.8237,36.5694 158.1513,36.855 C158.4789,37.1406 158.8632,37.3527 159.3042,37.4913 C159.7452,37.6299 160.2177,37.6992 160.7217,37.6992 Z M161.4651,35.973 C161.1795,35.973 160.9149,35.9394 160.6713,35.8722 C160.4277,35.805 160.2156,35.6979 160.035,35.5509 C159.8544,35.4039 159.7116,35.2149 159.6066,34.9839 C159.5016,34.7529 159.4491,34.4778 159.4491,34.1586 C159.4491,33.8226 159.5457,33.5181 159.7389,33.2451 C159.9321,32.9721 160.2471,32.7348 160.6839,32.5332 C161.1207,32.3316 161.6877,32.1699 162.3849,32.0481 C163.0821,31.9263 163.9305,31.8486 164.9301,31.815 L164.9301,31.815 L164.9301,34.335 C164.6865,34.5954 164.4387,34.8264 164.1867,35.028 C163.9347,35.2296 163.6701,35.3997 163.3929,35.5383 C163.1157,35.6769 162.8196,35.784 162.5046,35.8596 C162.1896,35.9352 161.8431,35.973 161.4651,35.973 Z M177.0723,37.674 C177.9207,37.674 178.6851,37.5081 179.3655,37.1763 C180.0459,36.8445 180.6234,36.3762 181.098,35.7714 C181.5726,35.1666 181.938,34.44 182.1942,33.5916 C182.4504,32.7432 182.5785,31.8024 182.5785,30.7692 C182.5785,29.7948 182.4651,28.9212 182.2383,28.1484 C182.0115,27.3756 181.6881,26.7183 181.2681,26.1765 C180.8481,25.6347 180.3378,25.2189 179.7372,24.9291 C179.1366,24.6393 178.4625,24.4944 177.7149,24.4944 C176.8581,24.4944 176.0937,24.675 175.4217,25.0362 C174.7497,25.3974 174.1491,25.872 173.6199,26.46 L173.6199,26.46 L173.6199,18.9 L171.1629,18.9 L171.1629,37.4976 L172.7505,37.4976 C173.1033,37.4976 173.3133,37.3254 173.3805,36.981 L173.3805,36.981 L173.4939,35.91 C173.7123,36.1872 173.9433,36.435 174.1869,36.6534 C174.4305,36.8718 174.6972,37.0566 174.987,37.2078 C175.2768,37.359 175.5939,37.4745 175.9383,37.5543 C176.2827,37.6341 176.6607,37.674 177.0723,37.674 Z M176.4675,35.7714 C175.9131,35.7714 175.4007,35.6664 174.9303,35.4564 C174.4599,35.2464 174.0231,34.8768 173.6199,34.3476 L173.6199,34.3476 L173.6199,28.287 C174.0651,27.699 174.546,27.2454 175.0626,26.9262 C175.5792,26.607 176.1903,26.4474 176.8959,26.4474 C177.8955,26.4474 178.6683,26.8023 179.2143,27.5121 C179.7603,28.2219 180.0333,29.337 180.0333,30.8574 C180.0333,32.5038 179.7246,33.7344 179.1072,34.5492 C178.4898,35.364 177.6099,35.7714 176.4675,35.7714 Z M188.3703,37.4976 L188.3703,18.9 L185.9007,18.9 L185.9007,37.4976 L188.3703,37.4976 Z M197.8161,37.674 C198.2781,37.674 198.7464,37.6362 199.221,37.5606 C199.6956,37.485 200.1555,37.3674 200.6007,37.2078 C201.0459,37.0482 201.4659,36.8403 201.8607,36.5841 C202.2555,36.3279 202.6041,36.0234 202.9065,35.6706 L202.9065,35.6706 L202.2009,34.7634 C202.0917,34.6122 201.9363,34.5366 201.7347,34.5366 C201.5835,34.5366 201.4092,34.5996 201.2118,34.7256 C201.0144,34.8516 200.7708,34.9881 200.481,35.1351 C200.1912,35.2821 199.8468,35.4186 199.4478,35.5446 C199.0488,35.6706 198.5763,35.7336 198.0303,35.7336 C197.4507,35.7336 196.9257,35.6412 196.4553,35.4564 C195.9849,35.2716 195.5796,34.9902 195.2394,34.6122 C194.8992,34.2342 194.6325,33.7617 194.4393,33.1947 C194.2461,32.6277 194.1369,31.962 194.1117,31.1976 L194.1117,31.1976 L202.5033,31.1976 C202.7301,31.1976 202.8855,31.1325 202.9695,31.0023 C203.0535,30.8721 203.0955,30.618 203.0955,30.24 C203.0955,29.3244 202.959,28.5096 202.686,27.7956 C202.413,27.0816 202.0371,26.481 201.5583,25.9938 C201.0795,25.5066 200.5104,25.1349 199.851,24.8787 C199.1916,24.6225 198.4713,24.4944 197.6901,24.4944 C196.7577,24.4944 195.9177,24.6582 195.1701,24.9858 C194.4225,25.3134 193.7904,25.7628 193.2738,26.334 C192.7572,26.9052 192.3603,27.5751 192.0831,28.3437 C191.8059,29.1123 191.6673,29.9418 191.6673,30.8322 C191.6673,31.941 191.8206,32.9217 192.1272,33.7743 C192.4338,34.6269 192.8622,35.3409 193.4124,35.9163 C193.9626,36.4917 194.6136,36.9285 195.3654,37.2267 C196.1172,37.5249 196.9341,37.674 197.8161,37.674 Z M200.8779,29.673 L194.1747,29.673 C194.3343,28.6146 194.7102,27.7872 195.3024,27.1908 C195.8946,26.5944 196.7073,26.2962 197.7405,26.2962 C198.2445,26.2962 198.6897,26.3802 199.0761,26.5482 C199.4625,26.7162 199.7901,26.9514 200.0589,27.2538 C200.3277,27.5562 200.5314,27.9132 200.67,28.3248 C200.8086,28.7364 200.8779,29.1858 200.8779,29.673 L200.8779,29.673 Z M54.4608,80.6976 L54.4608,75.0816 L41.544,75.0816 L41.544,67.5864 L51.4368,67.5864 L51.4368,62.1864 L41.544,62.1864 L41.544,54.8424 L54.4608,54.8424 L54.4608,49.2264 L34.2,49.2264 L34.2,80.6976 L54.4608,80.6976 Z M65.4264,80.6976 L65.4264,64.7136 C66.0312,64.1808 66.654,63.7596 67.2948,63.45 C67.9356,63.1404 68.6232,62.9856 69.3576,62.9856 C70.3368,62.9856 71.0784,63.2916 71.5824,63.9036 C72.0864,64.5156 72.3384,65.3688 72.3384,66.4632 L72.3384,66.4632 L72.3384,80.6976 L79.0344,80.6976 L79.0344,66.4632 C79.0344,65.2392 78.8688,64.1052 78.5376,63.0612 C78.2064,62.0172 77.7168,61.1172 77.0688,60.3612 C76.4208,59.6052 75.6252,59.0148 74.682,58.59 C73.7388,58.1652 72.6552,57.9528 71.4312,57.9528 C70.7112,57.9528 70.0452,58.0212 69.4332,58.158 C68.8212,58.2948 68.2524,58.482 67.7268,58.7196 C67.2012,58.9572 66.708,59.2488 66.2472,59.5944 C65.7864,59.94 65.34,60.3144 64.908,60.7176 L64.908,60.7176 L64.5192,59.4216 C64.26,58.6728 63.7128,58.2984 62.8776,58.2984 L62.8776,58.2984 L58.7304,58.2984 L58.7304,80.6976 L65.4264,80.6976 Z M93.0024,88.4088 C94.788,88.4088 96.372,88.182 97.7544,87.7284 C99.1368,87.2748 100.3032,86.6736 101.2536,85.9248 C102.204,85.176 102.924,84.3192 103.4136,83.3544 C103.9032,82.3896 104.148,81.4032 104.148,80.3952 C104.148,79.3152 103.9464,78.426 103.5432,77.7276 C103.14,77.0292 102.6072,76.4712 101.9448,76.0536 C101.2824,75.636 100.53,75.3336 99.6876,75.1464 C98.8452,74.9592 97.9848,74.826 97.1064,74.7468 C96.228,74.6676 95.3676,74.6172 94.5252,74.5956 C93.6828,74.574 92.9304,74.5308 92.268,74.466 C91.6056,74.4012 91.0728,74.286 90.6696,74.1204 C90.2664,73.9548 90.0648,73.6848 90.0648,73.3104 C90.0648,72.936 90.3096,72.5976 90.7992,72.2952 C91.116,72.3528 91.44,72.3924 91.7712,72.414 C92.1024,72.4356 92.4408,72.4464 92.7864,72.4464 C94.0536,72.4464 95.2416,72.2772 96.3504,71.9388 C97.4592,71.6004 98.4204,71.118 99.234,70.4916 C100.0476,69.8652 100.6884,69.1056 101.1564,68.2128 C101.6244,67.32 101.8584,66.312 101.8584,65.1888 C101.8584,64.8288 101.8332,64.4832 101.7828,64.152 C101.7324,63.8208 101.664,63.4968 101.5776,63.18 L101.5776,63.18 L103.1976,62.8128 C103.7016,62.6976 104.058,62.532 104.2668,62.316 C104.4756,62.1 104.58,61.8048 104.58,61.4304 L104.58,61.4304 L104.58,58.9896 L97.8408,58.9896 C96.372,58.2696 94.6872,57.9096 92.7864,57.9096 C91.476,57.9096 90.2592,58.0788 89.136,58.4172 C88.0128,58.7556 87.0372,59.238 86.2092,59.8644 C85.3812,60.4908 84.7296,61.254 84.2544,62.154 C83.7792,63.054 83.5416,64.0656 83.5416,65.1888 C83.5416,66.5424 83.88,67.7268 84.5568,68.742 C85.2336,69.7572 86.1552,70.5744 87.3216,71.1936 C86.8032,71.4384 86.3568,71.7192 85.9824,72.036 C85.608,72.3528 85.2948,72.6876 85.0428,73.0404 C84.7908,73.3932 84.6072,73.7532 84.492,74.1204 C84.3768,74.4876 84.3192,74.8368 84.3192,75.168 C84.3192,75.9888 84.4776,76.6584 84.7944,77.1768 C85.1112,77.6952 85.5432,78.12 86.0904,78.4512 C85.0536,78.8544 84.2472,79.3872 83.6712,80.0496 C83.0952,80.712 82.8072,81.54 82.8072,82.5336 C82.8072,83.2968 83.0088,84.0312 83.412,84.7368 C83.8152,85.4424 84.438,86.0652 85.2804,86.6052 C86.1228,87.1452 87.1812,87.5808 88.4556,87.912 C89.73,88.2432 91.2456,88.4088 93.0024,88.4088 Z M92.7864,68.3208 C92.2392,68.3208 91.7676,68.2452 91.3716,68.094 C90.9756,67.9428 90.648,67.734 90.3888,67.4676 C90.1296,67.2012 89.9388,66.888 89.8164,66.528 C89.694,66.168 89.6328,65.772 89.6328,65.34 C89.6328,64.4328 89.8812,63.72 90.378,63.2016 C90.8748,62.6832 91.6776,62.424 92.7864,62.424 C93.8952,62.424 94.698,62.6832 95.1948,63.2016 C95.6916,63.72 95.94,64.4328 95.94,65.34 C95.94,66.2184 95.6916,66.9348 95.1948,67.4892 C94.698,68.0436 93.8952,68.3208 92.7864,68.3208 Z M93.132,83.808 C92.2392,83.808 91.5012,83.754 90.918,83.646 C90.3348,83.538 89.8704,83.3904 89.5248,83.2032 C89.1792,83.016 88.938,82.7928 88.8012,82.5336 C88.6644,82.2744 88.596,81.9864 88.596,81.6696 C88.596,81.2232 88.7292,80.8236 88.9956,80.4708 C89.262,80.118 89.604,79.7976 90.0216,79.5096 C90.9576,79.596 91.8972,79.65 92.8404,79.6716 C93.7836,79.6932 94.6368,79.7544 95.4,79.8552 C96.1632,79.956 96.7824,80.1252 97.2576,80.3628 C97.7328,80.6004 97.9704,80.9856 97.9704,81.5184 C97.9704,81.8496 97.8984,82.1556 97.7544,82.4364 C97.6104,82.7172 97.3548,82.9584 96.9876,83.16 C96.6204,83.3616 96.1272,83.52 95.508,83.6352 C94.8888,83.7504 94.0968,83.808 93.132,83.808 Z M111.7224,56.052 C112.284,56.052 112.8132,55.9476 113.31,55.7388 C113.8068,55.53 114.2424,55.2492 114.6168,54.8964 C114.9912,54.5436 115.2864,54.1332 115.5024,53.6652 C115.7184,53.1972 115.8264,52.6968 115.8264,52.164 C115.8264,51.6168 115.7184,51.1056 115.5024,50.6304 C115.2864,50.1552 114.9912,49.7376 114.6168,49.3776 C114.2424,49.0176 113.8068,48.7368 113.31,48.5352 C112.8132,48.3336 112.284,48.2328 111.7224,48.2328 C111.1752,48.2328 110.664,48.3336 110.1888,48.5352 C109.7136,48.7368 109.2924,49.0176 108.9252,49.3776 C108.558,49.7376 108.27,50.1552 108.0612,50.6304 C107.8524,51.1056 107.748,51.6168 107.748,52.164 C107.748,52.6968 107.8524,53.1972 108.0612,53.6652 C108.27,54.1332 108.558,54.5436 108.9252,54.8964 C109.2924,55.2492 109.7136,55.53 110.1888,55.7388 C110.664,55.9476 111.1752,56.052 111.7224,56.052 Z M115.1352,80.6976 L115.1352,58.2984 L108.4392,58.2984 L108.4392,80.6976 L115.1352,80.6976 Z M127.4184,80.6976 L127.4184,64.7136 C128.0232,64.1808 128.646,63.7596 129.2868,63.45 C129.9276,63.1404 130.6152,62.9856 131.3496,62.9856 C132.3288,62.9856 133.0704,63.2916 133.5744,63.9036 C134.0784,64.5156 134.3304,65.3688 134.3304,66.4632 L134.3304,66.4632 L134.3304,80.6976 L141.0264,80.6976 L141.0264,66.4632 C141.0264,65.2392 140.8608,64.1052 140.5296,63.0612 C140.1984,62.0172 139.7088,61.1172 139.0608,60.3612 C138.4128,59.6052 137.6172,59.0148 136.674,58.59 C135.7308,58.1652 134.6472,57.9528 133.4232,57.9528 C132.7032,57.9528 132.0372,58.0212 131.4252,58.158 C130.8132,58.2948 130.2444,58.482 129.7188,58.7196 C129.1932,58.9572 128.7,59.2488 128.2392,59.5944 C127.7784,59.94 127.332,60.3144 126.9,60.7176 L126.9,60.7176 L126.5112,59.4216 C126.252,58.6728 125.7048,58.2984 124.8696,58.2984 L124.8696,58.2984 L120.7224,58.2984 L120.7224,80.6976 L127.4184,80.6976 Z M156.42,81.0432 C157.1832,81.0432 157.986,80.9892 158.8284,80.8812 C159.6708,80.7732 160.5132,80.5788 161.3556,80.298 C162.198,80.0172 163.0188,79.6284 163.818,79.1316 C164.6172,78.6348 165.3624,77.9904 166.0536,77.1984 L166.0536,77.1984 L164.1096,74.8008 C163.836,74.412 163.4328,74.2176 162.9,74.2176 C162.4968,74.2176 162.1116,74.3112 161.7444,74.4984 C161.3772,74.6856 160.974,74.8944 160.5348,75.1248 C160.0956,75.3552 159.5952,75.564 159.0336,75.7512 C158.472,75.9384 157.8024,76.032 157.0248,76.032 C155.5704,76.032 154.3824,75.6108 153.4608,74.7684 C152.5392,73.926 151.9704,72.5688 151.7544,70.6968 L151.7544,70.6968 L164.6712,70.6968 C164.9736,70.6968 165.222,70.6608 165.4164,70.5888 C165.6108,70.5168 165.7656,70.3872 165.8808,70.2 C165.996,70.0128 166.0752,69.7608 166.1184,69.444 C166.1616,69.1272 166.1832,68.7168 166.1832,68.2128 C166.1832,66.6 165.9348,65.1564 165.438,63.882 C164.9412,62.6076 164.25,61.5312 163.3644,60.6528 C162.4788,59.7744 161.4204,59.1048 160.1892,58.644 C158.958,58.1832 157.6008,57.9528 156.1176,57.9528 C154.404,57.9528 152.8668,58.248 151.506,58.8384 C150.1452,59.4288 148.986,60.228 148.0284,61.236 C147.0708,62.244 146.3364,63.4176 145.8252,64.7568 C145.314,66.096 145.0584,67.5144 145.0584,69.012 C145.0584,70.9992 145.3572,72.7416 145.9548,74.2392 C146.5524,75.7368 147.366,76.9896 148.3956,77.9976 C149.4252,79.0056 150.6276,79.7652 152.0028,80.2764 C153.378,80.7876 154.8504,81.0432 156.42,81.0432 Z M160.1784,66.8088 L151.8408,66.8088 C152.0712,65.4408 152.5464,64.3932 153.2664,63.666 C153.9864,62.9388 154.98,62.5752 156.2472,62.5752 C156.9672,62.5752 157.5792,62.6976 158.0832,62.9424 C158.5872,63.1872 158.994,63.5076 159.3036,63.9036 C159.6132,64.2996 159.8364,64.7496 159.9732,65.2536 C160.11,65.7576 160.1784,66.276 160.1784,66.8088 L160.1784,66.8088 Z M180.6048,81.0432 C181.368,81.0432 182.1708,80.9892 183.0132,80.8812 C183.8556,80.7732 184.698,80.5788 185.5404,80.298 C186.3828,80.0172 187.2036,79.6284 188.0028,79.1316 C188.802,78.6348 189.5472,77.9904 190.2384,77.1984 L190.2384,77.1984 L188.2944,74.8008 C188.0208,74.412 187.6176,74.2176 187.0848,74.2176 C186.6816,74.2176 186.2964,74.3112 185.9292,74.4984 C185.562,74.6856 185.1588,74.8944 184.7196,75.1248 C184.2804,75.3552 183.78,75.564 183.2184,75.7512 C182.6568,75.9384 181.9872,76.032 181.2096,76.032 C179.7552,76.032 178.5672,75.6108 177.6456,74.7684 C176.724,73.926 176.1552,72.5688 175.9392,70.6968 L175.9392,70.6968 L188.856,70.6968 C189.1584,70.6968 189.4068,70.6608 189.6012,70.5888 C189.7956,70.5168 189.9504,70.3872 190.0656,70.2 C190.1808,70.0128 190.26,69.7608 190.3032,69.444 C190.3464,69.1272 190.368,68.7168 190.368,68.2128 C190.368,66.6 190.1196,65.1564 189.6228,63.882 C189.126,62.6076 188.4348,61.5312 187.5492,60.6528 C186.6636,59.7744 185.6052,59.1048 184.374,58.644 C183.1428,58.1832 181.7856,57.9528 180.3024,57.9528 C178.5888,57.9528 177.0516,58.248 175.6908,58.8384 C174.33,59.4288 173.1708,60.228 172.2132,61.236 C171.2556,62.244 170.5212,63.4176 170.01,64.7568 C169.4988,66.096 169.2432,67.5144 169.2432,69.012 C169.2432,70.9992 169.542,72.7416 170.1396,74.2392 C170.7372,75.7368 171.5508,76.9896 172.5804,77.9976 C173.61,79.0056 174.8124,79.7652 176.1876,80.2764 C177.5628,80.7876 179.0352,81.0432 180.6048,81.0432 Z M184.3632,66.8088 L176.0256,66.8088 C176.256,65.4408 176.7312,64.3932 177.4512,63.666 C178.1712,62.9388 179.1648,62.5752 180.432,62.5752 C181.152,62.5752 181.764,62.6976 182.268,62.9424 C182.772,63.1872 183.1788,63.5076 183.4884,63.9036 C183.798,64.2996 184.0212,64.7496 184.158,65.2536 C184.2948,65.7576 184.3632,66.276 184.3632,66.8088 L184.3632,66.8088 Z M201.312,80.6976 L201.312,67.0896 C201.7152,66.168 202.2084,65.448 202.7916,64.9296 C203.3748,64.4112 204.156,64.152 205.1352,64.152 C205.308,64.152 205.4988,64.1628 205.7076,64.1844 C205.9164,64.206 206.1216,64.2276 206.3232,64.2492 C206.5248,64.2708 206.7192,64.2888 206.9064,64.3032 C207.0936,64.3176 207.2448,64.3248 207.36,64.3248 C207.648,64.3248 207.8748,64.2672 208.0404,64.152 C208.206,64.0368 208.3248,63.8208 208.3968,63.504 L208.3968,63.504 L208.8288,58.5792 C208.1952,58.104 207.3744,57.8664 206.3664,57.8664 C205.2,57.8664 204.1668,58.212 203.2668,58.9032 C202.3668,59.5944 201.5712,60.5448 200.88,61.7544 L200.88,61.7544 L200.5344,59.8752 C200.4768,59.5872 200.4084,59.3424 200.3292,59.1408 C200.25,58.9392 200.1348,58.7772 199.9836,58.6548 C199.8324,58.5324 199.6452,58.4424 199.422,58.3848 C199.1988,58.3272 198.9216,58.2984 198.5904,58.2984 L198.5904,58.2984 L194.616,58.2984 L194.616,80.6976 L201.312,80.6976 Z" id="path-3"></path>
        <filter x="-2.9%" y="-5.8%" width="105.7%" height="114.4%" filterUnits="objectBoundingBox" id="filter-4">
            <feOffset dx="0" dy="1" in="SourceAlpha" result="shadowOffsetOuter1"></feOffset>
            <feGaussianBlur stdDeviation="1.5" in="shadowOffsetOuter1" result="shadowBlurOuter1"></feGaussianBlur>
            <feColorMatrix values="0 0 0 0 0   0 0 0 0 0   0 0 0 0 0  0 0 0 0.189166302 0" type="matrix" in="shadowBlurOuter1"></feColorMatrix>
        </filter>
    </defs>
    <g id="Page-1" stroke="none" stroke-width="1" fill="none" fill-rule="evenodd">
        <g id="Home-v1" transform="translate(-661.000000, -516.000000)">
            <g id="Group-3" transform="translate(672.000000, 525.000000)">
                <g id="Rectangle">
                    <use fill="black" fill-opacity="1" filter="url(#filter-2)" xlink:href="#path-1"></use>
                    <use fill="#FFFFFF" fill-rule="evenodd" xlink:href="#path-1"></use>
                </g>
                <g id="FindasuitableEngineer" fill-rule="nonzero">
                    <use fill="black" fill-opacity="1" filter="url(#filter-4)" xlink:href="#path-3"></use>
                    <use fill="#313131" xlink:href="#path-3"></use>
                </g>
            </g>
        </g>
    </g>
</svg>