<?xml version="1.0" encoding="UTF-8"?>
<svg width="32px" height="32px" viewBox="0 0 32 32" version="1.1" xmlns="http://www.w3.org/2000/svg" xmlns:xlink="http://www.w3.org/1999/xlink">
    <title>insta</title>
    <g id="Page-1" stroke="none" stroke-width="1" fill="none" fill-rule="evenodd">
        <g id="footer" transform="translate(-588.000000, -520.000000)" fill="#11243B" fill-rule="nonzero">
            <g id="Group" transform="translate(0.000000, 42.777778)">
                <path d="M605.649871,478.02296 C608.896724,478.028908 609.578495,478.054493 611.262504,478.131289 C613.093941,478.21465 614.088278,478.520638 614.750171,478.777708 C615.566306,479.078705 616.304072,479.558902 616.910058,480.182858 C617.534015,480.788844 618.014212,481.52711 618.315208,482.342746 C618.572778,483.004639 618.878766,483.999475 618.962126,485.830912 C618.977937,486.177532 618.991562,486.481685 619.003282,486.774503 L619.012868,487.023439 C619.053963,488.137696 619.067908,489.215637 619.070822,492.043737 L619.070822,494.79956 C619.066936,498.570001 619.04344,499.229453 618.962126,501.012521 C618.878267,502.843957 618.572278,503.838294 618.315208,504.500188 C617.683265,506.138447 616.388431,507.433282 614.750171,508.065225 C614.088278,508.322794 613.093442,508.628782 611.262005,508.712143 C609.52934,508.791198 608.857971,508.815603 605.356465,508.820469 L601.986121,508.820469 C598.485038,508.815603 597.813996,508.791198 596.080895,508.712143 C594.249458,508.628782 593.254622,508.322794 592.592729,508.065225 C591.776594,507.764228 591.038828,507.284032 590.432841,506.660075 C589.808885,506.054089 589.329187,505.316323 589.027692,504.500188 C588.770621,503.838294 588.464633,502.843957 588.381273,501.012521 C588.360944,500.566754 588.344204,500.191213 588.330467,499.819732 L588.321747,499.571954 C588.289977,498.618876 588.276967,497.596288 588.272944,495.399888 L588.271494,493.789687 L588.271494,493.789687 L588.271456,493.421716 C588.271456,493.296313 588.271468,493.173674 588.271494,493.053709 L588.272944,491.443354 C588.276967,489.246752 588.289977,488.224129 588.321747,487.27118 L588.330467,487.023439 L588.330467,487.023439 L588.340076,486.774503 C588.351821,486.481685 588.365462,486.177532 588.381273,485.830912 C588.464633,483.999475 588.770621,483.004639 589.027692,482.342746 C589.329187,481.526611 589.809384,480.788844 590.433341,480.182858 C591.038828,479.558902 591.777093,479.078705 592.593228,478.777708 C593.254622,478.520638 594.249458,478.21465 596.080895,478.13079 C596.427515,478.114979 596.731668,478.101354 597.024486,478.089634 L597.273423,478.080049 C598.305142,478.041998 599.305726,478.027224 601.693337,478.02293 Z M603.6717,483.77535 C598.34411,483.77535 594.025333,488.093627 594.025333,493.421217 C594.025333,498.748807 598.34411,503.067084 603.6717,503.067084 C608.99879,503.067084 613.317567,498.748807 613.317567,493.421217 C613.317567,488.093627 608.99879,483.77535 603.6717,483.77535 Z M603.67145,487.215499 C607.098981,487.215499 609.877418,489.993936 609.877418,493.421467 C609.877418,496.848997 607.098981,499.627434 603.67145,499.627434 C600.243919,499.627434 597.465482,496.848997 597.465482,493.421467 C597.465482,489.993936 600.243919,487.215499 603.67145,487.215499 Z M613.698929,481.139758 C612.454011,481.139758 611.444699,482.149069 611.444699,483.393987 C611.444699,484.638905 612.454011,485.648217 613.698929,485.648217 C614.943847,485.648217 615.95266,484.638905 615.953159,483.393987 C615.953159,482.149069 614.943847,481.139758 613.698929,481.139758 Z" id="insta"></path>
            </g>
        </g>
    </g>
</svg>