<?xml version="1.0" encoding="UTF-8"?>
<svg width="256px" height="130px" viewBox="0 0 256 130" version="1.1" xmlns="http://www.w3.org/2000/svg" xmlns:xlink="http://www.w3.org/1999/xlink">
    <title>Group 4</title>
    <defs>
        <rect id="path-1" x="0" y="0" width="234" height="108" rx="13.5"></rect>
        <filter x="-7.5%" y="-14.4%" width="115.0%" height="132.4%" filterUnits="objectBoundingBox" id="filter-2">
            <feOffset dx="0" dy="2" in="SourceAlpha" result="shadowOffsetOuter1"></feOffset>
            <feGaussianBlur stdDeviation="5.5" in="shadowOffsetOuter1" result="shadowBlurOuter1"></feGaussianBlur>
            <feColorMatrix values="0 0 0 0 0.461553819   0 0 0 0 0.489347605   0 0 0 0 0.55004529  0 0 0 0.26324847 0" type="matrix" in="shadowBlurOuter1"></feColorMatrix>
        </filter>
        <path d="M53.8956,42.0606 C54.828,42.0606 55.6533,41.9115 56.3715,41.6133 C57.0897,41.3151 57.6903,40.8867 58.1733,40.3281 C58.6563,39.7695 59.0238,39.087 59.2758,38.2806 C59.5278,37.4742 59.6538,36.567 59.6538,35.559 L59.6538,35.559 L59.6538,23.7654 L56.97,23.7654 L56.97,35.622 C56.97,36.3612 56.8965,36.9954 56.7495,37.5246 C56.6025,38.0538 56.3862,38.4885 56.1006,38.8287 C55.815,39.1689 55.4643,39.4188 55.0485,39.5784 C54.6327,39.738 54.156,39.8178 53.6184,39.8178 C53.2152,39.8178 52.8897,39.7821 52.6419,39.7107 C52.3941,39.6393 52.1988,39.6036 52.056,39.6036 C51.8628,39.6036 51.7179,39.6519 51.6213,39.7485 C51.5247,39.8451 51.468,39.969 51.4512,40.1202 L51.4512,40.1202 L51.3,41.7078 C52.1904,41.943 53.0556,42.0606 53.8956,42.0606 Z M67.764,42.0606 C68.2092,42.0606 68.625,42.0123 69.0114,41.9157 C69.3978,41.8191 69.7632,41.6847 70.1076,41.5125 C70.452,41.3403 70.7754,41.1324 71.0778,40.8888 C71.3802,40.6452 71.67,40.3764 71.9472,40.0824 L71.9472,40.0824 L72.1236,41.3676 C72.2244,41.6952 72.4428,41.859 72.7788,41.859 L72.7788,41.859 L74.253,41.859 L74.253,29.0574 L71.796,29.0574 L71.796,38.4318 C71.3172,38.9526 70.8048,39.3621 70.2588,39.6603 C69.7128,39.9585 69.1248,40.1076 68.4948,40.1076 C67.6296,40.1076 66.987,39.8535 66.567,39.3453 C66.147,38.8371 65.937,38.1252 65.937,37.2096 L65.937,37.2096 L65.937,29.0574 L63.4674,29.0574 L63.4674,37.2096 C63.4674,37.932 63.5598,38.5914 63.7446,39.1878 C63.9294,39.7842 64.2024,40.2945 64.5636,40.7187 C64.9248,41.1429 65.3721,41.4726 65.9055,41.7078 C66.4389,41.943 67.0584,42.0606 67.764,42.0606 Z M80.6748,41.859 L80.6748,32.3586 C81.0528,31.8798 81.4686,31.5018 81.9222,31.2246 C82.3758,30.9474 82.8672,30.8088 83.3964,30.8088 C84.1608,30.8088 84.7404,31.044 85.1352,31.5144 C85.53,31.9848 85.7274,32.7156 85.7274,33.7068 L85.7274,33.7068 L85.7274,41.859 L88.197,41.859 L88.197,33.7068 C88.197,33.228 88.2663,32.808 88.4049,32.4468 C88.5435,32.0856 88.7325,31.7832 88.9719,31.5396 C89.2113,31.296 89.4906,31.1133 89.8098,30.9915 C90.129,30.8697 90.465,30.8088 90.8178,30.8088 C91.6158,30.8088 92.2227,31.0524 92.6385,31.5396 C93.0543,32.0268 93.2622,32.7492 93.2622,33.7068 L93.2622,33.7068 L93.2622,41.859 L95.7318,41.859 L95.7318,33.7068 C95.7318,32.934 95.6352,32.2452 95.442,31.6404 C95.2488,31.0356 94.9674,30.5274 94.5978,30.1158 C94.2282,29.7042 93.7767,29.3913 93.2433,29.1771 C92.7099,28.9629 92.103,28.8558 91.4226,28.8558 C91.0026,28.8558 90.5889,28.9062 90.1815,29.007 C89.7741,29.1078 89.3898,29.2632 89.0286,29.4732 C88.6674,29.6832 88.3398,29.952 88.0458,30.2796 C87.7518,30.6072 87.5124,30.9978 87.3276,31.4514 C87.084,30.6534 86.6976,30.0213 86.1684,29.5551 C85.6392,29.0889 84.9504,28.8558 84.102,28.8558 C83.3292,28.8558 82.6551,29.0343 82.0797,29.3913 C81.5043,29.7483 80.9814,30.2082 80.511,30.771 L80.511,30.771 L80.3346,29.5488 C80.2506,29.2212 80.0364,29.0574 79.692,29.0574 L79.692,29.0574 L78.2178,29.0574 L78.2178,41.859 L80.6748,41.859 Z M102.0276,46.1556 L102.0276,40.599 C102.456,41.0526 102.9432,41.4054 103.4892,41.6574 C104.0352,41.9094 104.6904,42.0354 105.4548,42.0354 C106.3116,42.0354 107.0823,41.8653 107.7669,41.5251 C108.4515,41.1849 109.0311,40.7166 109.5057,40.1202 C109.9803,39.5238 110.3457,38.8203 110.6019,38.0097 C110.8581,37.1991 110.9862,36.3192 110.9862,35.37 C110.9862,34.3116 110.8707,33.375 110.6397,32.5602 C110.4087,31.7454 110.0832,31.0608 109.6632,30.5064 C109.2432,29.952 108.7371,29.532 108.1449,29.2464 C107.5527,28.9608 106.8912,28.818 106.1604,28.818 C105.7068,28.818 105.2805,28.8705 104.8815,28.9755 C104.4825,29.0805 104.1066,29.2275 103.7538,29.4165 C103.401,29.6055 103.0713,29.8323 102.7647,30.0969 C102.4581,30.3615 102.1704,30.6534 101.9016,30.9726 L101.9016,30.9726 L101.6874,29.5488 C101.6034,29.2212 101.3892,29.0574 101.0448,29.0574 L101.0448,29.0574 L99.5706,29.0574 L99.5706,46.1556 L102.0276,46.1556 Z M104.9004,40.1328 C104.3208,40.1328 103.7979,40.0278 103.3317,39.8178 C102.8655,39.6078 102.4308,39.2382 102.0276,38.709 L102.0276,38.709 L102.0276,32.6484 C102.4728,32.0604 102.9579,31.6068 103.4829,31.2876 C104.0079,30.9684 104.6274,30.8088 105.3414,30.8088 C105.8286,30.8088 106.2654,30.8949 106.6518,31.0671 C107.0382,31.2393 107.3637,31.5081 107.6283,31.8735 C107.8929,32.2389 108.0945,32.7093 108.2331,33.2847 C108.3717,33.8601 108.441,34.5552 108.441,35.37 C108.441,36.924 108.1323,38.1063 107.5149,38.9169 C106.8975,39.7275 106.026,40.1328 104.9004,40.1328 Z M122.4816,26.7894 C122.7084,26.7894 122.9268,26.7453 123.1368,26.6571 C123.3468,26.5689 123.5295,26.4471 123.6849,26.2917 C123.8403,26.1363 123.9642,25.9557 124.0566,25.7499 C124.149,25.5441 124.1952,25.3278 124.1952,25.101 C124.1952,24.8658 124.149,24.6453 124.0566,24.4395 C123.9642,24.2337 123.8403,24.0531 123.6849,23.8977 C123.5295,23.7423 123.3468,23.6205 123.1368,23.5323 C122.9268,23.4441 122.7084,23.4 122.4816,23.4 C122.2548,23.4 122.0406,23.4441 121.839,23.5323 C121.6374,23.6205 121.4589,23.7423 121.3035,23.8977 C121.1481,24.0531 121.0263,24.2337 120.9381,24.4395 C120.8499,24.6453 120.8058,24.8658 120.8058,25.101 C120.8058,25.3278 120.8499,25.5441 120.9381,25.7499 C121.0263,25.9557 121.1481,26.1363 121.3035,26.2917 C121.4589,26.4471 121.6374,26.5689 121.839,26.6571 C122.0406,26.7453 122.2548,26.7894 122.4816,26.7894 Z M123.729,41.859 L123.729,29.0574 L121.272,29.0574 L121.272,41.859 L123.729,41.859 Z M130.2768,41.859 L130.2768,32.472 C130.7472,31.9596 131.2575,31.5543 131.8077,31.2561 C132.3579,30.9579 132.948,30.8088 133.578,30.8088 C134.4432,30.8088 135.0858,31.0629 135.5058,31.5711 C135.9258,32.0793 136.1358,32.7912 136.1358,33.7068 L136.1358,33.7068 L136.1358,41.859 L138.6054,41.859 L138.6054,33.7068 C138.6054,32.9844 138.513,32.325 138.3282,31.7286 C138.1434,31.1322 137.8704,30.6219 137.5092,30.1977 C137.148,29.7735 136.7007,29.4438 136.1673,29.2086 C135.6339,28.9734 135.0144,28.8558 134.3088,28.8558 C133.8636,28.8558 133.4457,28.9041 133.0551,29.0007 C132.6645,29.0973 132.2991,29.2317 131.9589,29.4039 C131.6187,29.5761 131.2974,29.784 130.995,30.0276 C130.6926,30.2712 130.4028,30.54 130.1256,30.834 L130.1256,30.834 L129.9366,29.5488 C129.8526,29.2212 129.6384,29.0574 129.294,29.0574 L129.294,29.0574 L127.8198,29.0574 L127.8198,41.859 L130.2768,41.859 Z M146.2746,42.0606 C146.871,42.0606 147.4464,41.9598 148.0008,41.7582 C148.5552,41.5566 149.034,41.271 149.4372,40.9014 L149.4372,40.9014 L148.7064,39.717 C148.656,39.633 148.6077,39.5721 148.5615,39.5343 C148.5153,39.4965 148.4502,39.4776 148.3662,39.4776 C148.299,39.4776 148.2234,39.507 148.1394,39.5658 C148.0554,39.6246 147.9546,39.6897 147.837,39.7611 C147.7194,39.8325 147.5787,39.8976 147.4149,39.9564 C147.2511,40.0152 147.0558,40.0446 146.829,40.0446 C146.4426,40.0446 146.1255,39.9207 145.8777,39.6729 C145.6299,39.4251 145.506,39.0492 145.506,38.5452 L145.506,38.5452 L145.506,31.0482 L149.1348,31.0482 L149.1348,29.259 L145.506,29.259 L145.506,24.9624 L144.2586,24.9624 C144.1074,24.9624 143.9835,25.0023 143.8869,25.0821 C143.7903,25.1619 143.7252,25.2732 143.6916,25.416 L143.6916,25.416 L143.1372,29.2338 L141.0582,29.5236 L141.0582,30.519 C141.0582,30.6954 141.1065,30.8277 141.2031,30.9159 C141.2997,31.0041 141.4194,31.0482 141.5622,31.0482 L141.5622,31.0482 L143.049,31.0482 L143.049,38.709 C143.049,39.7842 143.3283,40.6116 143.8869,41.1912 C144.4455,41.7708 145.2414,42.0606 146.2746,42.0606 Z M157.2954,42.0354 C158.2362,42.0354 159.0867,41.8821 159.8469,41.5755 C160.6071,41.2689 161.2539,40.83 161.7873,40.2588 C162.3207,39.6876 162.7302,38.9946 163.0158,38.1798 C163.3014,37.365 163.4442,36.4536 163.4442,35.4456 C163.4442,34.4376 163.3014,33.5283 163.0158,32.7177 C162.7302,31.9071 162.3207,31.2141 161.7873,30.6387 C161.2539,30.0633 160.6071,29.6223 159.8469,29.3157 C159.0867,29.0091 158.2362,28.8558 157.2954,28.8558 C156.3462,28.8558 155.4915,29.0091 154.7313,29.3157 C153.9711,29.6223 153.3222,30.0633 152.7846,30.6387 C152.247,31.2141 151.8333,31.9071 151.5435,32.7177 C151.2537,33.5283 151.1088,34.4376 151.1088,35.4456 C151.1088,36.4536 151.2537,37.365 151.5435,38.1798 C151.8333,38.9946 152.247,39.6876 152.7846,40.2588 C153.3222,40.83 153.9711,41.2689 154.7313,41.5755 C155.4915,41.8821 156.3462,42.0354 157.2954,42.0354 Z M157.2954,40.1202 C156.069,40.1202 155.1555,39.7128 154.5549,38.898 C153.9543,38.0832 153.654,36.9366 153.654,35.4582 C153.654,33.9798 153.9543,32.8311 154.5549,32.0121 C155.1555,31.1931 156.069,30.7836 157.2954,30.7836 C158.505,30.7836 159.408,31.1931 160.0044,32.0121 C160.6008,32.8311 160.899,33.9798 160.899,35.4582 C160.899,36.9366 160.6008,38.0832 160.0044,38.898 C159.408,39.7128 158.505,40.1202 157.2954,40.1202 Z M176.2626,42.0606 C176.7414,42.0606 177.1782,42.0186 177.573,41.9346 C177.9678,41.8506 178.3395,41.7267 178.6881,41.5629 C179.0367,41.3991 179.3706,41.2017 179.6898,40.9707 C180.009,40.7397 180.3324,40.473 180.66,40.1706 L180.66,40.1706 L180.9246,41.292 C181.0002,41.5104 181.101,41.6595 181.227,41.7393 C181.353,41.8191 181.5378,41.859 181.7814,41.859 L181.7814,41.859 L182.8776,41.859 L182.8776,33.6942 C182.8776,32.9718 182.7789,32.3124 182.5815,31.716 C182.3841,31.1196 182.0922,30.6072 181.7058,30.1788 C181.3194,29.7504 180.8448,29.4165 180.282,29.1771 C179.7192,28.9377 179.0724,28.818 178.3416,28.818 C177.342,28.818 176.4243,28.986 175.5885,29.322 C174.7527,29.658 173.9778,30.1662 173.2638,30.8466 L173.2638,30.8466 L173.7048,31.6404 C173.7804,31.7664 173.8791,31.8756 174.0009,31.968 C174.1227,32.0604 174.2676,32.1066 174.4356,32.1066 C174.6456,32.1066 174.8493,32.0394 175.0467,31.905 C175.2441,31.7706 175.4751,31.6215 175.7397,31.4577 C176.0043,31.2939 176.3193,31.1448 176.6847,31.0104 C177.0501,30.876 177.5016,30.8088 178.0392,30.8088 C178.8372,30.8088 179.442,31.0482 179.8536,31.527 C180.2652,32.0058 180.471,32.7282 180.471,33.6942 L180.471,33.6942 L180.471,34.6266 C179.0178,34.6602 177.7935,34.7946 176.7981,35.0298 C175.8027,35.265 174.9963,35.5674 174.3789,35.937 C173.7615,36.3066 173.3163,36.7245 173.0433,37.1907 C172.7703,37.6569 172.6338,38.142 172.6338,38.646 C172.6338,39.2172 172.7283,39.717 172.9173,40.1454 C173.1063,40.5738 173.3646,40.9308 173.6922,41.2164 C174.0198,41.502 174.4041,41.7141 174.8451,41.8527 C175.2861,41.9913 175.7586,42.0606 176.2626,42.0606 Z M177.006,40.3344 C176.7204,40.3344 176.4558,40.3008 176.2122,40.2336 C175.9686,40.1664 175.7565,40.0593 175.5759,39.9123 C175.3953,39.7653 175.2525,39.5763 175.1475,39.3453 C175.0425,39.1143 174.99,38.8392 174.99,38.52 C174.99,38.184 175.0866,37.8795 175.2798,37.6065 C175.473,37.3335 175.788,37.0962 176.2248,36.8946 C176.6616,36.693 177.2286,36.5313 177.9258,36.4095 C178.623,36.2877 179.4714,36.21 180.471,36.1764 L180.471,36.1764 L180.471,38.6964 C180.2274,38.9568 179.9796,39.1878 179.7276,39.3894 C179.4756,39.591 179.211,39.7611 178.9338,39.8997 C178.6566,40.0383 178.3605,40.1454 178.0455,40.221 C177.7305,40.2966 177.384,40.3344 177.006,40.3344 Z M63.8751,85.4046 C65.6607,85.4046 67.2555,85.1346 68.6595,84.5946 C70.0635,84.0546 71.2443,83.313 72.2019,82.3698 C73.1595,81.4266 73.8903,80.3214 74.3943,79.0542 C74.8983,77.787 75.1503,76.4262 75.1503,74.9718 C75.1503,73.6614 74.9487,72.5418 74.5455,71.613 C74.1423,70.6842 73.6131,69.8958 72.9579,69.2478 C72.3027,68.5998 71.5539,68.067 70.7115,67.6494 C69.8691,67.2318 69.0087,66.8682 68.1303,66.5586 C67.2519,66.249 66.3915,65.9682 65.5491,65.7162 C64.7067,65.4642 63.9579,65.187 63.3027,64.8846 C62.6475,64.5822 62.1183,64.2222 61.7151,63.8046 C61.3119,63.387 61.1103,62.8614 61.1103,62.2278 C61.1103,61.2342 61.4451,60.4458 62.1147,59.8626 C62.7843,59.2794 63.8031,58.9878 65.1711,58.9878 C65.9631,58.9878 66.6687,59.0922 67.2879,59.301 C67.9071,59.5098 68.4579,59.7438 68.9403,60.003 C69.4227,60.2622 69.8547,60.4962 70.2363,60.705 C70.6179,60.9138 70.9743,61.0182 71.3055,61.0182 C71.6799,61.0182 71.9859,60.9318 72.2235,60.759 C72.4611,60.5862 72.6879,60.327 72.9039,59.9814 L72.9039,59.9814 L74.7183,56.5902 C74.1567,56.0718 73.5195,55.6074 72.8067,55.197 C72.0939,54.7866 71.3271,54.4338 70.5063,54.1386 C69.6855,53.8434 68.8179,53.6202 67.9035,53.469 C66.9891,53.3178 66.0495,53.2422 65.0847,53.2422 C63.3567,53.2422 61.8231,53.505 60.4839,54.0306 C59.1447,54.5562 58.0143,55.2582 57.0927,56.1366 C56.1711,57.015 55.4727,58.0158 54.9975,59.139 C54.5223,60.2622 54.2847,61.4142 54.2847,62.595 C54.2847,64.0638 54.4863,65.2986 54.8895,66.2994 C55.2927,67.3002 55.8219,68.1354 56.4771,68.805 C57.1323,69.4746 57.8775,70.0146 58.7127,70.425 C59.5479,70.8354 60.4047,71.181 61.2831,71.4618 C62.1615,71.7426 63.0183,71.9982 63.8535,72.2286 C64.6887,72.459 65.4339,72.7254 66.0891,73.0278 C66.7443,73.3302 67.2735,73.7118 67.6767,74.1726 C68.0799,74.6334 68.2815,75.231 68.2815,75.9654 C68.2815,77.2326 67.9143,78.1578 67.1799,78.741 C66.4455,79.3242 65.4159,79.6158 64.0911,79.6158 C63.1119,79.6158 62.2623,79.479 61.5423,79.2054 C60.8223,78.9318 60.1851,78.6294 59.6307,78.2982 C59.0763,77.967 58.5795,77.6646 58.1403,77.391 C57.7011,77.1174 57.2655,76.9806 56.8335,76.9806 C56.5023,76.9806 56.1963,77.0634 55.9155,77.229 C55.6347,77.3946 55.4079,77.5998 55.2351,77.8446 L55.2351,77.8446 L53.0751,81.2574 C53.6943,81.8766 54.4215,82.4382 55.2567,82.9422 C56.0919,83.4462 56.9847,83.8818 57.9351,84.249 C58.8855,84.6162 59.8683,84.9006 60.8835,85.1022 C61.8987,85.3038 62.8959,85.4046 63.8751,85.4046 Z M86.6343,85.4046 C87.7863,85.4046 88.9023,85.2426 89.9823,84.9186 C91.0623,84.5946 92.0343,84.1086 92.8983,83.4606 L92.8983,83.4606 L90.8679,80.2854 C90.7383,80.0838 90.6123,79.9362 90.4899,79.8426 C90.3675,79.749 90.2055,79.7022 90.0039,79.7022 C89.8599,79.7022 89.7339,79.7274 89.6259,79.7778 C89.5179,79.8282 89.4027,79.8858 89.2803,79.9506 C89.1579,80.0154 89.0139,80.073 88.8483,80.1234 C88.6827,80.1738 88.4775,80.199 88.2327,80.199 C87.7575,80.199 87.3939,80.0298 87.1419,79.6914 C86.8899,79.353 86.7639,78.9246 86.7639,78.4062 L86.7639,78.4062 L86.7639,67.2822 L92.3151,67.2822 L92.3151,62.703 L86.7639,62.703 L86.7639,56.1582 L83.2647,56.1582 C82.4583,56.1582 81.9687,56.5038 81.7959,57.195 L81.7959,57.195 L80.4783,62.6598 L76.9143,63.351 L76.9143,65.9646 C76.9143,66.3966 77.0367,66.7242 77.2815,66.9474 C77.5263,67.1706 77.8215,67.2822 78.1671,67.2822 L78.1671,67.2822 L80.0679,67.2822 L80.0679,78.8598 C80.0679,79.8534 80.2119,80.7534 80.4999,81.5598 C80.7879,82.3662 81.2091,83.0538 81.7635,83.6226 C82.3179,84.1914 83.0019,84.6306 83.8155,84.9402 C84.6291,85.2498 85.5687,85.4046 86.6343,85.4046 Z M103.4967,85.4046 C104.2167,85.4046 104.8827,85.3362 105.4947,85.1994 C106.1067,85.0626 106.6755,84.8754 107.2011,84.6378 C107.7267,84.4002 108.2199,84.1122 108.6807,83.7738 C109.1415,83.4354 109.5879,83.0574 110.0199,82.6398 L110.0199,82.6398 L110.4087,83.9358 C110.6679,84.6846 111.2151,85.059 112.0503,85.059 L112.0503,85.059 L116.1975,85.059 L116.1975,62.6598 L109.5015,62.6598 L109.5015,78.6222 C108.8967,79.155 108.2739,79.5762 107.6331,79.8858 C106.9923,80.1954 106.3047,80.3502 105.5703,80.3502 C104.5911,80.3502 103.8495,80.0478 103.3455,79.443 C102.8415,78.8382 102.5895,77.9814 102.5895,76.8726 L102.5895,76.8726 L102.5895,62.6598 L95.8935,62.6598 L95.8935,76.8726 C95.8935,78.111 96.0591,79.2486 96.3903,80.2854 C96.7215,81.3222 97.2111,82.2222 97.8591,82.9854 C98.5071,83.7486 99.3027,84.3426 100.2459,84.7674 C101.1891,85.1922 102.2727,85.4046 103.4967,85.4046 Z M128.6535,85.4046 C129.4167,85.4046 130.1259,85.329 130.7811,85.1778 C131.4363,85.0266 132.0483,84.8106 132.6171,84.5298 C133.1859,84.249 133.7151,83.9142 134.2047,83.5254 C134.6943,83.1366 135.1623,82.7046 135.6087,82.2294 L136.1271,83.9358 C136.3863,84.6846 136.9335,85.059 137.7687,85.059 L141.9159,85.059 L141.9159,52.7238 L135.2199,52.7238 L135.2199,64.0638 C134.5719,63.5022 133.8519,63.0558 133.0599,62.7246 C132.2679,62.3934 131.2887,62.2278 130.1223,62.2278 C128.6967,62.2278 127.3935,62.523 126.2127,63.1134 C125.0319,63.7038 124.0203,64.521 123.1779,65.565 C122.3355,66.609 121.6839,67.8474 121.2231,69.2802 C120.7623,70.713 120.5319,72.2646 120.5319,73.935 C120.5319,75.7494 120.7371,77.3658 121.1475,78.7842 C121.5579,80.2026 122.1231,81.4014 122.8431,82.3806 C123.5631,83.3598 124.4199,84.1086 125.4135,84.627 C126.4071,85.1454 127.4871,85.4046 128.6535,85.4046 Z M130.9863,80.2638 C130.4535,80.2638 129.9711,80.1558 129.5391,79.9398 C129.1071,79.7238 128.7363,79.3674 128.4267,78.8706 C128.1171,78.3738 127.8759,77.7222 127.7031,76.9158 C127.5303,76.1094 127.4439,75.1158 127.4439,73.935 C127.4439,72.711 127.5519,71.667 127.7679,70.803 C127.9839,69.939 128.2827,69.237 128.6643,68.697 C129.0459,68.157 129.4959,67.7646 130.0143,67.5198 C130.5327,67.275 131.1015,67.1526 131.7207,67.1526 C132.3687,67.1526 132.9879,67.2642 133.5783,67.4874 C134.1687,67.7106 134.7159,68.103 135.2199,68.6646 L135.2199,68.6646 L135.2199,78.147 C134.9319,78.4926 134.6403,78.7986 134.3451,79.065 C134.0499,79.3314 133.7367,79.551 133.4055,79.7238 C133.0743,79.8966 132.7107,80.0298 132.3147,80.1234 C131.9187,80.217 131.4759,80.2638 130.9863,80.2638 Z M150.7863,60.4134 C151.3479,60.4134 151.8771,60.309 152.3739,60.1002 C152.8707,59.8914 153.3063,59.6106 153.6807,59.2578 C154.0551,58.905 154.3503,58.4946 154.5663,58.0266 C154.7823,57.5586 154.8903,57.0582 154.8903,56.5254 C154.8903,55.9782 154.7823,55.467 154.5663,54.9918 C154.3503,54.5166 154.0551,54.099 153.6807,53.739 C153.3063,53.379 152.8707,53.0982 152.3739,52.8966 C151.8771,52.695 151.3479,52.5942 150.7863,52.5942 C150.2391,52.5942 149.7279,52.695 149.2527,52.8966 C148.7775,53.0982 148.3563,53.379 147.9891,53.739 C147.6219,54.099 147.3339,54.5166 147.1251,54.9918 C146.9163,55.467 146.8119,55.9782 146.8119,56.5254 C146.8119,57.0582 146.9163,57.5586 147.1251,58.0266 C147.3339,58.4946 147.6219,58.905 147.9891,59.2578 C148.3563,59.6106 148.7775,59.8914 149.2527,60.1002 C149.7279,60.309 150.2391,60.4134 150.7863,60.4134 Z M154.1991,85.059 L154.1991,62.6598 L147.5031,62.6598 L147.5031,85.059 L154.1991,85.059 Z M170.1111,85.4046 C171.8103,85.4046 173.3583,85.1346 174.7551,84.5946 C176.1519,84.0546 177.3507,83.2842 178.3515,82.2834 C179.3523,81.2826 180.1299,80.0658 180.6843,78.633 C181.2387,77.2002 181.5159,75.591 181.5159,73.8054 C181.5159,72.0342 181.2387,70.4394 180.6843,69.021 C180.1299,67.6026 179.3523,66.3966 178.3515,65.403 C177.3507,64.4094 176.1519,63.6462 174.7551,63.1134 C173.3583,62.5806 171.8103,62.3142 170.1111,62.3142 C168.3975,62.3142 166.8387,62.5806 165.4347,63.1134 C164.0307,63.6462 162.8211,64.4094 161.8059,65.403 C160.7907,66.3966 160.0059,67.6026 159.4515,69.021 C158.8971,70.4394 158.6199,72.0342 158.6199,73.8054 C158.6199,75.591 158.8971,77.2002 159.4515,78.633 C160.0059,80.0658 160.7907,81.2826 161.8059,82.2834 C162.8211,83.2842 164.0307,84.0546 165.4347,84.5946 C166.8387,85.1346 168.3975,85.4046 170.1111,85.4046 Z M170.1111,80.4366 C168.5271,80.4366 167.3679,79.893 166.6335,78.8058 C165.8991,77.7186 165.5319,76.0662 165.5319,73.8486 C165.5319,71.631 165.8991,69.9822 166.6335,68.9022 C167.3679,67.8222 168.5271,67.2822 170.1111,67.2822 C171.6519,67.2822 172.7859,67.8222 173.5131,68.9022 C174.2403,69.9822 174.6039,71.631 174.6039,73.8486 C174.6039,76.0662 174.2403,77.7186 173.5131,78.8058 C172.7859,79.893 171.6519,80.4366 170.1111,80.4366 Z" id="path-3"></path>
        <filter x="-3.8%" y="-6.5%" width="107.6%" height="116.1%" filterUnits="objectBoundingBox" id="filter-4">
            <feOffset dx="0" dy="1" in="SourceAlpha" result="shadowOffsetOuter1"></feOffset>
            <feGaussianBlur stdDeviation="1.5" in="shadowOffsetOuter1" result="shadowBlurOuter1"></feGaussianBlur>
            <feColorMatrix values="0 0 0 0 0   0 0 0 0 0   0 0 0 0 0  0 0 0 0.190859921 0" type="matrix" in="shadowBlurOuter1"></feColorMatrix>
        </filter>
    </defs>
    <g id="Page-1" stroke="none" stroke-width="1" fill="none" fill-rule="evenodd">
        <g id="Home-v1" transform="translate(-396.000000, -234.000000)">
            <g id="Group-46" transform="translate(407.000000, 243.000000)">
                <g id="Rectangle">
                    <use fill="black" fill-opacity="1" filter="url(#filter-2)" xlink:href="#path-1"></use>
                    <use fill="#FFFFFF" fill-rule="evenodd" xlink:href="#path-1"></use>
                </g>
                <g id="JumpintoaStudio" fill-rule="nonzero">
                    <use fill="black" fill-opacity="1" filter="url(#filter-4)" xlink:href="#path-3"></use>
                    <use fill="#313131" xlink:href="#path-3"></use>
                </g>
            </g>
        </g>
    </g>
</svg>