<?xml version="1.0" encoding="UTF-8"?>
<svg width="33px" height="32px" viewBox="0 0 33 32" version="1.1" xmlns="http://www.w3.org/2000/svg" xmlns:xlink="http://www.w3.org/1999/xlink">
    <title>linkedin</title>
    <g id="Page-1" stroke="none" stroke-width="1" fill="none" fill-rule="evenodd">
        <g id="footer" transform="translate(-499.000000, -520.000000)" fill="#11243B" fill-rule="nonzero">
            <g id="Group" transform="translate(0.000000, 42.777778)">
                <path d="M506.765692,508.822222 L499.85811,508.822222 L499.85811,488.040618 L506.765692,488.040618 L506.765692,508.822222 Z M503.312118,485.202888 L503.267109,485.202888 C500.949146,485.202888 499.45,483.607232 499.45,481.612988 C499.45,479.573734 500.99502,478.022222 503.357992,478.022222 C505.720965,478.022222 507.175101,479.573734 507.22011,481.612988 C507.22011,483.607232 505.720965,485.202888 503.312118,485.202888 Z M531.672977,508.822222 L524.76626,508.822222 L524.76626,497.704568 C524.76626,494.910548 523.766108,493.005023 521.266811,493.005023 C519.358689,493.005023 518.222212,494.290377 517.722785,495.531153 C517.540153,495.975184 517.495577,496.595789 517.495577,497.216827 L517.495577,508.822222 L510.588427,508.822222 C510.588427,508.822222 510.678878,489.990287 510.588427,488.040618 L517.495577,488.040618 L517.495577,490.983081 C518.413501,489.567029 520.055896,487.552877 523.720667,487.552877 C528.265276,487.552877 531.672977,490.523037 531.672977,496.906091 L531.672977,508.822222 Z" id="linkedin"></path>
            </g>
        </g>
    </g>
</svg>