<?xml version="1.0" encoding="UTF-8"?>
<svg width="98px" height="98px" viewBox="0 0 98 98" version="1.1" xmlns="http://www.w3.org/2000/svg" xmlns:xlink="http://www.w3.org/1999/xlink">
    <title>monitoring</title>
    <defs>
        <radialGradient cx="98.0933134%" cy="100%" fx="98.0933134%" fy="100%" r="110.469721%" id="radialGradient-1">
            <stop stop-color="#C24074" offset="0%"></stop>
            <stop stop-color="#322C61" offset="100%"></stop>
        </radialGradient>
    </defs>
    <g id="Page-1" stroke="none" stroke-width="1" fill="none" fill-rule="evenodd">
        <g id="Home-v1" transform="translate(-1048.000000, -2211.000000)">
            <g id="Group-24" transform="translate(167.000000, 1973.000000)">
                <g id="monitoring" transform="translate(881.000000, 238.000000)">
                    <path d="M49,98 C49,58.9814815 98,76.0619527 98,49 C98,21.9380473 76.0619527,0 49,0 C21.9380473,0 0,21.9380473 0,49 C0,76.0619527 21.9380473,98 49,98 Z" id="Mask" fill="url(#radialGradient-1)"></path>
                    <path d="M72.8402806,25.4143756 C72.5769358,25.0227826 72.063465,24.8879704 71.6417758,25.099845 L43.8894136,39.0354736 C43.5760061,39.1927858 43.3766928,39.5118164 43.3726615,39.8624407 C43.3685365,40.213065 43.5604435,40.5365956 43.870101,40.7011265 L49.3369669,43.6067145 L36.864979,51.435574 C36.5814778,51.6135111 36.4144146,51.9289793 36.4265084,52.2633849 C36.4385085,52.5977904 36.6278842,52.9004148 36.9233854,53.0574458 L42.9978475,56.2860019 L25.3293698,71.348972 C24.9628058,71.6614402 24.8926806,72.2007828 25.1670879,72.5965945 C25.3480262,72.8574065 25.6396836,73 25.9381848,73 C26.0926854,73 26.2488735,72.9618438 26.3924991,72.8821565 L54.8902706,57.0685316 C55.1907405,56.9017507 55.3758975,56.5839388 55.3728038,56.240252 C55.36971,55.8966589 55.1788342,55.5821283 54.8752705,55.4208786 L49.3228105,52.4696344 L62.2757379,44.1317135 C62.5565203,43.9509638 62.7199272,43.6343707 62.7047396,43.3007151 C62.6895521,42.9670595 62.49802,42.6666851 62.2019564,42.5121854 L57.4069995,40.0104716 L72.6798737,26.6430606 C73.0350001,26.33228 73.1038129,25.8059686 72.8402806,25.4143756 Z M55.0723777,39.6483013 C54.8388919,39.8519743 54.721303,40.1574837 54.7580554,40.4644922 C54.7949958,40.7715944 54.9814837,41.0407537 55.2566097,41.183812 L59.8484045,43.5715827 L46.8734895,51.8961307 C46.5930997,52.0761012 46.4291708,52.3907919 46.4431762,52.7230018 C46.4569936,53.0552118 46.6465833,53.3551938 46.9411666,53.5111807 L52.3958439,56.4009201 L33.5544554,66.8217822 L45.1688735,56.9527296 C45.4057432,56.7514925 45.5272799,56.4464514 45.4935354,56.1381313 C45.4597908,55.8297176 45.2750889,55.5581224 45.0002448,55.4125346 L39.1239018,52.2995419 L51.6286492,44.4758383 C51.9127988,44.2980226 52.0803936,43.9827698 52.0682681,43.6485925 C52.0562366,43.3144151 51.8663648,43.0119973 51.5700897,42.8550735 L46.2607301,40.0425312 L65.8712871,30.2277228 L55.0723777,39.6483013 Z" id="Shape" fill="#FFFFFF" fill-rule="nonzero"></path>
                </g>
            </g>
        </g>
    </g>
</svg>