<?xml version="1.0" encoding="UTF-8"?>
<svg width="98px" height="98px" viewBox="0 0 98 98" version="1.1" xmlns="http://www.w3.org/2000/svg" xmlns:xlink="http://www.w3.org/1999/xlink">
    <title>power-rec</title>
    <defs>
        <radialGradient cx="98.0933134%" cy="100%" fx="98.0933134%" fy="100%" r="110.469721%" id="radialGradient-1">
            <stop stop-color="#C24074" offset="0%"></stop>
            <stop stop-color="#322C61" offset="100%"></stop>
        </radialGradient>
    </defs>
    <g id="Page-1" stroke="none" stroke-width="1" fill="none" fill-rule="evenodd">
        <g id="Home-v1" transform="translate(-668.000000, -2211.000000)">
            <g id="Group-24" transform="translate(167.000000, 1973.000000)">
                <g id="power-rec" transform="translate(501.000000, 238.000000)">
                    <path d="M49,98 C49,58.9814815 98,76.0619527 98,49 C98,21.9380473 76.0619527,0 49,0 C21.9380473,0 0,21.9380473 0,49 C0,76.0619527 21.9380473,98 49,98 Z" id="Mask" fill="url(#radialGradient-1)"></path>
                    <path d="M45.4115312,25 C45.9293125,25 46.3490312,25.4197188 46.3490312,25.9375 L46.3490312,25.9375 L46.3490312,72.0625 C46.3490312,72.5802812 45.9293125,73 45.4115312,73 L45.4115312,73 L25.9375,73 C25.4198125,73 25,72.5802812 25,72.0625 L25,72.0625 L25,25.9375 C25,25.4197188 25.4198125,25 25.9375,25 L25.9375,25 Z M72.0624062,25 C72.5801875,25 73,25.4197188 73,25.9375 L73,25.9375 L73,72.0625 C73,72.5802812 72.5802812,73 72.0625,73 L72.0625,73 L52.5882813,73 C52.0705,73 51.6507813,72.5802812 51.6507813,72.0625 L51.6507813,72.0625 L51.6507813,25.9375 C51.6507813,25.4197188 52.0705,25 52.5882813,25 L52.5882813,25 Z M44.4740312,26.875 L26.875,26.875 L26.875,71.125 L44.4740312,71.125 L44.4740312,26.875 Z M71.125,26.875 L53.5257813,26.875 L53.5257813,71.125 L71.125,71.125 L71.125,26.875 Z M35.67475,56.131375 C39.1375938,56.131375 41.9546875,58.9486563 41.9546875,62.4115938 C41.9546875,65.8745313 39.1375938,68.6918125 35.67475,68.6918125 C32.2119063,68.6918125 29.394625,65.8745313 29.394625,62.4115938 C29.394625,58.9486563 32.2118125,56.131375 35.67475,56.131375 Z M62.3253437,56.131375 C65.7881875,56.131375 68.6054687,58.9486563 68.6054687,62.4115938 C68.6054687,65.8745313 65.7881875,68.6918125 62.3253437,68.6918125 C58.8625,68.6918125 56.0452187,65.8745313 56.0452187,62.4115938 C56.0452187,58.9486563 58.8624062,56.131375 62.3253437,56.131375 Z M35.67475,58.0062813 C33.2457813,58.0062813 31.269625,59.9824375 31.269625,62.4115 C31.269625,64.8405625 33.2457813,66.8167188 35.67475,66.8167188 C38.103625,66.8167188 40.0796875,64.8405625 40.0796875,62.4115 C40.0796875,59.9824375 38.103625,58.0062813 35.67475,58.0062813 Z M62.3253437,58.0062813 C59.896375,58.0062813 57.9202187,59.9824375 57.9202187,62.4115 C57.9202187,64.8405625 59.896375,66.8167188 62.3253437,66.8167188 C64.7543125,66.8167188 66.7305625,64.8405625 66.7304687,62.4115 C66.7304687,59.9824375 64.7543125,58.0062813 62.3253437,58.0062813 Z M35.67475,59.5361875 C37.26025,59.5361875 38.5501563,60.8260938 38.5501563,62.4115 C38.5501563,63.997 37.26025,65.287 35.67475,65.287 C34.0891563,65.287 32.7991563,63.9970938 32.7991563,62.4115 C32.7991563,60.8260938 34.0891563,59.5361875 35.67475,59.5361875 Z M62.3253437,59.5361875 C63.9110312,59.5361875 65.2010312,60.8260938 65.2009375,62.4115 C65.2009375,63.997 63.9109375,65.287 62.3253437,65.287 C60.7399375,65.287 59.4500312,63.9970938 59.4500312,62.4115 C59.4500312,60.8260938 60.7399375,59.5361875 62.3253437,59.5361875 Z M35.67475,61.4112813 C35.1230313,61.4112813 34.6741563,61.8599688 34.6741563,62.4115938 C34.6741563,62.9632188 35.1230313,63.4120938 35.67475,63.4120938 C36.2262813,63.4120938 36.6751563,62.9632188 36.6751563,62.4115938 C36.6751563,61.8600625 36.226375,61.4112813 35.67475,61.4112813 Z M62.3253437,61.4112813 C61.7737187,61.4112813 61.3250312,61.8599688 61.3250312,62.4115938 C61.3250312,62.9632188 61.7737187,63.4120938 62.3253437,63.4120938 C62.8770625,63.4120938 63.3260312,62.9632188 63.3259375,62.4115938 C63.3259375,61.8600625 62.8770625,61.4112813 62.3253437,61.4112813 Z M35.67475,39.3255625 C39.487,39.3255625 42.5887188,42.4270938 42.5887188,46.2395313 C42.5887188,50.0519688 39.4870938,53.1535 35.67475,53.1535 C31.8623125,53.1535 28.7605938,50.0519688 28.7605938,46.2395313 C28.7605938,42.4271875 31.8623125,39.3255625 35.67475,39.3255625 Z M62.3253437,39.3255625 C66.1379687,39.3255625 69.2395937,42.4270938 69.2395937,46.2395313 C69.2395937,50.0519688 66.137875,53.1535 62.3253437,53.1535 C58.513,53.1535 55.411375,50.0519688 55.411375,46.2395313 C55.411375,42.4271875 58.513,39.3255625 62.3253437,39.3255625 Z M35.67475,41.2005625 C32.8961875,41.2005625 30.6355938,43.4609688 30.6355938,46.2395313 C30.6355938,49.018 32.8960938,51.2785 35.67475,51.2785 C38.4532188,51.2785 40.7137188,49.018 40.7137188,46.2395313 C40.7137188,43.4610625 38.4533125,41.2005625 35.67475,41.2005625 Z M62.3253437,41.2005625 C59.5467812,41.2005625 57.286375,43.4609688 57.286375,46.2395313 C57.286375,49.018 59.5467812,51.2785 62.3253437,51.2785 C65.1040937,51.2785 67.3645937,49.018 67.3645937,46.2395313 C67.3645937,43.4610625 65.104,41.2005625 62.3253437,41.2005625 Z M35.67475,43.1341563 C37.3870938,43.1341563 38.780125,44.5271875 38.780125,46.2395313 C38.780125,47.951875 37.3870938,49.3449063 35.67475,49.3449063 C33.9624063,49.3449063 32.5692813,47.951875 32.5691875,46.2395313 C32.5691875,44.5271875 33.9623125,43.1341563 35.67475,43.1341563 Z M62.3253437,43.1341563 C64.0379687,43.1341563 65.431,44.5271875 65.431,46.2395313 C65.431,47.951875 64.037875,49.3449063 62.3253437,49.3449063 C60.613,49.3449063 59.2199687,47.951875 59.2199687,46.2395313 C59.2199687,44.5271875 60.613,43.1341563 62.3253437,43.1341563 Z M35.67475,45.0091563 C34.9962813,45.0091563 34.4442813,45.5610625 34.4441875,46.2395313 C34.4441875,46.918 34.9962813,47.4699063 35.67475,47.4699063 C36.3530313,47.4699063 36.9050313,46.918 36.905125,46.2395313 C36.905125,45.5611563 36.353125,45.0091563 35.67475,45.0091563 Z M62.3253437,45.0091563 C61.6469687,45.0091563 61.0949687,45.5610625 61.0949687,46.2395313 C61.0949687,46.918 61.6469687,47.4699063 62.3253437,47.4699063 C63.004,47.4699063 63.556,46.918 63.556,46.2395313 C63.556,45.5611563 63.0039062,45.0091563 62.3253437,45.0091563 Z M35.67475,29.8920625 C37.3870938,29.8920625 38.780125,31.2850938 38.780125,32.9974375 C38.780125,34.709875 37.3870938,36.103 35.67475,36.103 C33.9624063,36.103 32.5692813,34.7097813 32.5691875,32.9974375 C32.5691875,31.2850938 33.9623125,29.8920625 35.67475,29.8920625 Z M62.3253437,29.8920625 C64.0379687,29.8920625 65.431,31.2850938 65.431,32.9974375 C65.431,34.709875 64.037875,36.103 62.3253437,36.103 C60.613,36.103 59.2199687,34.7097813 59.2199687,32.9974375 C59.2199687,31.2850938 60.613,29.8920625 62.3253437,29.8920625 Z M35.67475,31.7669688 C34.9962813,31.7669688 34.4442813,32.318875 34.4441875,32.9973438 C34.4441875,33.6758125 34.9962813,34.2279063 35.67475,34.2279063 C36.3530313,34.2279063 36.9050313,33.6759063 36.905125,32.9973438 C36.905125,32.318875 36.353125,31.7669688 35.67475,31.7669688 Z M62.3253437,31.7669688 C61.6469687,31.7669688 61.0949687,32.318875 61.0949687,32.9973438 C61.0949687,33.6758125 61.6469687,34.2279063 62.3253437,34.2279063 C63.004,34.2279063 63.556,33.6759063 63.556,32.9973438 C63.556,32.318875 63.0039062,31.7669688 62.3253437,31.7669688 Z" id="Combined-Shape" fill="#FFFFFF" fill-rule="nonzero"></path>
                </g>
            </g>
        </g>
    </g>
</svg>