<?xml version="1.0" encoding="UTF-8"?>
<svg width="51px" height="51px" viewBox="0 0 51 51" version="1.1" xmlns="http://www.w3.org/2000/svg" xmlns:xlink="http://www.w3.org/1999/xlink">
    <title>printer</title>
    <defs>
        <filter x="-8.1%" y="-17.9%" width="116.1%" height="135.8%" filterUnits="objectBoundingBox" id="filter-1">
            <feOffset dx="0" dy="2" in="SourceAlpha" result="shadowOffsetOuter1"></feOffset>
            <feGaussianBlur stdDeviation="2" in="shadowOffsetOuter1" result="shadowBlurOuter1"></feGaussianBlur>
            <feColorMatrix values="0 0 0 0 0   0 0 0 0 0   0 0 0 0 0  0 0 0 0.181654283 0" type="matrix" in="shadowBlurOuter1" result="shadowMatrixOuter1"></feColorMatrix>
            <feMerge>
                <feMergeNode in="shadowMatrixOuter1"></feMergeNode>
                <feMergeNode in="SourceGraphic"></feMergeNode>
            </feMerge>
        </filter>
    </defs>
    <g id="Page-1" stroke="none" stroke-width="1" fill="none" fill-rule="evenodd">
        <g id="Artboard" transform="translate(-1088.000000, -202.000000)" fill="#414141" fill-rule="nonzero">
            <g id="Group-6" filter="url(#filter-1)" transform="translate(1074.000000, 194.000000)">
                <g id="printer" transform="translate(23.000000, 17.000000)">
                    <path d="M29.01325,24.576 L26.28275,24.576 C25.7175,24.576 25.25875,24.11725 25.25875,23.552 C25.25875,22.98675 25.7175,22.528 26.28275,22.528 L29.01325,22.528 C29.954,22.528 30.72,21.762 30.72,20.82125 L30.72,11.94675 C30.72,11.006 29.954,10.24 29.01325,10.24 L3.75475002,10.24 C2.814,10.24 2.048,11.006 2.048,11.94675 L2.048,20.82125 C2.048,21.762 2.814,22.528 3.75475002,22.528 L6.48524998,22.528 C7.05049997,22.528 7.50924998,22.98675 7.50924998,23.552 C7.50924998,24.11725 7.05049997,24.576 6.48524998,24.576 L3.75475002,24.576 C1.68350003,24.576 0,22.8925 0,20.82125 L0,11.94675 C0,9.87550003 1.68350003,8.192 3.75475002,8.192 L29.01325,8.192 C31.0845,8.192 32.768,9.87550003 32.768,11.94675 L32.768,20.82125 C32.768,22.8925 31.0845,24.576 29.01325,24.576 L29.01325,24.576 Z" id="Path"></path>
                    <path d="M23.552,32.768 L9.216,32.768 C7.14475002,32.768 5.46124998,31.0845 5.46124998,29.01325 L5.46124998,18.77325 C5.46124998,18.208 5.92,17.74925 6.48524998,17.74925 L26.28275,17.74925 C26.848,17.74925 27.30675,18.208 27.30675,18.77325 L27.30675,29.01325 C27.30675,31.0845 25.62325,32.768 23.552,32.768 Z M7.50924998,19.79725 L7.50924998,29.01325 C7.50924998,29.954 8.27524998,30.72 9.216,30.72 L23.552,30.72 C24.49275,30.72 25.25875,29.954 25.25875,29.01325 L25.25875,19.79725 L7.50924998,19.79725 Z" id="Shape"></path>
                    <path d="M22.18675,24.576 L10.58125,24.576 C10.016,24.576 9.55724998,24.11725 9.55724998,23.552 C9.55724998,22.98675 10.016,22.528 10.58125,22.528 L22.18675,22.528 C22.752,22.528 23.21075,22.98675 23.21075,23.552 C23.21075,24.11725 22.752,24.576 22.18675,24.576 Z" id="Path"></path>
                    <path d="M22.18675,28.672 L10.58125,28.672 C10.016,28.672 9.55724998,28.21325 9.55724998,27.648 C9.55724998,27.08275 10.016,26.624 10.58125,26.624 L22.18675,26.624 C22.752,26.624 23.21075,27.08275 23.21075,27.648 C23.21075,28.21325 22.752,28.672 22.18675,28.672 Z" id="Path"></path>
                    <path d="M26.28275,10.24 C25.7175,10.24 25.25875,9.78124998 25.25875,9.216 L25.25875,7.15849997 C25.25875,6.338 24.93925,5.56649997 24.359,4.98624998 L22.32175,2.949 C21.74975,2.37575002 20.95925,2.048 20.1495,2.048 L9.216,2.048 C8.27524998,2.048 7.50924998,2.814 7.50924998,3.75475002 L7.50924998,9.216 C7.50924998,9.78124998 7.05049997,10.24 6.48524998,10.24 C5.92,10.24 5.46124998,9.78124998 5.46124998,9.216 L5.46124998,3.75475002 C5.46124998,1.68350003 7.14475002,0 9.216,0 L20.1495,0 C21.49725,0 22.8175,0.546249984 23.769,1.50049997 L25.80625,3.53750003 C26.77425,4.50550003 27.30675,5.79175002 27.30675,7.15849997 L27.30675,9.216 C27.30675,9.78124998 26.848,10.24 26.28275,10.24 L26.28275,10.24 Z" id="Path"></path>
                </g>
            </g>
        </g>
    </g>
</svg>