<?xml version="1.0" encoding="UTF-8"?>
<svg width="9px" height="89px" viewBox="0 0 9 89" version="1.1" xmlns="http://www.w3.org/2000/svg" xmlns:xlink="http://www.w3.org/1999/xlink">
    <title>Path 7</title>
    <g id="Page-1" stroke="none" stroke-width="1" fill="none" fill-rule="evenodd">
        <g id="engineer-status" transform="translate(-703.000000, -1029.000000)" fill="#000000" fill-rule="nonzero">
            <g id="Group-19" transform="translate(176.000000, 820.000000)">
                <path id="Path-7" d="M531.5,209.5 C533.985281,209.5 536,211.514719 536,214 C536,216.316034 534.250342,218.223414 532.000707,218.472457 L532.000707,288.527543 C534.250342,288.776586 536,290.683966 536,293 C536,295.485281 533.985281,297.5 531.5,297.5 C529.014719,297.5 527,295.485281 527,293 C527,290.683621 528.750179,288.776019 531.000297,288.527432 L531.000297,218.472568 C528.750179,218.223981 527,216.316379 527,214 C527,211.514719 529.014719,209.5 531.5,209.5 Z M531.5,289.5 C529.567003,289.5 528,291.067003 528,293 C528,294.932997 529.567003,296.5 531.5,296.5 C533.432997,296.5 535,294.932997 535,293 C535,291.067003 533.432997,289.5 531.5,289.5 Z"></path>
            </g>
        </g>
    </g>
</svg>