<?xml version="1.0" encoding="UTF-8"?>
<svg width="1058px" height="197px" viewBox="0 0 1058 197" version="1.1" xmlns="http://www.w3.org/2000/svg" xmlns:xlink="http://www.w3.org/1999/xlink">
    <title>Combined Shape</title>
    <defs>
        <radialGradient cx="98.0933134%" cy="100%" fx="98.0933134%" fy="100%" r="159.89979%" gradientTransform="translate(0.980933,1.000000),scale(0.178435,1.000000),rotate(-137.287983),translate(-0.980933,-1.000000)" id="radialGradient-1">
            <stop stop-color="#C24074" offset="0%"></stop>
            <stop stop-color="#322C61" offset="100%"></stop>
        </radialGradient>
        <path d="M1048,0 L1048,17 L1048,17 C1039.71573,17 1033,23.7157288 1033,32 C1033,40.2842712 1039.71573,47 1048,47 L1048,58 L1048,58 C1039.71573,58 1033,64.7157288 1033,73 C1033,81.2842712 1039.71573,88 1048,88 L1048,99 L1048,99 C1039.71573,99 1033,105.715729 1033,114 C1033,122.284271 1039.71573,129 1048,129 L1048,140 L1048,140 C1039.71573,140 1033,146.715729 1033,155 C1033,163.284271 1039.71573,170 1048,170 L1048,187 L10,187 C4.4771525,187 6.76353751e-16,182.522847 0,177 L0,10 C-6.76353751e-16,4.4771525 4.4771525,1.01453063e-15 10,0 L1048,0 Z" id="path-2"></path>
        <filter x="-0.8%" y="-3.2%" width="101.5%" height="108.6%" filterUnits="objectBoundingBox" id="filter-3">
            <feMorphology radius="1" operator="dilate" in="SourceAlpha" result="shadowSpreadOuter1"></feMorphology>
            <feOffset dx="0" dy="2" in="shadowSpreadOuter1" result="shadowOffsetOuter1"></feOffset>
            <feGaussianBlur stdDeviation="2" in="shadowOffsetOuter1" result="shadowBlurOuter1"></feGaussianBlur>
            <feComposite in="shadowBlurOuter1" in2="SourceAlpha" operator="out" result="shadowBlurOuter1"></feComposite>
            <feColorMatrix values="0 0 0 0 0   0 0 0 0 0   0 0 0 0 0  0 0 0 0.15073208 0" type="matrix" in="shadowBlurOuter1"></feColorMatrix>
        </filter>
    </defs>
    <g id="Page-1" stroke="none" stroke-width="1" fill="none" fill-rule="evenodd">
        <g id="engineer-status" transform="translate(-171.000000, -977.000000)">
            <g id="Group-29" transform="translate(176.000000, 889.000000)">
                <g id="Combined-Shape" transform="translate(0.000000, 91.000000)">
                    <use fill="black" fill-opacity="1" filter="url(#filter-3)" xlink:href="#path-2"></use>
                    <use stroke="#FFFFFF" stroke-width="2" fill="url(#radialGradient-1)" fill-rule="evenodd" xlink:href="#path-2"></use>
                </g>
            </g>
        </g>
    </g>
</svg>