<?xml version="1.0" encoding="UTF-8"?>
<svg width="141px" height="113px" viewBox="0 0 141 113" version="1.1" xmlns="http://www.w3.org/2000/svg" xmlns:xlink="http://www.w3.org/1999/xlink">
    <title>Group 46</title>
    <defs>
        <filter x="-9.8%" y="-12.6%" width="119.5%" height="125.3%" filterUnits="objectBoundingBox" id="filter-1">
            <feOffset dx="0" dy="2" in="SourceAlpha" result="shadowOffsetOuter1"></feOffset>
            <feGaussianBlur stdDeviation="2" in="shadowOffsetOuter1" result="shadowBlurOuter1"></feGaussianBlur>
            <feColorMatrix values="0 0 0 0 0   0 0 0 0 0   0 0 0 0 0  0 0 0 0.311980988 0" type="matrix" in="shadowBlurOuter1" result="shadowMatrixOuter1"></feColorMatrix>
            <feMerge>
                <feMergeNode in="shadowMatrixOuter1"></feMergeNode>
                <feMergeNode in="SourceGraphic"></feMergeNode>
            </feMerge>
        </filter>
    </defs>
    <g id="Page-1" stroke="none" stroke-width="1" fill="none" fill-rule="evenodd">
        <g id="Group-47" transform="translate(-105.000000, -55.000000)">
            <g id="Group-46" filter="url(#filter-1)" transform="translate(114.000000, 64.000000)">
                <circle id="Oval" fill="#322C61" cx="6.88" cy="63.24" r="6.88"></circle>
                <circle id="Oval" fill="#322C61" cx="99.56" cy="5.56" r="2.56"></circle>
                <circle id="Oval" fill="#322C61" cx="50.96" cy="34.96" r="4.96"></circle>
                <circle id="Oval" fill="#322C61" cx="113.96" cy="60.96" r="4.96"></circle>
                <circle id="Oval" fill="#C04074" cx="78.56" cy="71.24" r="5.6"></circle>
                <circle id="Oval" fill="#C04074" cx="119.56" cy="43.56" r="2.56"></circle>
                <circle id="Oval" fill="#C04074" cx="23.68" cy="46.44" r="2.56"></circle>
                <circle id="Oval" fill="#C04074" cx="75.56" cy="2.56" r="2.56"></circle>
                <circle id="Oval" fill="#C04074" cx="113.6" cy="22.76" r="1.6"></circle>
                <circle id="Oval" fill="#322C61" cx="59.6" cy="12.6" r="1.6"></circle>
                <circle id="Oval" fill="#C04074" cx="64.48" cy="52.36" r="2.08"></circle>
                <path d="M48.024576,53.94592 C47.61984,53.951872 47.207616,53.968384 46.799616,53.99488 C46.004352,54.046336 45.401472,54.732544 45.452736,55.527808 C45.501888,56.291392 46.136832,56.87776 46.8912,56.87776 C46.922496,56.87776 46.953984,56.8768 46.985664,56.874688 C47.346432,56.851456 47.710464,56.836864 48.067776,56.831488 C48.864576,56.819584 49.500864,56.163904 49.48896,55.367296 C49.477056,54.570688 48.817536,53.9296 48.024576,53.94592 Z" id="Path" fill="#000000" fill-rule="nonzero"></path>
                <path d="M55.115328,54.963136 C54.367104,54.720256 53.581248,54.517504 52.77984,54.360448 C51.9984,54.206656 51.239808,54.716608 51.0864,55.498816 C50.932992,56.28064 51.442752,57.03904 52.224768,57.192448 C52.913088,57.327424 53.586048,57.500992 54.22464,57.70816 C54.973056,57.950656 55.799616,57.529024 56.042496,56.781184 C56.288256,56.022976 55.87296,55.209088 55.115328,54.963136 Z" id="Path" fill="#000000" fill-rule="nonzero"></path>
                <path d="M40.09248,68.31712 C39.979776,67.659136 39.914496,66.980608 39.898752,66.300352 C39.88032,65.503552 39.217536,64.873792 38.422848,64.891264 C37.62624,64.909696 36.995328,65.57056 37.01376,66.367168 C37.032768,67.18816 37.11168,68.008192 37.248192,68.804608 C37.380864,69.579136 38.13888,70.11616 38.913984,69.98272 C39.699648,69.84832 40.227072,69.1024 40.09248,68.31712 Z" id="Path" fill="#000000" fill-rule="nonzero"></path>
                <path d="M47.131584,77.228032 C46.521792,77.01184 45.928512,76.732096 45.368448,76.396672 C44.684544,75.98752 43.798656,76.209856 43.38912,76.893568 C42.979968,77.57728 43.202304,78.46336 43.886016,78.872896 C44.610048,79.306048 45.377088,79.667776 46.166976,79.947904 C46.948032,80.224768 47.823168,79.765504 48.04128,78.967552 C48.237888,78.248512 47.833536,77.477056 47.131584,77.228032 Z" id="Path" fill="#000000" fill-rule="nonzero"></path>
                <path d="M49.004736,48.370048 C48.509376,47.745856 47.6016,47.6416 46.9776,48.136768 C46.365312,48.622528 45.764928,49.138816 45.193536,49.671616 C44.610432,50.214784 44.578176,51.127744 45.121152,51.710848 C45.65664,52.285888 46.58496,52.318912 47.160192,51.78304 C47.676288,51.302272 48.218496,50.835904 48.771456,50.397376 C49.395648,49.901824 49.500096,48.994432 49.004736,48.370048 Z" id="Path" fill="#000000" fill-rule="nonzero"></path>
                <path d="M42.447936,73.78528 C42.04704,73.26688 41.684928,72.703936 41.371776,72.112 C40.999104,71.407744 40.125696,71.139136 39.421632,71.511616 C38.717376,71.88448 38.448576,72.757504 38.821248,73.46176 C39.211392,74.199232 39.663744,74.901952 40.165248,75.550528 C40.684032,76.221568 41.700864,76.294144 42.31104,75.704128 C42.83232,75.199744 42.891456,74.358592 42.447936,73.78528 Z" id="Path" fill="#000000" fill-rule="nonzero"></path>
                <path d="M40.283712,58.458112 C39.550656,58.145728 38.703168,58.486912 38.390784,59.219968 C38.046336,60.027904 37.764864,60.823168 37.576128,61.519168 C37.367616,62.28832 37.82208,63.080704 38.59104,63.289408 C38.717184,63.323584 38.844288,63.339904 38.96928,63.339904 C39.6048,63.339904 40.186944,62.916928 40.360896,62.274304 C40.4688,61.876672 40.675008,61.220224 41.045376,60.350848 C41.357952,59.617792 41.01696,58.770304 40.283712,58.458112 Z" id="Path" fill="#000000" fill-rule="nonzero"></path>
                <path d="M44.040768,52.889728 C43.411968,52.399552 42.505536,52.511872 42.015744,53.14048 C41.533056,53.759488 41.070912,54.40384 40.642752,55.055488 C40.2048,55.721344 40.389696,56.616064 41.055552,57.053824 C41.71296,57.486208 42.621888,57.297664 43.053888,56.641024 C43.439808,56.05408 43.856256,55.47328 44.29152,54.915136 C44.781504,54.286528 44.669184,53.379712 44.040768,52.889728 Z" id="Path" fill="#000000" fill-rule="nonzero"></path>
                <path d="M61.421952,58.74784 C60.85536,58.159744 60.211968,57.611392 59.509632,57.117952 C58.857792,56.659648 57.957888,56.816896 57.499584,57.46912 C57.041472,58.121152 57.19872,59.021056 57.850752,59.479168 C58.40256,59.866816 58.904832,60.2944 59.343552,60.750016 C59.889216,61.316224 60.817344,61.333504 61.383744,60.788032 C61.957632,60.235072 61.97472,59.321728 61.421952,58.74784 Z" id="Path-27" fill="#000000" fill-rule="nonzero"></path>
                <path d="M54.681984,78.628096 C54.514944,77.848768 53.74848,77.353024 52.968768,77.51968 C52.367424,77.648512 51.737472,77.73376 51.094464,77.773312 L50.982336,77.779648 C50.186496,77.8192 49.573248,78.496384 49.6128,79.292416 C49.651008,80.064064 50.28864,80.66368 51.052608,80.66368 C51.076608,80.66368 51.101184,80.663104 51.125376,80.661952 L51.272448,80.653696 C52.057344,80.605888 52.831488,80.500672 53.57376,80.341696 C54.352896,80.174272 54.849024,79.407424 54.681984,78.628096 Z" id="Path" fill="#000000" fill-rule="nonzero"></path>
                <path d="M64.521408,65.637952 C64.452864,64.763392 64.292928,63.917824 64.045824,63.124672 C63.808704,62.363776 62.999424,61.939072 62.238912,62.176384 C61.478016,62.413312 61.053696,63.2224 61.290624,63.983296 C61.473792,64.570624 61.59264,65.203072 61.644288,65.862784 C61.705536,66.64672 62.411328,67.250176 63.195264,67.188928 C63.979008,67.127488 64.582656,66.421888 64.521408,65.637952 Z" id="Path" fill="#000000" fill-rule="nonzero"></path>
                <path d="M63.002496,68.795584 C62.237952,68.570176 61.435776,69.0064 61.209792,69.77056 C61.021824,70.407232 60.777984,71.031616 60.485376,71.626624 C60.13344,72.34144 60.427968,73.2064 61.143168,73.558144 C61.84896,73.905664 62.727744,73.605568 63.074688,72.900352 C63.439488,72.158848 63.743232,71.380864 63.977472,70.587904 C64.203264,69.823744 63.766656,69.021184 63.002496,68.795584 Z" id="Path" fill="#000000" fill-rule="nonzero"></path>
                <path d="M54.881088,45.127744 C54.542208,44.406208 53.682816,44.09632 52.961664,44.4352 C52.253376,44.767744 51.551424,45.13024 50.875776,45.512512 C50.336256,45.8176 50.047296,46.453696 50.173056,47.0608 C50.310144,47.723584 50.910912,48.211648 51.58752,48.211648 C51.828288,48.211648 52.072128,48.15136 52.296576,48.024448 C52.909248,47.677888 53.54592,47.348992 54.188544,47.047168 C54.909888,46.708288 55.219968,45.848896 54.881088,45.127744 Z" id="Path" fill="#000000" fill-rule="nonzero"></path>
                <path d="M60.194496,74.865856 C59.645568,74.288128 58.732608,74.26432 58.154688,74.813056 C57.67776,75.265984 57.157632,75.675136 56.608512,76.02976 C55.939008,76.462144 55.746816,77.355136 56.179008,78.02464 C56.605056,78.684928 57.513024,78.88096 58.173888,78.454144 C58.873152,78.00256 59.53536,77.481664 60.141888,76.905664 C60.719616,76.356928 60.743232,75.443776 60.194496,74.865856 Z" id="Path" fill="#000000" fill-rule="nonzero"></path>
                <path d="M60.273792,43.441984 C60.06816,42.672448 59.27712,42.215488 58.507392,42.420544 C58.118208,42.524608 57.728448,42.635968 57.349056,42.75136 C56.626176,42.971776 56.189184,43.74016 56.36832,44.474176 C56.56224,45.26848 57.408192,45.749824 58.190592,45.511744 C58.538112,45.40576 58.89504,45.303808 59.25216,45.208384 C60.021696,45.002752 60.479232,44.211904 60.273792,43.441984 Z" id="Path" fill="#000000" fill-rule="nonzero"></path>
                <path d="M27.841728,92.402944 C27.674304,92.078848 27.511872,91.747648 27.358464,91.418752 C27.021888,90.69664 26.163264,90.384064 25.441152,90.72064 C24.71904,91.057216 24.406272,91.915648 24.74304,92.637952 C24.912768,93.001984 25.09248,93.368128 25.277376,93.726208 C25.637952,94.424704 26.521728,94.70752 27.221184,94.346752 C27.92928,93.981568 28.207104,93.111232 27.841728,92.402944 Z" id="Path" fill="#000000" fill-rule="nonzero"></path>
                <path d="M25.927104,87.589504 C25.741248,86.934784 25.581312,86.267584 25.452288,85.606144 C25.299648,84.824128 24.5424,84.314176 23.759616,84.466624 C22.9776,84.619264 22.467456,85.377088 22.620096,86.159296 C22.76448,86.899648 22.943232,87.645952 23.151168,88.378048 C23.365824,89.134144 24.176832,89.587072 24.933312,89.371648 C25.70016,89.15392 26.145024,88.355968 25.927104,87.589504 Z" id="Path" fill="#000000" fill-rule="nonzero"></path>
                <path d="M23.710464,77.990848 C22.916736,77.941696 22.229568,78.543808 22.178688,79.33888 C22.142592,79.904512 22.12416,80.478016 22.12416,81.043648 C22.12416,81.562624 22.105344,82.067392 22.447488,82.49344 C22.725312,82.839232 23.15904,83.044672 23.603904,83.03296 C24.04512,83.023552 24.464448,82.807168 24.72864,82.453888 C25.048704,82.02592 25.00992,81.550144 25.00992,81.043456 C25.00992,80.539072 25.02624,80.027392 25.058496,79.522624 C25.109376,78.727552 24.505728,78.041728 23.710464,77.990848 Z" id="Path" fill="#000000" fill-rule="nonzero"></path>
                <path d="M25.277568,71.707264 C24.5184,71.46208 23.706048,71.878912 23.461248,72.63712 C23.228352,73.358848 23.022528,74.097088 22.850112,74.831296 C22.66752,75.606784 23.148672,76.383424 23.924352,76.565824 C24.689856,76.74592 25.479168,76.256704 25.659072,75.491584 C25.814016,74.833408 25.998528,74.1712 26.207424,73.523776 C26.452032,72.765184 26.035968,71.951872 25.277568,71.707264 Z" id="Path" fill="#000000" fill-rule="nonzero"></path>
                <path d="M32.635968,61.170496 C32.085504,60.59392 31.172736,60.572416 30.595776,61.122496 C30.448128,61.263232 30.301824,61.406464 30.156096,61.551808 C29.766336,61.94176 29.381184,62.353984 29.0112,62.777344 C28.486848,63.377152 28.547904,64.288768 29.147712,64.813312 C29.739456,65.330752 30.666432,65.268544 31.18368,64.6768 C31.511424,64.301824 31.852416,63.937024 32.196672,63.592576 C32.325888,63.46336 32.456448,63.335872 32.587776,63.210688 C33.164544,62.660224 33.185856,61.747072 32.635968,61.170496 Z" id="Path" fill="#000000" fill-rule="nonzero"></path>
                <path d="M28.297536,65.977216 C27.618816,65.56 26.73024,65.771968 26.31264,66.450496 C25.917504,67.09312 25.542912,67.760896 25.198848,68.435008 C24.836736,69.144832 25.118784,70.013824 25.8288,70.375744 C26.529984,70.73344 27.412608,70.446016 27.769536,69.745792 C28.078656,69.13984 28.415424,68.539456 28.770624,67.962112 C29.188224,67.2832 28.976256,66.394624 28.297536,65.977216 Z" id="Path" fill="#000000" fill-rule="nonzero"></path>
                <path d="M37.181376,58.1152 C36.7728,57.431296 35.886912,57.208 35.202816,57.616576 C34.854912,57.82432 34.5072,58.043392 34.168896,58.26784 C33.50496,58.708672 33.323712,59.603968 33.764352,60.267904 C34.198848,60.922816 35.108736,61.107328 35.764416,60.672448 C36.064896,60.473152 36.373632,60.278464 36.682752,60.093952 C37.366848,59.685184 37.590144,58.799296 37.181376,58.1152 Z" id="Path" fill="#000000" fill-rule="nonzero"></path>
                <circle id="Oval-2" stroke="#000000" stroke-width="3" fill="#FF94BF" cx="87" cy="35" r="24"></circle>
                <path d="M88.9679421,44.737332 L88.9679421,37.1954498 L88.9679421,37.1954498 L96.1571872,37.1954498 C97.1749446,37.1954498 98,36.3703944 98,35.352637 C98,34.3348796 97.1749446,33.5098242 96.1571872,33.5098242 L88.9679421,33.5098242 L88.9679421,33.5098242 L88.9679421,25.9906929 C88.9679421,24.8912636 88.0766785,24 86.9772492,24 C85.8778199,24 84.9865564,24.8912636 84.9865564,25.9906929 L84.9865564,33.5098242 L84.9865564,33.5098242 L77.8428128,33.5098242 C76.8250554,33.5098242 76,34.3348796 76,35.352637 C76,36.3703944 76.8250554,37.1954498 77.8428128,37.1954498 L84.9865564,37.1954498 L84.9865564,37.1954498 L84.9865564,44.737332 C84.9865564,45.8367613 85.8778199,46.7280248 86.9772492,46.7280248 C88.0766785,46.7280248 88.9679421,45.8367613 88.9679421,44.737332 Z" id="+" fill="#000000" transform="translate(87.000000, 35.364012) rotate(45.000000) translate(-87.000000, -35.364012) "></path>
            </g>
        </g>
    </g>
</svg>