<?xml version="1.0" encoding="UTF-8"?>
<svg width="1058px" height="197px" viewBox="0 0 1058 197" version="1.1" xmlns="http://www.w3.org/2000/svg" xmlns:xlink="http://www.w3.org/1999/xlink">
    <title>Combined Shape</title>
    <defs>
        <radialGradient cx="98.0933134%" cy="100%" fx="98.0933134%" fy="100%" r="159.89979%" gradientTransform="translate(0.980933,1.000000),scale(0.178435,1.000000),rotate(-137.287983),translate(-0.980933,-1.000000)" id="radialGradient-1">
            <stop stop-color="#C24074" offset="0%"></stop>
            <stop stop-color="#322C61" offset="100%"></stop>
        </radialGradient>
        <path d="M1048,215 L1048,232 L1048,232 C1039.71573,232 1033,238.715729 1033,247 C1033,255.284271 1039.71573,262 1048,262 L1048,273 L1048,273 C1039.71573,273 1033,279.715729 1033,288 C1033,296.284271 1039.71573,303 1048,303 L1048,314 L1048,314 C1039.71573,314 1033,320.715729 1033,329 C1033,337.284271 1039.71573,344 1048,344 L1048,355 L1048,355 C1039.71573,355 1033,361.715729 1033,370 C1033,378.284271 1039.71573,385 1048,385 L1048,402 L10,402 C4.4771525,402 6.76353751e-16,397.522847 0,392 L0,225 C-6.76353751e-16,219.477153 4.4771525,215 10,215 L1048,215 Z" id="path-2"></path>
        <filter x="-0.8%" y="-3.2%" width="101.5%" height="108.6%" filterUnits="objectBoundingBox" id="filter-3">
            <feMorphology radius="1" operator="dilate" in="SourceAlpha" result="shadowSpreadOuter1"></feMorphology>
            <feOffset dx="0" dy="2" in="shadowSpreadOuter1" result="shadowOffsetOuter1"></feOffset>
            <feGaussianBlur stdDeviation="2" in="shadowOffsetOuter1" result="shadowBlurOuter1"></feGaussianBlur>
            <feComposite in="shadowBlurOuter1" in2="SourceAlpha" operator="out" result="shadowBlurOuter1"></feComposite>
            <feColorMatrix values="0 0 0 0 0   0 0 0 0 0   0 0 0 0 0  0 0 0 0.15073208 0" type="matrix" in="shadowBlurOuter1"></feColorMatrix>
        </filter>
    </defs>
    <g id="Page-1" stroke="none" stroke-width="1" fill="none" fill-rule="evenodd">
        <g id="Artist-Status" transform="translate(-171.000000, -1280.000000)">
            <g id="Group-20" transform="translate(176.000000, 977.000000)">
                <g id="Combined-Shape" transform="translate(0.000000, 91.000000)">
                    <use fill="black" fill-opacity="1" filter="url(#filter-3)" xlink:href="#path-2"></use>
                    <use stroke="#FFFFFF" stroke-width="2" fill="url(#radialGradient-1)" fill-rule="evenodd" xlink:href="#path-2"></use>
                </g>
            </g>
        </g>
    </g>
</svg>