<?xml version="1.0" encoding="UTF-8"?>
<svg width="334px" height="617px" viewBox="0 0 334 617" version="1.1" xmlns="http://www.w3.org/2000/svg" xmlns:xlink="http://www.w3.org/1999/xlink">
    <title>Combined Shape</title>
    <defs>
        <path d="M332,3373 C337.522847,3373 342,3377.47715 342,3383 L342,3969.99916 C342,3975.52201 337.522847,3979.99916 332,3979.99916 L318,3979.99916 C318,3971.7149 311.284271,3964.99919 303,3964.99919 C294.715729,3964.99919 288,3971.7149 288,3979.99916 L288,3979.99916 L277.1,3979.99916 C277.1,3971.7149 270.384271,3964.99919 262.1,3964.99919 C253.815729,3964.99919 247.1,3971.7149 247.1,3979.99916 L247.1,3979.99916 L236.591805,3979.99974 C236.597254,3979.83355 236.6,3979.66668 236.6,3979.49916 C236.6,3971.2149 229.884271,3964.49919 221.6,3964.49919 C213.315729,3964.49919 206.6,3971.2149 206.6,3979.49916 C206.6,3979.66668 206.602746,3979.83355 206.608195,3979.99974 L195.691805,3979.99974 C195.697254,3979.83355 195.7,3979.66668 195.7,3979.49916 C195.7,3971.2149 188.984271,3964.49919 180.7,3964.49919 C172.415729,3964.49919 165.7,3971.2149 165.7,3979.49916 C165.7,3979.66668 165.702746,3979.83355 165.708195,3979.99974 L154.76714,3980 C154.788932,3979.6692 154.8,3979.33548 154.8,3978.99916 C154.8,3970.71491 148.084271,3963.99919 139.8,3963.99919 C131.515729,3963.99919 124.8,3970.71491 124.8,3978.99916 C124.8,3979.33548 124.811068,3979.6692 124.83286,3980 L113.86714,3980 C113.888932,3979.6692 113.9,3979.33548 113.9,3978.99916 C113.9,3970.71491 107.184271,3963.99919 98.9,3963.99919 C90.6157288,3963.99919 83.9,3970.71491 83.9,3978.99916 C83.9,3979.33548 83.911068,3979.6692 83.9328596,3980 L72.9671404,3980 C72.988932,3979.6692 73,3979.33548 73,3978.99916 C73,3970.71491 66.2842712,3963.99919 58,3963.99919 C49.7157288,3963.99919 43,3970.71491 43,3978.99916 C43,3979.33548 43.011068,3979.6692 43.0328596,3980 L28,3979.99916 C22.4771525,3979.99916 18,3975.52201 18,3969.99916 L18,3383 C18,3377.47715 22.4771525,3373 28,3373 L332,3373 Z" id="path-1"></path>
        <filter x="-2.5%" y="-1.0%" width="104.9%" height="102.6%" filterUnits="objectBoundingBox" id="filter-2">
            <feMorphology radius="1" operator="dilate" in="SourceAlpha" result="shadowSpreadOuter1"></feMorphology>
            <feOffset dx="0" dy="2" in="shadowSpreadOuter1" result="shadowOffsetOuter1"></feOffset>
            <feGaussianBlur stdDeviation="2" in="shadowOffsetOuter1" result="shadowBlurOuter1"></feGaussianBlur>
            <feComposite in="shadowBlurOuter1" in2="SourceAlpha" operator="out" result="shadowBlurOuter1"></feComposite>
            <feColorMatrix values="0 0 0 0 0   0 0 0 0 0   0 0 0 0 0  0 0 0 0.15073208 0" type="matrix" in="shadowBlurOuter1"></feColorMatrix>
        </filter>
    </defs>
    <g id="Page-1" stroke="none" stroke-width="1" fill="none" fill-rule="evenodd">
        <g id="Combined-Shape" transform="translate(-13.000000, -3370.000000)">
            <use fill="black" fill-opacity="1" filter="url(#filter-2)" xlink:href="#path-1"></use>
            <use stroke="#FFFFFF" stroke-width="2" fill="#FFFFFF" fill-rule="evenodd" xlink:href="#path-1"></use>
        </g>
    </g>
</svg>