<?xml version="1.0" encoding="UTF-8"?>
<svg width="98px" height="196px" viewBox="0 0 98 196" version="1.1" xmlns="http://www.w3.org/2000/svg" xmlns:xlink="http://www.w3.org/1999/xlink">
    <title>Combined Shape</title>
    <g id="Page-1" stroke="none" stroke-width="1" fill="none" fill-rule="evenodd">
        <g id="Path-3-+-Combined-Shape-Mask" transform="translate(0.000000, -167.000000)" fill="#F4486D">
            <path d="M0,167 C54.1239055,167 98,210.876095 98,265 C98,319.123905 54.1239055,363 0,363 C-54.1239055,363 -98,319.123905 -98,265 C-98,210.876095 -54.1239055,167 0,167 Z M-0.5,178 C-48.2726309,178 -87,216.727369 -87,264.5 C-87,312.272631 -48.2726309,351 -0.5,351 C47.2726309,351 86,312.272631 86,264.5 C86,216.727369 47.2726309,178 -0.5,178 Z M-0.5,189 C41.1974986,189 75,222.802501 75,264.5 C75,306.197499 41.1974986,340 -0.5,340 C-42.1974986,340 -76,306.197499 -76,264.5 C-76,222.802501 -42.1974986,189 -0.5,189 Z" id="Combined-Shape"></path>
        </g>
    </g>
</svg>