<?xml version="1.0" encoding="UTF-8"?>
<svg width="1018px" height="399px" viewBox="0 0 1018 399" version="1.1" xmlns="http://www.w3.org/2000/svg" xmlns:xlink="http://www.w3.org/1999/xlink">
    <title>Group 20</title>
    <defs>
        <path d="M502.929325,156.6178 C503.853894,153.881515 506.499894,160.835119 507.067646,162.388954 L507.11957,162.53192 C507.156169,162.633352 507.175751,162.689161 507.175751,162.689161 C507.175751,162.689161 507.180196,162.693796 507.188627,162.70245 L507.225421,162.739852 C507.568253,163.085476 509.541968,165.004072 508.592087,162.373327 C507.936437,160.55741 509.08747,161.727118 510.214874,163.101392 L510.402242,163.331855 C510.992893,164.064632 511.548639,164.811353 511.8004,165.16317 C512.555685,166.21875 512.460419,163.627469 511.8004,162.955354 C511.8004,162.955354 511.956481,163.068839 512.212125,163.287451 L512.396684,163.448675 C513.519072,164.449494 515.883136,166.924143 516.441701,170.422031 C516.442605,170.428072 516.443638,170.433587 516.44467,170.439628 C516.634556,170.592227 516.82483,170.744693 517.00852,170.903858 C517.010403,170.79625 517.011614,170.686333 517.012286,170.57614 L517.01211,170.085272 C517.008205,169.446591 516.991997,168.907736 516.991997,168.907736 C516.991997,168.907736 519.188918,171.530666 519.599671,173.531516 L519.599671,173.531516 L519.587795,173.529414 C519.973634,173.996664 520.335721,174.483744 520.683997,174.983169 L520.683997,174.983169 L520.683997,200.661303 C516.731888,206.305993 510.261432,210 502.929325,210 C495.682544,210 489.280117,206.388727 485.315487,200.85343 L485.315487,200.85343 L485.315487,174.77699 L484.808952,174.77699 C484.799916,174.77699 484.790622,174.777778 484.781586,174.777778 C485.35602,172.964722 486.508633,169.781959 488.111757,167.563375 C488.111757,167.563375 487.382806,169.267301 487.545196,170.53996 C487.692226,171.686154 488.652499,170.059183 491.780134,166.123278 C493.530029,163.920715 493.620518,164.725205 493.360796,165.860368 C494.13028,164.699466 495.160777,163.436656 496.417304,162.570707 C499.342918,160.554361 499.909607,158.826009 499.909607,158.826009 C499.909607,158.826009 499.672992,160.854305 499.249589,161.852891 C500.162875,160.890944 502.198696,158.780702 502.929325,156.6178 Z M521.697325,175.819701 C523.055184,175.877615 524.348501,176.182811 525.551199,176.671467 C527.158454,177.324015 528.596992,178.318136 529.766773,179.579107 C531.768774,181.731767 533,184.633103 533,187.822827 C533,194.274764 527.975958,199.554375 521.697325,199.825427 L521.697325,199.825427 Z M484.302159,175.818913 L484.302159,199.824376 C478.024301,199.554375 473,194.273845 473,187.820726 C473,184.838362 474.083035,182.114838 475.858489,180.01195 C476.865879,178.818874 478.096073,177.83145 479.486591,177.112978 C480.945655,176.359442 482.573047,175.893374 484.302159,175.818913 L484.302159,175.818913 Z M502.541808,150 C517.740956,150 528.923452,161.712637 529.725336,178.113665 C528.481202,176.980603 527.02188,176.092329 525.414625,175.519626 C523.670797,162.887723 514.591119,154.124749 502.541808,154.124749 C490.368316,154.124749 481.220221,163.066586 479.612321,175.906506 C477.971375,176.650849 476.517733,177.736503 475.32562,179.072723 C475.731984,162.170169 487.047181,150 502.541808,150 Z" id="path-1"></path>
        <filter x="-11.7%" y="-8.3%" width="123.3%" height="123.3%" filterUnits="objectBoundingBox" id="filter-2">
            <feOffset dx="0" dy="2" in="SourceAlpha" result="shadowOffsetOuter1"></feOffset>
            <feGaussianBlur stdDeviation="2" in="shadowOffsetOuter1" result="shadowBlurOuter1"></feGaussianBlur>
            <feColorMatrix values="0 0 0 0 0   0 0 0 0 0   0 0 0 0 0  0 0 0 0.235085227 0" type="matrix" in="shadowBlurOuter1"></feColorMatrix>
        </filter>
        <filter x="-26.0%" y="-24.0%" width="150.0%" height="152.0%" filterUnits="objectBoundingBox" id="filter-3">
            <feOffset dx="0" dy="2" in="SourceAlpha" result="shadowOffsetOuter1"></feOffset>
            <feGaussianBlur stdDeviation="2" in="shadowOffsetOuter1" result="shadowBlurOuter1"></feGaussianBlur>
            <feColorMatrix values="0 0 0 0 0   0 0 0 0 0   0 0 0 0 0  0 0 0 0.289007867 0" type="matrix" in="shadowBlurOuter1" result="shadowMatrixOuter1"></feColorMatrix>
            <feMerge>
                <feMergeNode in="shadowMatrixOuter1"></feMergeNode>
                <feMergeNode in="SourceGraphic"></feMergeNode>
            </feMerge>
        </filter>
        <radialGradient cx="98.0933134%" cy="100%" fx="98.0933134%" fy="100%" r="110.469721%" id="radialGradient-4">
            <stop stop-color="#C24074" offset="0%"></stop>
            <stop stop-color="#322C61" offset="100%"></stop>
        </radialGradient>
        <path d="M37.6464763,4 C41.7074629,4 45,7.29253711 45,11.3531602 L45,11.3531602 L45,38.6464763 C45,42.7075538 41.7074629,46 37.6464763,46 L37.6464763,46 L10.3531602,46 C6.29253711,46 3,42.7075538 3,38.6464763 L3,38.6464763 L3,11.3531602 C3,7.29253711 6.29253711,4 10.3531602,4 L10.3531602,4 Z M37.6464763,6.14013549 L10.3531602,6.14013549 C7.4787447,6.14013549 5.14013549,8.4787447 5.14013549,11.3531602 L5.14013549,11.3531602 L5.14013549,38.6463854 C5.14013549,41.5208918 7.4787447,43.8595919 10.3531602,43.8595919 L10.3531602,43.8595919 L37.6464763,43.8595919 C40.5208918,43.8595919 42.8596828,41.5208918 42.8596828,38.6463854 L42.8596828,38.6463854 L42.8596828,11.3531602 C42.8596828,8.4787447 40.5208918,6.14013549 37.6464763,6.14013549 L37.6464763,6.14013549 Z M10.6049783,31.3898266 C10.9005078,31.3898266 11.1401485,31.6294673 11.1401485,31.9248151 L11.1401485,31.9248151 L11.1401485,32.9389939 L11.5410945,32.9389939 C12.405691,32.9389939 13.1088914,33.6426487 13.1088914,34.5079722 C13.1088914,35.3722053 12.405691,36.0750421 11.5410945,36.0750421 L11.5410945,36.0750421 L11.1401485,36.0750421 L11.1401485,42.2595339 C11.1401485,42.5548817 10.9005078,42.7945223 10.6049783,42.7945223 C10.3096305,42.7945223 10.0699899,42.5548817 10.0699899,42.2595339 L10.0699899,42.2595339 L10.0699899,36.0750421 L9.66904387,36.0750421 C8.80444731,36.0750421 8.10088345,35.3722053 8.10088345,34.5079722 C8.10088345,33.6426487 8.80444731,32.9389939 9.66904387,32.9389939 L9.66904387,32.9389939 L10.0699899,32.9389939 L10.0699899,31.9248151 C10.0699899,31.6294673 10.3096305,31.3898266 10.6049783,31.3898266 Z M24.9128973,31.3898266 C25.7774938,31.3898266 26.4814212,32.0941175 26.4815121,32.9586232 C26.4815121,33.8238559 25.7775847,34.5260566 24.9129882,34.5260566 L24.9129882,34.5260566 L24.5124057,34.5260566 L24.5124057,42.259443 C24.5124057,42.5547908 24.2724015,42.7944315 23.9770537,42.7944315 C23.6820695,42.7944315 23.4420653,42.5547908 23.4420653,42.259443 L23.4420653,42.259443 L23.4420653,34.5254205 L23.0410285,34.5254205 C22.1765228,34.5254205 21.4730498,33.8225836 21.4730498,32.9587141 C21.4730498,32.0933905 22.1765228,31.3898266 23.0410285,31.3898266 L23.0410285,31.3898266 Z M30.5806667,31.3898266 C30.8760145,31.3898266 31.1156552,31.6294673 31.1156552,31.9248151 L31.1156552,31.9248151 L31.1156552,34.3658418 L31.5169646,34.3658418 C32.3808342,34.3658418 33.0843981,35.0695874 33.0843981,35.9348201 C33.0843981,36.7990532 32.3808342,37.5017991 31.5169646,37.5017991 L31.5169646,37.5017991 L31.1156552,37.5017991 L31.1156552,42.2595339 C31.1156552,42.5548817 30.8760145,42.7945223 30.5806667,42.7945223 C30.2853189,42.7945223 30.0455874,42.5548817 30.0455874,42.2595339 L30.0455874,42.2595339 L30.0455874,37.5017991 L29.6442779,37.5017991 C28.7804084,37.5017991 28.076481,36.7990532 28.076481,35.9348201 C28.076481,35.0694965 28.7804993,34.3658418 29.6442779,34.3658418 L29.6442779,34.3658418 L30.0455874,34.3658418 L30.0455874,31.9248151 C30.0455874,31.6294673 30.2853189,31.3898266 30.5806667,31.3898266 Z M37.4290094,31.3911898 C37.7243572,31.3911898 37.9639979,31.6308304 37.9639979,31.9261782 L37.9639979,31.9261782 L37.9639979,37.9749008 L38.3653073,37.9749008 C39.2299039,37.9749008 39.9331043,38.6784647 39.9331043,39.5423343 C39.9331043,40.407567 39.2299039,41.1097677 38.3653073,41.1097677 L38.3653073,41.1097677 L37.9639979,41.1097677 L37.9639979,42.259443 C37.9639979,42.5547908 37.7243572,42.7944315 37.4290094,42.7944315 C37.1336616,42.7944315 36.894021,42.5547908 36.894021,42.259443 L36.894021,42.259443 L36.894021,41.1097677 L36.4934385,41.1097677 C35.628842,41.1097677 34.9252781,40.407567 34.9252781,39.5423343 C34.9252781,38.6784647 35.628842,37.9749008 36.4934385,37.9749008 L36.4934385,37.9749008 L36.894021,37.9749008 L36.894021,31.9261782 C36.894021,31.6308304 37.1336616,31.3911898 37.4290094,31.3911898 Z M17.4539571,31.3898266 C17.7489414,31.3898266 17.9889456,31.6294673 17.9889456,31.9248151 L17.9889456,31.9248151 L17.9889456,37.9741738 L18.3898915,37.9741738 C19.2544881,37.9741738 19.9578702,38.6771016 19.9578702,39.5423343 C19.9578702,40.4069308 19.2544881,41.1097677 18.3898915,41.1097677 L18.3898915,41.1097677 L17.9889456,41.1097677 L17.9889456,42.2588069 C17.9889456,42.5541547 17.7489414,42.7937953 17.4539571,42.7937953 C17.1584276,42.7937953 16.9187869,42.5541547 16.9187869,42.2588069 L16.9187869,42.2588069 L16.9187869,41.1097677 L16.517841,41.1097677 C15.6528809,41.1097677 14.9496805,40.4069308 14.9496805,39.5423343 C14.9496805,38.6770107 15.6528809,37.9741738 16.517841,37.9741738 L16.517841,37.9741738 L16.9187869,37.9741738 L16.9187869,31.9248151 C16.9187869,31.6294673 17.1584276,31.3898266 17.4539571,31.3898266 Z M38.3653073,39.0448777 L36.4935294,39.0448777 C36.2181744,39.0448777 35.9953458,39.2677971 35.9953458,39.5423343 C35.9953458,39.8176893 36.2181744,40.0398817 36.4935294,40.0398817 L36.4935294,40.0398817 L38.3653073,40.0398817 C38.6399353,40.0398817 38.8628548,39.8175984 38.8628548,39.5423343 C38.8628548,39.2677063 38.6398445,39.0448777 38.3653073,39.0448777 L38.3653073,39.0448777 Z M18.3898915,39.0448777 L16.517841,39.0448777 C16.2431221,39.0448777 16.0198391,39.2677971 16.0198391,39.5423343 C16.0198391,39.8176893 16.2431221,40.0398817 16.517841,40.0398817 L16.517841,40.0398817 L18.3898915,40.0398817 C18.6643378,40.0398817 18.8877116,39.8175984 18.8877116,39.5423343 C18.8877116,39.2677063 18.6643378,39.0448777 18.3898915,39.0448777 L18.3898915,39.0448777 Z M31.5168738,35.4361822 L29.6442779,35.4361822 C29.3697408,35.4361822 29.1469123,35.6597377 29.1468214,35.9347292 C29.1468214,36.2093572 29.3697408,36.4314588 29.6442779,36.4314588 L29.6442779,36.4314588 L31.5168738,36.4314588 C31.7915018,36.4314588 32.0143303,36.2092663 32.0143303,35.9347292 C32.0143303,35.6597377 31.7914109,35.4361822 31.5168738,35.4361822 L31.5168738,35.4361822 Z M11.5410945,34.0093343 L9.66904387,34.0093343 C9.39423412,34.0093343 9.17086032,34.2329807 9.17086032,34.5078814 C9.17086032,34.7825094 9.394325,35.0046109 9.66904387,35.0046109 L9.66904387,35.0046109 L11.5410945,35.0046109 C11.8148137,35.0046109 12.0387328,34.7825094 12.0387328,34.5078814 C12.0387328,34.2329807 11.8155407,34.0093343 11.5410945,34.0093343 L11.5410945,34.0093343 Z M24.9128973,32.4611666 L23.0410285,32.4611666 C22.7665822,32.4611666 22.5432084,32.6839952 22.5432084,32.9586232 C22.5432084,33.2332512 22.7665822,33.4561706 23.0410285,33.4561706 L23.0410285,33.4561706 L24.9128973,33.4561706 C25.1881614,33.4561706 25.4110808,33.2332512 25.4110808,32.9586232 C25.4110808,32.6839952 25.1881614,32.4611666 24.9128973,32.4611666 L24.9128973,32.4611666 Z M12.6997665,19.7371297 C13.1716869,19.7598487 13.6261589,19.8481804 14.0537317,19.9960361 C14.1114381,20.1373486 14.151878,20.2844773 14.1564218,20.4383307 C14.2648372,20.3307333 14.3953355,20.2536702 14.533013,20.19142 C14.7779244,20.3062876 15.0130213,20.4376037 15.233487,20.5896397 C14.6520608,21.7316814 12.6051644,24.2504073 12.4598533,24.6174565 C12.827902,24.4717818 15.3356319,22.4043473 16.4696765,21.8194679 C16.6091716,22.0185777 16.7310366,22.2299558 16.8400881,22.4486041 C16.7809277,22.5880991 16.7065909,22.7196879 16.6011745,22.8311931 C16.7546644,22.8319201 16.9019748,22.8698155 17.0441961,22.9238868 C17.2131351,23.3805399 17.314553,23.8686362 17.3395439,24.3779067 C17.2312195,24.4827779 17.1102632,24.5747446 16.9700411,24.6357226 C17.1097179,24.6958827 17.2295837,24.7865771 17.3382717,24.8910848 C17.3139168,25.3397408 17.2304924,25.7716756 17.0926332,26.1806187 C16.9522294,26.2377799 16.8053734,26.2789468 16.6519743,26.2829453 C16.7602988,26.3918151 16.8379071,26.522586 16.8999755,26.662081 C16.6909602,27.1161896 16.4136059,27.5327663 16.0817259,27.8983614 C15.9305987,27.8959078 15.7800167,27.8754606 15.6372502,27.8197535 C15.6937752,27.9613387 15.7135862,28.1111027 15.716676,28.2615029 C15.3819788,28.5612127 15.0068417,28.8139395 14.5995344,29.0124133 C14.4594941,28.9541616 14.3267239,28.8787343 14.2156731,28.7727726 C14.2156731,28.9260808 14.177596,29.0724825 14.1244334,29.214522 C13.6853194,29.3722832 13.2197604,29.4695208 12.7330272,29.4960566 C12.6296101,29.3881865 12.5383703,29.2680481 12.4777559,29.1281896 C12.4171414,29.2687751 12.3248112,29.3893679 12.21994,29.4982377 C11.7480197,29.475246 11.2933658,29.3867325 10.8659749,29.2388769 C10.8089954,29.0975643 10.7678285,28.9511627 10.7632847,28.7964004 C10.6549602,28.904634 10.5241893,28.981788 10.3866936,29.0433112 C9.95366826,28.8397484 9.55617558,28.5764799 9.20366664,28.2607759 C9.20675643,28.1103757 9.22656745,27.9606116 9.28309248,27.8182994 C9.14023502,27.8747336 8.98983484,27.8951807 8.8385259,27.8979979 C8.53699853,27.5648456 8.28118191,27.191526 8.07961841,26.7858545 C8.13868796,26.6475408 8.21302473,26.5156794 8.31844117,26.4041742 C8.16513295,26.4027202 8.01745906,26.3651883 7.87541949,26.3109352 C7.70648056,25.8550091 7.60506267,25.3666402 7.58007171,24.8574606 C7.68857794,24.7523168 7.80917071,24.6602592 7.9495745,24.5996447 C7.80989772,24.5397573 7.69003196,24.4485175 7.58134397,24.3443734 C7.60569881,23.8957173 7.68930495,23.4634191 7.82698245,23.054476 C7.96738625,22.9973148 8.11433313,22.9566931 8.26800486,22.9525128 C8.15931687,22.8434613 8.08161768,22.7121452 8.01964009,22.5730137 C8.22929158,22.1185416 8.50628236,21.702601 8.83798064,21.3368241 C8.98910783,21.3395504 9.13950801,21.3593614 9.28227459,21.4157956 C9.22593132,21.273756 9.2061203,21.1239011 9.20284875,20.9735009 C9.5377277,20.6737002 9.91286483,20.4213369 10.3203539,20.2219544 C10.4600307,20.2811148 10.5928009,20.3565421 10.7040334,20.4619586 C10.7040334,20.3091956 10.7419288,20.162067 10.7956366,20.0209362 C11.2342054,19.8625389 11.6999461,19.7656648 12.1866793,19.7384928 C12.2900964,19.8469082 12.3813362,19.966683 12.4419506,20.1067233 C12.5025651,19.9660469 12.5948954,19.8454541 12.6997665,19.7371297 Z M24.2395043,19.7364935 C24.7114247,19.7592126 25.1658967,19.847726 25.5934695,19.9953999 C25.6513576,20.1367125 25.6925246,20.2838411 25.6968866,20.4376946 C25.8047567,20.3300971 25.9350733,20.2532158 26.0731143,20.1907839 C26.5062304,20.3941649 26.9034505,20.6582512 27.2560503,20.9735918 C27.2531423,21.123992 27.2337856,21.2739378 27.1766245,21.4158865 C27.3194819,21.3594523 27.4698821,21.3396413 27.6210093,21.336915 C27.9236272,21.6698856 28.1784442,22.0430234 28.3806438,22.448695 C28.3212107,22.58819 28.2466013,22.7202332 28.1413666,22.8312839 C28.294584,22.8320109 28.4424396,22.8699063 28.5837522,22.9239777 C28.7538725,23.3806308 28.8547451,23.8687271 28.8791909,24.3779976 C28.7714116,24.4828687 28.6509097,24.5748355 28.5099607,24.6358135 C28.6500918,24.6959735 28.7699576,24.786668 28.8777368,24.8911757 C28.854109,25.3398317 28.7707755,25.7717665 28.6326436,26.1807096 C28.4920581,26.2378707 28.3457473,26.2790377 28.1923482,26.2830362 C28.3004909,26.391906 28.3783719,26.5226769 28.4403495,26.6621719 C28.2312433,27.1162805 27.9540707,27.5328572 27.6223724,27.8984523 C27.4705182,27.8959986 27.3200272,27.8755515 27.1780785,27.8198443 C27.2336947,27.9614295 27.2537784,28.1111936 27.2566864,28.2615938 C26.9223527,28.5613036 26.5465795,28.8140304 26.1397265,29.0125041 C25.9999589,28.9542525 25.8667343,28.8788252 25.7552292,28.7728635 C25.7552292,28.9261717 25.7176973,29.0725733 25.6648982,29.2146129 C25.2256933,29.3723741 24.7595891,29.4696116 24.2730377,29.4961475 C24.1696205,29.3882774 24.0783808,29.268139 24.0177663,29.1282805 C23.9571519,29.268866 23.8651851,29.3894588 23.7603139,29.4983285 C23.2880301,29.4753368 22.8339215,29.3868234 22.4063488,29.2389677 C22.3493694,29.0976552 22.3078389,28.9512536 22.3036586,28.7964913 C22.1952433,28.9047249 22.064745,28.9818788 21.9270675,29.0434021 C21.682156,28.9290797 21.4466957,28.7964913 21.2262299,28.6446371 C21.8076561,27.5022319 23.8544617,24.9843238 24.0001363,24.6168203 C23.6319967,24.7627676 21.1243576,26.8298386 19.9899495,27.4144454 C19.850818,27.2158808 19.7290438,27.0046845 19.6196288,26.7858545 C19.6786984,26.6475408 19.7530352,26.5156794 19.8584516,26.4041742 C19.7045981,26.4027202 19.5569242,26.3651883 19.4157025,26.3110261 C19.2463092,25.8539186 19.1449822,25.3662767 19.1203548,24.8560975 C19.2285884,24.7515898 19.3491811,24.6598048 19.4897667,24.5991903 C19.3497264,24.539212 19.2298606,24.4477905 19.1215362,24.3436463 C19.1455275,23.8949903 19.2293154,23.4624194 19.3668111,23.053749 C19.5075784,22.9967696 19.6544344,22.9559661 19.8078335,22.9517858 C19.6995091,22.8427343 19.6216281,22.7114182 19.5594688,22.5722866 C19.769302,22.1178146 20.0462928,21.701874 20.3778093,21.3360971 C20.5289365,21.3389143 20.6797002,21.3589071 20.822285,21.4151595 C20.7658509,21.2731199 20.745949,21.123265 20.7432227,20.9728648 C21.0775564,20.6733367 21.453057,20.4207916 21.8603643,20.2214091 C22.0000411,20.2807513 22.1328113,20.3559969 22.2442256,20.4615951 C22.2442256,20.3085595 22.2819392,20.1615217 22.3354653,20.0205727 C22.7745793,19.8619027 23.2401383,19.7650287 23.7268715,19.7379475 C23.8302886,19.846272 23.9215284,19.9660469 23.9821428,20.1060872 C24.0428481,19.9654108 24.1348149,19.844818 24.2395043,19.7364935 Z M35.3000517,19.7372205 C35.4052864,19.845545 35.4978893,19.9660469 35.5579585,20.1068142 C35.6176642,19.9667739 35.7097218,19.8469082 35.8135025,19.7385837 C36.2621585,19.7629385 36.6948203,19.8461811 37.1030363,19.9838586 C37.1601975,20.1246259 37.2006374,20.2715728 37.204636,20.424881 C37.3145962,20.3165566 37.4458215,20.2387665 37.5852257,20.176698 C38.0393343,20.3856225 38.4553657,20.6629768 38.8209608,20.9945842 C38.8184163,21.1460749 38.7986961,21.2966568 38.741535,21.4390599 C38.8839381,21.3828984 39.0344291,21.3627239 39.1847384,21.3599976 C39.4845391,21.6948765 39.736539,22.0699228 39.9357397,22.4770483 C39.8759431,22.6170886 39.8013337,22.7498588 39.696099,22.8609096 C39.8479532,22.8609096 39.9958089,22.8989867 40.1363944,22.9523311 C40.2951552,23.3911725 40.3920293,23.8569132 40.419383,24.3434646 C40.3108768,24.4469726 40.1905567,24.5383941 40.051516,24.5990086 C40.1913745,24.659623 40.3118764,24.751408 40.4207462,24.8559157 C40.3978454,25.3281995 40.309241,25.783126 40.1613854,26.2102443 C40.0207998,26.2682234 39.8730351,26.3092995 39.7197269,26.3133889 C39.8271426,26.4223495 39.9036604,26.551939 39.9662741,26.6896165 C39.7630748,27.1230053 39.4990793,27.5203162 39.1832844,27.8728252 C39.0328842,27.8699172 38.8833019,27.8502879 38.741535,27.7934902 C38.7972421,27.9369838 38.8176893,28.087384 38.8205973,28.2377842 C38.4880811,28.5400386 38.1147615,28.7953099 37.707636,28.9970552 C37.5700494,28.9379856 37.4374609,28.8633762 37.3267737,28.7581415 C37.3260466,28.9115406 37.2885148,29.0593963 37.2342616,29.201345 C36.777245,29.3706474 36.2892396,29.47152 35.78006,29.4959657 C35.6748253,29.3881865 35.5830403,29.2676846 35.5221532,29.1267356 C35.4624476,29.2669576 35.3710261,29.3867325 35.2666093,29.4946026 C34.8179533,29.4709748 34.3860185,29.3875504 33.9770754,29.2495094 C33.9198234,29.1085603 33.8794743,28.9625222 33.8747487,28.809214 C33.765879,28.9177202 33.6351081,28.9952377 33.4956131,29.0572152 C33.0414136,28.847382 32.6248369,28.5710274 32.2595144,28.2393291 C32.2624225,28.087384 32.2821426,27.9369838 32.3385767,27.7945807 C32.1961737,27.8502879 32.0465005,27.870735 31.8961003,27.8736431 C31.5963905,27.538855 31.3442998,27.1634452 31.1450991,26.7566832 C31.2041686,26.6164611 31.278778,26.4836001 31.3847397,26.3720949 C31.2321585,26.3720949 31.0850299,26.3346539 30.9437173,26.2814004 C30.78532,25.8425591 30.6880824,25.3764548 30.6615466,24.8902669 C30.7692349,24.7864863 30.8898277,24.6943378 31.0300497,24.6346321 C30.8899186,24.5740176 30.7685988,24.4820509 30.6600926,24.3771797 C30.6838113,23.904805 30.7715977,23.4505146 30.9194534,23.0231237 C31.060675,22.9652355 31.2078945,22.9246138 31.3615663,22.9204335 C31.2536962,22.812109 31.1772693,22.6813381 31.115019,22.5438424 C31.2300684,22.2989309 31.3612028,22.0634706 31.513057,21.8431866 C32.6554622,22.4246127 35.1733702,24.4711457 35.5412373,24.6168203 C35.3955626,24.2489533 33.3284008,21.7412234 32.7432487,20.6066335 C32.9424494,20.4677746 33.1529188,20.3457278 33.3725666,20.2368581 C33.5108803,20.2960185 33.6427417,20.3697192 33.753429,20.4757717 C33.754883,20.3221 33.792324,20.1744261 33.846668,20.0325683 C34.3029576,19.8633568 34.7912356,19.7623024 35.3000517,19.7372205 Z M12.6997665,8.32271019 C13.1716869,8.345611 13.6261589,8.43376096 14.0537317,8.58143485 C14.1114381,8.72283828 14.151878,8.86987604 14.1564218,9.02372952 C14.2648372,8.91613205 14.3953355,8.83934162 14.533013,8.77681877 C14.7779244,8.89186809 15.0130213,9.02318426 15.233487,9.17503846 C14.6520608,10.3172619 12.6051644,12.8357152 12.4598533,13.2028552 C12.827902,13.0573624 15.3356319,10.9899279 16.4696765,10.4050484 C16.6091716,10.6038856 16.7310366,10.8152637 16.8400881,11.0341846 C16.7809277,11.1734979 16.7065909,11.3055411 16.6011745,11.4165918 C16.7546644,11.4173188 16.9019748,11.455396 17.0441961,11.5092856 C17.2131351,11.9660296 17.314553,12.454035 17.3395439,12.9633055 C17.2312195,13.0681767 17.1102632,13.1601434 16.9700411,13.2211214 C17.1097179,13.2810088 17.2295837,13.3722486 17.3382717,13.4763927 C17.3139168,13.9250487 17.2304924,14.357347 17.0926332,14.7662901 C16.9522294,14.8230878 16.8053734,14.8638912 16.6519743,14.8680715 C16.7602988,14.9773047 16.8379071,15.1084392 16.8999755,15.2477524 C16.6909602,15.7020428 16.4136059,16.1179833 16.0817259,16.483942 C15.9305987,16.4812157 15.7800167,16.4614046 15.6372502,16.4049705 C15.6937752,16.5468283 15.7135862,16.6965015 15.716676,16.8474469 C15.3819788,17.146975 15.0068417,17.3995201 14.5995344,17.5983573 C14.4594941,17.5391969 14.3267239,17.4643148 14.2156731,17.3587167 C14.2156731,17.5112979 14.177596,17.6582447 14.1244334,17.7997391 C13.6853194,17.9577728 13.2197604,18.0550104 12.7330272,18.0820007 C12.6296101,17.9734036 12.5383703,17.8536287 12.4777559,17.7139519 C12.4171414,17.8543557 12.3248112,17.9748576 12.21994,18.0835456 C11.7480197,18.0606447 11.2933658,17.9721313 10.8659749,17.8244574 C10.8089954,17.6833266 10.7678285,17.5363797 10.7632847,17.3823445 C10.6549602,17.4899419 10.5241893,17.567005 10.3866936,17.6288917 C9.95366826,17.4255107 9.55617558,17.1618787 9.20366664,16.8462655 C9.20675643,16.6956836 9.22656745,16.5460104 9.28309248,16.4041526 C9.14023502,16.4605868 8.98983484,16.4804887 8.8385259,16.4832149 C8.53699853,16.1499718 8.28118191,15.7771974 8.07961841,15.3709806 C8.13868796,15.2327579 8.21302473,15.1008056 8.31844117,14.9891187 C8.16513295,14.9885734 8.01745906,14.9508598 7.87541949,14.8966066 C7.70648056,14.4401353 7.60506267,13.9521299 7.58007171,13.4425868 C7.68857794,13.3377156 7.80917071,13.2457488 7.9495745,13.1851344 C7.80989772,13.1251561 7.69003196,13.0339163 7.58134397,12.9297721 C7.60569881,12.4811161 7.68930495,12.048727 7.82698245,11.6398748 C7.96738625,11.5827136 8.11433313,11.5419102 8.26800486,11.5377299 C8.15931687,11.4286784 8.08161768,11.2973622 8.01964009,11.1584124 C8.22929158,10.7037586 8.50628236,10.287818 8.83798064,9.92204117 C8.98910783,9.92494921 9.13950801,9.9448511 9.28227459,10.0011035 C9.22593132,9.85906393 9.2061203,9.70920901 9.20284875,9.55880883 C9.5377277,9.25928074 9.91286483,9.00673566 10.3203539,8.80735319 C10.4600307,8.86669537 10.5928009,8.9419409 10.7040334,9.04753909 C10.7040334,8.89459438 10.7419288,8.7476475 10.7956366,8.60651669 C11.2342054,8.44793765 11.6999461,8.35106358 12.1866793,8.32398246 C12.2900964,8.43230694 12.3813362,8.55208182 12.4419506,8.69212211 C12.5025651,8.55144569 12.5948954,8.43085292 12.6997665,8.32271019 Z M24.2386864,8.3218923 C24.7114247,8.34452049 25.1658967,8.43303395 25.5927425,8.58070784 C25.6506306,8.72220215 25.6910705,8.86914903 25.6954326,9.02318426 C25.8039388,8.91558679 25.9349824,8.83852374 26.0722964,8.77609176 C26.5056852,8.97965454 26.9026326,9.2437409 27.2552324,9.55889971 C27.2523244,9.70929989 27.2322407,9.85915481 27.1765336,10.0011944 C27.318664,9.9448511 27.4689733,9.92504008 27.6209184,9.92213204 C27.9220823,10.2551935 28.1777171,10.6283313 28.3798259,11.0341846 C28.3204837,11.1734979 28.2466013,11.3055411 28.1405488,11.4165918 C28.2939479,11.4173188 28.4418035,11.455396 28.5837522,11.5092856 C28.7523276,11.9660296 28.8540181,12.454035 28.8791909,12.9633055 C28.7706846,13.0681767 28.6500918,13.1601434 28.5091428,13.2211214 C28.6493648,13.2810088 28.7692306,13.3722486 28.8777368,13.4763927 C28.8537455,13.9250487 28.7700485,14.357347 28.6326436,14.7662901 C28.4920581,14.8230878 28.3442933,14.8638912 28.1909851,14.8680715 C28.2998548,14.9773047 28.3777358,15.1084392 28.4397134,15.2477524 C28.2306071,15.7020428 27.9527076,16.1179833 27.6210093,16.483942 C27.4698821,16.4812157 27.319391,16.4614046 27.1766245,16.4049705 C27.2337856,16.5468283 27.2531423,16.6965015 27.2560503,16.8474469 C26.9217166,17.146975 26.546216,17.3995201 26.1383634,17.5983573 C25.9992319,17.5391969 25.8667343,17.4643148 25.7552292,17.3587167 C25.7552292,17.5112979 25.7176973,17.6582447 25.6634442,17.7997391 C25.2242393,17.9577728 24.7590438,18.0550104 24.2722198,18.0820007 C24.1687117,17.9734036 24.0775629,17.8536287 24.0169484,17.7139519 C23.9564248,17.8543557 23.8642763,17.9748576 23.7595869,18.0835456 C23.2873031,18.0606447 22.8326492,17.9721313 22.4056218,17.8244574 C22.3484606,17.6833266 22.3069302,17.5363797 22.3027499,17.3823445 C22.1945163,17.4899419 22.0639271,17.567005 21.9258861,17.6288917 C21.681429,17.5140242 21.4459687,17.3823445 21.225412,17.2301268 C21.8068382,16.0879033 23.8537347,13.5697226 23.9994093,13.20231 C23.6311788,13.3478029 21.1234489,15.4152373 19.9892225,16.0001168 C19.850091,15.8012796 19.7282259,15.5900832 19.6188109,15.3709806 C19.6781531,15.2327579 19.7523081,15.1008056 19.8579063,14.9891187 C19.7045981,14.9885734 19.5569242,14.9508598 19.4150664,14.8966066 C19.2464001,14.4401353 19.144437,13.9521299 19.1195369,13.4418598 C19.2278614,13.3369886 19.3483633,13.2450218 19.488767,13.1844074 C19.3491811,13.1245199 19.2293154,13.0332802 19.1208091,12.929136 C19.1448913,12.48048 19.2285884,12.0478182 19.3660841,11.6392386 C19.5068514,11.5820775 19.6539801,11.541274 19.8071974,11.5370937 C19.6988729,11.4280422 19.620992,11.2967261 19.5588326,11.1577763 C19.7686659,10.7031225 20.0455658,10.2872728 20.3771732,9.92140503 C20.5283004,9.92431307 20.6793367,9.94421497 20.8216489,10.0006491 C20.7652147,9.8584278 20.7454037,9.70875463 20.7426774,9.5581727 C21.0769202,9.2586446 21.4526026,9.00600865 21.8597282,8.80680793 C21.999405,8.86596836 22.1320843,8.94121389 22.2435894,9.04681208 C22.2435894,8.89386737 22.2813031,8.74692049 22.3348292,8.60578968 C22.7734888,8.44721064 23.2394113,8.35051832 23.7261444,8.32316457 C23.8295616,8.43157993 23.9208014,8.55135481 23.9814158,8.69157685 C24.0420303,8.55080956 24.1340879,8.43021678 24.2386864,8.3218923 Z M35.3000517,8.32280107 C35.4052864,8.43094379 35.4978893,8.55144569 35.5579585,8.69221299 C35.6176642,8.55226358 35.7097218,8.43239781 35.8135025,8.32407333 C36.2621585,8.34851904 36.6948203,8.4316708 37.1030363,8.56934831 C37.1601975,8.71011561 37.2006374,8.85706249 37.204636,9.01037071 C37.3145962,8.90204623 37.4458215,8.82425617 37.5852257,8.76236945 C38.0393343,8.9713848 38.4553657,9.24855734 38.8209608,9.58025562 C38.8184163,9.73174632 38.7986961,9.8821465 38.741535,10.0247313 C38.8839381,9.9685698 39.0344291,9.94839528 39.1847384,9.94548724 C39.4845391,10.2803662 39.736539,10.6555033 39.9357397,11.0628106 C39.8759431,11.2028509 39.8013337,11.3356211 39.696099,11.4466719 C39.8479532,11.4466719 39.9958089,11.4845673 40.1363944,11.5379116 C40.2951552,11.9768439 40.3920293,12.4425846 40.419383,12.9293178 C40.3108768,13.0327349 40.1905567,13.1239747 40.051516,13.1845891 C40.1913745,13.2452036 40.3118764,13.3371703 40.4207462,13.4420415 C40.3978454,13.9143253 40.309241,14.3687974 40.1613854,14.7963701 C40.0207998,14.8537131 39.8730351,14.8945165 39.7197269,14.8986968 C39.8271426,15.0073848 39.9036604,15.1376104 39.9662741,15.2756514 C39.7630748,15.7085859 39.4990793,16.1061694 39.1832844,16.4583149 C39.0328842,16.4553159 38.8833019,16.4355049 38.741535,16.3790708 C38.7972421,16.5220191 38.8176893,16.6724193 38.8205973,16.8237282 C38.4880811,17.1252556 38.1147615,17.380527 37.707636,17.5827266 C37.5700494,17.5235662 37.4374609,17.4492294 37.3267737,17.343813 C37.3260466,17.4969394 37.2885148,17.6447951 37.2342616,17.7868346 C36.777245,17.9557736 36.2892396,18.0572823 35.78006,18.0820007 C35.6748253,17.9734944 35.5830403,17.8531743 35.5221532,17.7127705 C35.4624476,17.8523564 35.3710261,17.9722222 35.2666093,18.0805466 C34.8179533,18.0565553 34.3860185,17.9729492 33.9770754,17.8352717 C33.9198234,17.6945044 33.8794743,17.547921 33.8747487,17.3942493 C33.765879,17.5029372 33.6351081,17.5806364 33.4956131,17.642614 C33.0414136,17.4327808 32.6248369,17.1560626 32.2595144,16.8242735 C32.2624225,16.6731463 32.2821426,16.5227461 32.3385767,16.3797978 C32.1961737,16.4363228 32.0465005,16.4561338 31.8961003,16.4590419 C31.5963905,16.1245264 31.3442998,15.7493893 31.1450991,15.3417185 C31.2041686,15.2020417 31.278778,15.0693624 31.3847397,14.9578572 C31.2321585,14.9578572 31.0850299,14.9203253 30.9437173,14.8666175 C30.78532,14.4281396 30.6880824,13.9620354 30.6615466,13.4756657 C30.7692349,13.3715215 30.8898277,13.2802818 31.0285957,13.2200309 C30.8880102,13.1594164 30.7675083,13.0674496 30.6586385,12.9625785 C30.6823572,12.4902038 30.7700528,12.0360952 30.9179085,11.6085225 C31.0593119,11.550816 31.2064405,11.5100126 31.3603849,11.5058323 C31.2522422,11.397417 31.1758152,11.2669187 31.1134741,11.1292412 C31.2286143,10.8843297 31.3596579,10.6488693 31.5115121,10.4287671 C32.6539173,11.0101933 35.1719162,13.0567262 35.5396924,13.2024009 C35.489298,13.0750308 35.2086554,12.691268 34.8389313,12.1968174 L34.5808006,11.8523845 C33.9102264,10.9583016 33.0793439,9.84669428 32.7417038,9.19212319 C32.9409045,9.05317342 33.1514647,8.93130838 33.3702947,8.82225689 C33.5094262,8.88141732 33.6411968,8.95539058 33.7519749,9.06117053 C33.7533381,8.90768056 33.79087,8.75982491 33.8451231,8.61814885 C34.3022306,8.44875554 34.790236,8.34724677 35.3000517,8.32280107 Z" id="path-5"></path>
        <filter x="-16.7%" y="-11.9%" width="133.3%" height="133.3%" filterUnits="objectBoundingBox" id="filter-6">
            <feOffset dx="0" dy="2" in="SourceAlpha" result="shadowOffsetOuter1"></feOffset>
            <feGaussianBlur stdDeviation="2" in="shadowOffsetOuter1" result="shadowBlurOuter1"></feGaussianBlur>
            <feColorMatrix values="0 0 0 0 0   0 0 0 0 0   0 0 0 0 0  0 0 0 0.310806381 0" type="matrix" in="shadowBlurOuter1"></feColorMatrix>
        </filter>
        <rect id="path-7" x="0" y="0" width="50" height="50" rx="7"></rect>
        <filter x="-14.0%" y="-10.0%" width="128.0%" height="128.0%" filterUnits="objectBoundingBox" id="filter-8">
            <feOffset dx="0" dy="2" in="SourceAlpha" result="shadowOffsetOuter1"></feOffset>
            <feGaussianBlur stdDeviation="2" in="shadowOffsetOuter1" result="shadowBlurOuter1"></feGaussianBlur>
            <feColorMatrix values="0 0 0 0 0   0 0 0 0 0   0 0 0 0 0  0 0 0 0.224896198 0" type="matrix" in="shadowBlurOuter1"></feColorMatrix>
        </filter>
        <linearGradient x1="98.0933134%" y1="100%" x2="77.1289818%" y2="-8.46223287%" id="linearGradient-9">
            <stop stop-color="#C24074" offset="0%"></stop>
            <stop stop-color="#322C61" offset="100%"></stop>
        </linearGradient>
        <path d="M21.760906,38.125 C21.760906,38.5476393 21.9509089,38.8900306 22.1855364,38.8900306 L22.1855364,38.8900306 L27.8148347,38.8900306 C28.0486273,38.8900306 28.2393723,38.5476393 28.2393723,38.125 L28.2393723,38.125 L44.5433424,38.125 C45.3475146,38.125 46,39.8877802 46,42.0625 C46,44.2372198 45.3475146,46 44.5433424,46 L44.5433424,46 L5.45665759,46 C4.65174317,46 4,44.2372198 4,42.0625 C4,39.8877802 4.65174317,38.125 5.45665759,38.125 L5.45665759,38.125 Z M41.9128496,41.8 L36.438594,41.8 C36.2100526,41.8 36.025,42.1524476 36.025,42.5875 C36.025,43.0225524 36.2101429,43.375 36.438594,43.375 L36.438594,43.375 L41.9128496,43.375 C42.1409398,43.375 42.325,43.0225524 42.325,42.5875 C42.325,42.1524476 42.1409398,41.8 41.9128496,41.8 L41.9128496,41.8 Z M44.311474,4 C45.2440832,4 46,4.87180442 46,5.94849839 L46,5.94849839 L46,33.5515016 C46,34.6276992 45.2440832,35.5 44.311474,35.5 L44.311474,35.5 L5.68852598,35.5 C4.75570168,35.5 4,34.6276992 4,33.5515016 L4,33.5515016 L4,5.94849839 C4,4.87180442 4.75570168,4 5.68852598,4 L5.68852598,4 Z M43.4671573,6.92268553 L6.53284273,6.92268553 L6.53284273,32.5771904 L43.4671573,32.5771904 L43.4671573,6.92268553 Z M19.659595,13.95904 L19.659595,30.222595 L15.825835,30.222595 L15.825835,13.95904 L19.659595,13.95904 Z M24.659695,18.37555 L24.659695,30.222595 L20.825935,30.222595 L20.825935,18.37555 L24.659695,18.37555 Z M14.65876,22.834165 L14.65876,30.222595 L10.825,30.222595 L10.825,22.834165 L14.65876,22.834165 Z M29.440975,20.83423 L29.440975,30.222595 L25.608055,30.222595 L25.608055,20.83423 L29.440975,20.83423 Z M39.44212,13.95904 L39.44212,30.222595 L35.608885,30.222595 L35.608885,13.95904 L39.44212,13.95904 Z M34.4416,22.834165 L34.4416,30.222595 L30.60826,30.222595 L30.60826,22.834165 L34.4416,22.834165 Z M14.65876,20.83423 L14.65876,22.042465 L10.825,22.042465 L10.825,20.83423 L14.65876,20.83423 Z M34.4416,20.83423 L34.4416,22.042465 L30.60826,22.042465 L30.60826,20.83423 L34.4416,20.83423 Z M29.440975,18.83398 L29.440975,20.042215 L25.608055,20.042215 L25.608055,18.83398 L29.440975,18.83398 Z M24.659695,16.375615 L24.659695,17.584375 L20.825935,17.584375 L20.825935,16.375615 L24.659695,16.375615 Z M19.659595,11.875 L19.659595,13.083655 L15.825835,13.083655 L15.825835,11.875 L19.659595,11.875 Z M39.44212,11.875 L39.44212,13.083655 L35.608885,13.083655 L35.608885,11.875 L39.44212,11.875 Z" id="path-10"></path>
        <filter x="-16.7%" y="-11.9%" width="133.3%" height="133.3%" filterUnits="objectBoundingBox" id="filter-11">
            <feOffset dx="0" dy="2" in="SourceAlpha" result="shadowOffsetOuter1"></feOffset>
            <feGaussianBlur stdDeviation="2" in="shadowOffsetOuter1" result="shadowBlurOuter1"></feGaussianBlur>
            <feColorMatrix values="0 0 0 0 0   0 0 0 0 0   0 0 0 0 0  0 0 0 0.159937719 0" type="matrix" in="shadowBlurOuter1"></feColorMatrix>
        </filter>
    </defs>
    <g id="Page-1" stroke="none" stroke-width="1" fill="none" fill-rule="evenodd">
        <g id="Home-v1" transform="translate(-191.000000, -3959.000000)">
            <g id="Group-20" transform="translate(191.000000, 3961.000000)">
                <text id="Artist" font-family="Helvetica" font-size="30" font-weight="normal" fill="#FFFFFF">
                    <tspan x="468.83252" y="253">Artist</tspan>
                </text>
                <text id="Studio" font-family="Helvetica" font-size="30" font-weight="normal" fill="#FFFFFF">
                    <tspan x="212.468262" y="141">Studio</tspan>
                </text>
                <g id="Group-19" transform="translate(681.000000, 274.000000)" fill="#FFFFFF" font-family="Helvetica" font-weight="normal">
                    <text id="Engineer" font-size="30">
                        <tspan x="3.95605469" y="29">Engineer</tspan>
                    </text>
                    <text id="An-experienced-profe" font-size="24">
                        <tspan x="0" y="59">An experienced </tspan>
                        <tspan x="0" y="88">professional who is good </tspan>
                        <tspan x="0" y="117">with gadgets and tools</tspan>
                    </text>
                </g>
                <g id="Combined-Shape" fill-rule="nonzero">
                    <use fill="black" fill-opacity="1" filter="url(#filter-2)" xlink:href="#path-1"></use>
                    <use fill="#FFFFFF" xlink:href="#path-1"></use>
                </g>
                <circle id="Oval" stroke="#FFFFFF" stroke-width="4" cx="503" cy="180" r="180"></circle>
                <g id="Group-17" filter="url(#filter-3)" transform="translate(310.000000, 105.000000)">
                    <rect id="Rectangle" fill="url(#radialGradient-4)" x="0" y="0" width="50" height="50" rx="7"></rect>
                    <g id="Combined-Shape" fill-rule="nonzero">
                        <use fill="black" fill-opacity="1" filter="url(#filter-6)" xlink:href="#path-5"></use>
                        <use fill="#FFFFFF" xlink:href="#path-5"></use>
                    </g>
                </g>
                <g id="Group-18" transform="translate(622.000000, 260.000000)">
                    <g id="Rectangle">
                        <use fill="black" fill-opacity="1" filter="url(#filter-8)" xlink:href="#path-7"></use>
                        <use fill="#FFFFFF" fill-rule="evenodd" xlink:href="#path-7"></use>
                    </g>
                    <g id="Combined-Shape" fill-rule="nonzero">
                        <use fill="black" fill-opacity="1" filter="url(#filter-11)" xlink:href="#path-10"></use>
                        <use fill="url(#linearGradient-9)" xlink:href="#path-10"></use>
                    </g>
                </g>
                <text id="The-place-used-for-P" font-family="Helvetica" font-size="24" font-weight="normal" fill="#FFFFFF">
                    <tspan x="103.214844" y="179">The place used for </tspan>
                    <tspan x="21.8398438" y="208">Podcasts, Recordings and </tspan>
                    <tspan x="97.8476562" y="237">Content generation </tspan>
                </text>
                <text id="I-am-looking-for-a-p" font-family="Helvetica" font-size="24" font-weight="normal" fill="#FFFFFF">
                    <tspan x="758" y="56">I am looking for a </tspan>
                    <tspan x="758" y="85">professional studio with </tspan>
                    <tspan x="758" y="114">an engineer!</tspan>
                </text>
                <path id="Path-10" d="M724,64.5 C730.627417,64.5 736,69.872583 736,76.5 C736,83.127417 730.627417,88.5 724,88.5 C718.053942,88.5 713.117964,84.1753315 712.165885,78.4998127 L622.682113,78.5 C604.796041,78.5 587.922208,86.7513402 576.939339,100.840505 L576.579407,101.307095 L544.589748,143.213548 L541.410252,140.786452 L573.399911,98.8799982 C585.006499,83.6753669 602.973457,74.6885081 622.078426,74.5029317 L622.682113,74.5 L712.166053,74.4991908 C713.118542,68.8241623 718.05429,64.5 724,64.5 Z" fill="#FFFFFF" fill-rule="nonzero"></path>
            </g>
        </g>
    </g>
</svg>