<svg width="84" height="84" viewBox="0 0 84 84" fill="none" xmlns="http://www.w3.org/2000/svg">
<path fill-rule="evenodd" clip-rule="evenodd" d="M0 69.293C0 77.4151 6.58507 84 14.7063 84H69.293C77.4149 84 84 77.4151 84 69.293V14.7063C84 6.58507 77.4149 0 69.293 0H14.7063C6.58507 0 0 6.58507 0 14.7063V69.293ZM4.28027 14.7063C4.28027 8.95749 8.95749 4.28027 14.7063 4.28027H69.293C75.0418 4.28027 79.7194 8.95749 79.7194 14.7063V69.2928C79.7194 75.0418 75.0418 79.7192 69.293 79.7192H14.7063C8.95749 79.7192 4.28027 75.0418 4.28027 69.2928V14.7063ZM10.6369 21.9782C10.3303 21.9771 10.0349 21.9017 9.75084 21.7932C9.41296 20.8803 9.21013 19.9043 9.16014 18.8852C9.37716 18.6754 9.61834 18.4915 9.89915 18.3703C9.6198 18.2503 9.38006 18.0678 9.16269 17.8595C9.2114 16.9622 9.37861 16.0975 9.65396 15.2797C9.93477 15.1654 10.2287 15.0838 10.536 15.0755C10.3186 14.8574 10.1632 14.5947 10.0393 14.3168C10.4586 13.4075 11.0126 12.5756 11.676 11.8441C11.9782 11.8499 12.279 11.8897 12.5645 12.0022C12.4519 11.7181 12.4122 11.4184 12.4057 11.1176C13.0755 10.5186 13.8257 10.0135 14.6407 9.61471C14.9201 9.73339 15.1856 9.88388 15.4081 10.0951C15.4081 9.78919 15.4839 9.49529 15.5913 9.21303C16.4684 8.89587 17.3999 8.70213 18.3734 8.64796C18.5802 8.86461 18.7627 9.10416 18.8839 9.38424C19.0051 9.10289 19.1898 8.86171 19.3995 8.64542C20.3434 8.69122 21.2523 8.86752 22.1075 9.16287C22.2229 9.44568 22.3038 9.73975 22.3128 10.0475C22.5297 9.83226 22.7907 9.67868 23.066 9.55364C23.5558 9.78374 24.026 10.0464 24.467 10.3501C23.7797 11.7002 22.0687 14.0118 20.7241 15.8283L20.724 15.8284C19.7936 17.0854 19.0386 18.1054 18.9197 18.4057C19.223 18.2858 20.2531 17.5131 21.5181 16.5642C23.3229 15.2104 25.6059 13.4978 26.9394 12.8101C27.2183 13.2078 27.4621 13.6305 27.6802 14.0684C27.5619 14.347 27.4132 14.6111 27.2024 14.8332C27.5093 14.8346 27.804 14.9108 28.0884 15.0186C28.4263 15.9321 28.6291 16.9081 28.6791 17.9266C28.4624 18.1364 28.2205 18.3203 27.9401 18.4422C28.2194 18.562 28.4592 18.7445 28.6765 18.9528C28.6278 19.8501 28.461 20.7147 28.1853 21.5326C27.9045 21.6462 27.6107 21.7278 27.3039 21.7361C27.5206 21.9546 27.6758 22.2169 27.7999 22.4955C27.3819 23.4041 26.8272 24.236 26.1635 24.9679C25.8612 24.9624 25.56 24.9228 25.2745 24.8099C25.3876 25.0937 25.4272 25.393 25.4334 25.6949C24.764 26.2939 24.0137 26.799 23.1991 27.1967C22.919 27.0784 22.6534 26.9286 22.4313 26.7174C22.4313 27.0226 22.3552 27.3165 22.2489 27.5995C21.3706 27.9155 20.4395 28.11 19.4661 28.164C19.2592 27.9468 19.0767 27.7073 18.9555 27.4279C18.8343 27.7087 18.6496 27.9497 18.4399 28.1671C17.496 28.1213 16.5867 27.9443 15.732 27.6489C15.618 27.3667 15.5357 27.0728 15.5266 26.7647C15.3099 26.9799 15.0484 27.134 14.7734 27.2578C13.9073 26.851 13.1124 26.3238 12.4073 25.6925C12.4135 25.3914 12.4531 25.092 12.5662 24.8083C12.2805 24.9212 11.9797 24.961 11.6771 24.9664C11.074 24.2999 10.5624 23.5544 10.1592 22.742C10.2774 22.4655 10.4261 22.2016 10.6369 21.9782ZM32.8301 21.7932C33.1138 21.9017 33.4092 21.9771 33.7158 21.9782C33.5046 22.2016 33.3563 22.4655 33.2376 22.742C33.4565 23.1802 33.7002 23.6026 33.9784 24.0002C35.3119 23.3126 37.5947 21.6004 39.3994 20.2466C40.6648 19.2975 41.6953 18.5246 41.9988 18.4046C41.8797 18.705 41.1251 19.7243 40.1951 20.9807L40.195 20.9807L40.195 20.9807C38.8501 22.7975 37.1383 25.1097 36.4508 26.4603C36.8919 26.7647 37.3629 27.028 37.8518 27.2578C38.1279 27.134 38.389 26.9799 38.6055 26.7647C38.6139 27.0728 38.6969 27.3667 38.8112 27.6489C39.6653 27.9443 40.5746 28.1213 41.5192 28.1671C41.7286 27.9497 41.9128 27.7087 42.0339 27.4279C42.1551 27.7073 42.3374 27.9468 42.5444 28.164C43.5181 28.11 44.4485 27.9155 45.3269 27.5995C45.4354 27.3165 45.5105 27.0226 45.5105 26.7174C45.7335 26.9286 45.9985 27.0784 46.2767 27.1967C47.0924 26.799 47.8434 26.2939 48.5121 25.6949C48.5063 25.393 48.4676 25.0937 48.3532 24.8099C48.6388 24.9228 48.9398 24.9624 49.242 24.9679C49.9054 24.236 50.4612 23.4041 50.8794 22.4955C50.7555 22.2169 50.5997 21.9546 50.382 21.7361C50.6886 21.7278 50.9841 21.6462 51.2653 21.5326C51.5401 20.7147 51.7075 19.8501 51.7555 18.9528C51.5385 18.7445 51.2987 18.562 51.0183 18.4422C51.3002 18.3203 51.5414 18.1364 51.7584 17.9266C51.708 16.9081 51.5047 15.9321 51.1675 15.0186C50.8836 14.9108 50.5879 14.8346 50.2811 14.8332C50.4932 14.6111 50.641 14.347 50.7597 14.0684C50.3554 13.2567 49.8442 12.5104 49.2418 11.8443C48.938 11.8501 48.6373 11.8897 48.3531 12.0024C48.4645 11.7183 48.5047 11.4186 48.5105 11.1178C47.8053 10.4875 47.0114 9.95931 46.1446 9.55218C45.87 9.67705 45.6079 9.83117 45.3909 10.0464C45.3821 9.7383 45.3013 9.4444 45.1855 9.16142C44.3318 8.86607 43.4229 8.68904 42.4774 8.64378C42.2682 8.86043 42.0841 9.10162 41.9628 9.38315C41.8416 9.10271 41.6591 8.86316 41.4523 8.64633C40.4788 8.70104 39.547 8.89442 38.6697 9.21158C38.5626 9.49384 38.4872 9.78773 38.4872 10.0936C38.2642 9.88243 37.9988 9.73194 37.7195 9.61362C36.9052 10.012 36.1538 10.5173 35.4854 11.1163C35.4908 11.4175 35.5304 11.7169 35.6433 12.0013C35.3587 11.8884 35.0566 11.8486 34.7543 11.8428C34.0911 12.5745 33.5373 13.4062 33.1177 14.3156C33.242 14.5935 33.3977 14.8561 33.6144 15.0742C33.308 15.0825 33.0137 15.1642 32.7322 15.2785C32.4572 16.0956 32.2898 16.961 32.2416 17.8583C32.4586 18.0666 32.6984 18.249 32.9775 18.3688C32.6967 18.49 32.4557 18.674 32.2391 18.8837C32.2889 19.9043 32.4928 20.8803 32.8301 21.7932ZM55.8874 21.7332C55.5706 20.8563 55.3762 19.9241 55.3231 18.9513C55.5385 18.743 55.7797 18.5606 56.0572 18.4401C55.776 18.3188 55.535 18.1349 55.3173 17.9252C55.3647 16.9804 55.5401 16.0722 55.8358 15.217C56.1186 15.1016 56.4129 15.02 56.7208 15.0117C56.5045 14.7948 56.3516 14.5338 56.2269 14.2585C56.4572 13.7687 56.7193 13.2977 57.023 12.8575C58.3732 13.5447 60.6843 15.2552 62.5008 16.5998L62.5008 16.5998L62.5009 16.5998C63.7581 17.5304 64.7785 18.2856 65.0794 18.4048C64.9595 18.1017 64.1878 17.0729 63.2398 15.809L63.2395 15.8087L63.2392 15.8083L63.2391 15.8081L63.239 15.8079L63.2389 15.8078L63.2387 15.8076L63.2387 15.8075L63.2385 15.8073C61.8846 14.0023 60.1716 11.7185 59.4834 10.3842C59.8818 10.1063 60.3029 9.86262 60.7406 9.64451C61.0189 9.76283 61.2824 9.91078 61.5039 10.1223C61.5067 9.81536 61.5817 9.51965 61.6902 9.2363C62.6045 8.89751 63.5805 8.69449 64.6001 8.6456C64.8106 8.86189 64.9958 9.10289 65.1159 9.38443C65.2353 9.10453 65.4194 8.8648 65.627 8.64815C66.5243 8.69704 67.3896 8.86334 68.2061 9.1387C68.3204 9.42023 68.4013 9.71412 68.4093 10.0207C68.6292 9.80409 68.8916 9.64851 69.1704 9.52474C70.0787 9.94277 70.9107 10.4971 71.6419 11.1605C71.6368 11.4635 71.5974 11.7643 71.4831 12.0495C71.7679 11.9371 72.0689 11.8968 72.3695 11.891C72.9691 12.5607 73.4731 13.311 73.8715 14.1256C73.7519 14.4057 73.6027 14.6712 73.3922 14.8933C73.6959 14.8933 73.9916 14.9691 74.2728 15.0758C74.5903 15.9537 74.7841 16.8852 74.8388 17.8586C74.6217 18.0655 74.3811 18.2479 74.103 18.3692C74.3828 18.4904 74.6237 18.6743 74.8415 18.8841C74.7957 19.8287 74.6185 20.7376 74.3228 21.5927C74.0416 21.7074 73.7461 21.789 73.4395 21.7974C73.6543 22.0148 73.8073 22.2752 73.9325 22.5513C73.5261 23.4172 72.9982 24.2123 72.3666 24.9166C72.0658 24.9106 71.7666 24.871 71.4831 24.7581C71.5945 25.044 71.6354 25.3448 71.6412 25.6475C70.9762 26.2505 70.2295 26.7611 69.4153 27.1655C69.1401 27.0471 68.8749 26.8985 68.6535 26.6876C68.6521 26.9939 68.577 27.2896 68.4685 27.5737C67.5545 27.9115 66.5785 28.1146 65.5601 28.164C65.3496 27.947 65.1661 27.7064 65.0443 27.4255C64.9249 27.7047 64.7421 27.9444 64.5332 28.1611C63.6359 28.1131 62.772 27.9459 61.9542 27.6705C61.8396 27.389 61.7589 27.0958 61.7495 26.7885C61.5318 27.0059 61.2702 27.1613 60.9912 27.2852C60.0828 26.8656 59.2497 26.3121 58.519 25.6485C58.5248 25.3463 58.5643 25.0455 58.6772 24.7596C58.3923 24.8726 58.093 24.9123 57.7922 24.9181C57.1928 24.2491 56.6886 23.4988 56.2902 22.6834C56.4083 22.4041 56.5576 22.1387 56.7695 21.9157C56.4643 21.9157 56.1701 21.8407 55.8874 21.7332ZM10.6369 44.8083C10.4261 45.0314 10.2774 45.2951 10.1592 45.5717C10.5624 46.383 11.074 47.1297 11.6771 47.796C11.9797 47.7904 12.2805 47.7495 12.5662 47.6366C12.4531 47.9212 12.4135 48.2207 12.4073 48.5216C13.1124 49.153 13.9073 49.6795 14.7734 50.0866C15.0484 49.9636 15.3099 49.8093 15.5266 49.5928C15.5357 49.9023 15.618 50.1951 15.732 50.4778C16.5867 50.7735 17.496 50.9505 18.4399 50.9965C18.6496 50.7787 18.8343 50.5375 18.9555 50.2564C19.0767 50.5361 19.2592 50.7764 19.4661 50.9921C20.4395 50.939 21.3706 50.7446 22.2489 50.429C22.3552 50.145 22.4313 49.8522 22.4313 49.5455C22.6534 49.7575 22.919 49.9083 23.1991 50.0248C24.0137 49.6279 24.764 49.1224 25.4334 48.523C25.4272 48.2222 25.3876 47.9227 25.2745 47.6395C25.56 47.7509 25.8612 47.7918 26.1635 47.7967C26.8272 47.0655 27.3819 46.2324 27.7999 45.3242C27.6758 45.0452 27.5206 44.7836 27.3039 44.5659C27.6107 44.5579 27.9045 44.4756 28.1853 44.3612C28.461 43.5434 28.6278 42.6795 28.6765 41.7822C28.4592 41.5732 28.2194 41.3918 27.9401 41.2714C28.2205 41.1495 28.4624 40.9656 28.6791 40.7558C28.6291 39.7373 28.4263 38.7611 28.0884 37.8478C27.804 37.7396 27.5093 37.6638 27.2024 37.6624C27.4132 37.4394 27.5619 37.1762 27.6802 36.8972C27.4621 36.4599 27.2183 36.0372 26.9394 35.6389C25.6055 36.3269 23.3215 38.0403 21.5165 39.3943C20.2522 40.3428 19.2229 41.1149 18.9197 41.2349C19.0386 40.9347 19.7936 39.9146 20.7241 38.6575L20.7241 38.6575L20.7242 38.6574C22.0688 36.8408 23.7797 34.5292 24.467 33.1793C24.026 32.8752 23.5558 32.6126 23.066 32.3828C22.7907 32.5073 22.5297 32.6615 22.3128 32.8767C22.3038 32.569 22.2229 32.2747 22.1075 31.9921C21.2523 31.6964 20.3434 31.5197 19.3995 31.4743C19.1898 31.6909 19.0051 31.9321 18.8839 32.2134C18.7627 31.9334 18.5802 31.6938 18.3734 31.477C17.3999 31.5313 16.4684 31.7251 15.5913 32.0419C15.4839 32.3241 15.4081 32.6184 15.4081 32.9239C15.1856 32.7131 14.9201 32.5622 14.6407 32.4439C13.8257 32.8427 13.0755 33.3474 12.4057 33.947C12.4122 34.2478 12.4519 34.5475 12.5645 34.8316C12.279 34.7187 11.9782 34.6791 11.676 34.6736C11.0126 35.4052 10.4586 36.2371 10.0393 37.146C10.1632 37.4243 10.3186 37.6869 10.536 37.905C10.2287 37.9134 9.93477 37.9946 9.65396 38.109C9.37861 38.9268 9.2114 39.7914 9.16269 40.6887C9.38006 40.897 9.6198 41.0795 9.89915 41.1993C9.61834 41.3205 9.37716 41.5046 9.16014 41.7149C9.21013 42.7333 9.41296 43.71 9.75084 44.6219C10.0349 44.7304 10.3303 44.8054 10.6369 44.8083ZM33.2393 45.5717C33.3574 45.2951 33.5061 45.0314 33.7169 44.8083C33.4092 44.8054 33.1138 44.7304 32.8314 44.6221C32.4926 43.7078 32.29 42.7326 32.2407 41.7122C32.4572 41.5032 32.6984 41.3196 32.9795 41.1984C32.6995 41.0784 32.4597 40.8956 32.2431 40.6873C32.2911 39.79 32.4586 38.9248 32.7336 38.1075C33.0152 37.9935 33.3089 37.9119 33.6157 37.9036C33.399 37.6855 33.2433 37.4228 33.1189 37.1446C33.5386 36.2356 34.0926 35.4037 34.7556 34.6722C35.0579 34.6778 35.3594 34.7178 35.6446 34.8303C35.5317 34.5462 35.4919 34.2465 35.4864 33.9457C36.1551 33.3467 36.9061 32.8416 37.7207 32.4428C38.0001 32.5615 38.2656 32.712 38.4885 32.9232C38.4885 32.6171 38.5639 32.323 38.6709 32.0411C39.5492 31.7238 40.4803 31.5301 41.4537 31.4759C41.6606 31.6925 41.8431 31.9321 41.9643 32.2122C42.0857 31.9308 42.2696 31.6896 42.479 31.473C43.4229 31.5184 44.3318 31.6955 45.1869 31.9908C45.3027 32.2734 45.3851 32.5677 45.3938 32.8754C45.6095 32.6602 45.8701 32.5064 46.1462 32.3816C47.0125 32.7883 47.8069 33.3165 48.5121 33.9472C48.5063 34.248 48.4676 34.5479 48.3532 34.8318C48.639 34.7189 48.9398 34.6793 49.242 34.6738C49.8473 35.3398 50.3569 36.086 50.7613 36.8974C50.6424 37.1764 50.4932 37.4405 50.2827 37.6626C50.5892 37.664 50.8849 37.7398 51.1675 37.848C51.5077 38.7613 51.7095 39.7375 51.7584 40.756C51.5428 40.9657 51.3018 41.1497 51.0199 41.2716C51.3002 41.3919 51.5399 41.5733 51.7555 41.7823C51.7082 42.6797 51.5416 43.5435 51.2653 44.3614C50.9841 44.4757 50.6915 44.5581 50.3847 44.5661C50.601 44.7838 50.7567 45.0454 50.8807 45.3243C50.4625 46.2326 49.9081 47.0657 49.2447 47.7969C48.941 47.792 48.6401 47.7511 48.3562 47.6397C48.4674 47.9229 48.5076 48.2224 48.5134 48.5232C47.8447 49.1226 47.0932 49.6281 46.2795 50.025C45.9999 49.9085 45.7335 49.7576 45.5105 49.5457C45.5105 49.8523 45.4354 50.1451 45.3298 50.4292C44.4514 50.7447 43.5192 50.9392 42.5461 50.9923C42.3392 50.7766 42.1568 50.5363 42.0355 50.2566C41.9143 50.5377 41.7304 50.7789 41.5206 50.9967C40.5761 50.9507 39.6678 50.7736 38.8127 50.4779C38.6987 50.1953 38.6157 49.9025 38.6073 49.593C38.3905 49.8094 38.1295 49.9638 37.8541 50.0868C37.3643 49.8582 36.8934 49.593 36.4525 49.2893C37.1399 47.9387 38.8514 45.6267 40.1962 43.8101L40.1963 43.81L40.1963 43.8099L40.1964 43.8098L40.1965 43.8098L40.1966 43.8097C41.1266 42.5534 41.8812 41.5341 42.0003 41.2336C41.6973 41.3538 40.6698 42.1245 39.4072 43.0714C37.6016 44.4258 35.3151 46.1408 33.9799 46.8289C33.7016 46.4318 33.4581 46.0094 33.2393 45.5717ZM55.3231 41.7805C55.3762 42.7529 55.5706 43.6851 55.8874 44.5628C56.1701 44.6693 56.4643 44.7442 56.7695 44.7442C56.5576 44.9672 56.4083 45.2329 56.2902 45.5134C56.6886 46.3269 57.1928 47.0777 57.7922 47.7473C58.093 47.7415 58.3923 47.7006 58.6772 47.5892C58.5643 47.874 58.5248 48.1748 58.519 48.4787C59.2497 49.1421 60.0828 49.6948 60.9912 50.1144C61.2702 49.9905 61.5318 49.8354 61.7495 49.6184C61.7589 49.925 61.8396 50.2171 61.9542 50.499C62.772 50.7751 63.6359 50.942 64.5332 50.9892C64.7421 50.7735 64.9249 50.5339 65.0443 50.2535C65.1661 50.5354 65.3497 50.7764 65.5601 50.9919C66.5785 50.943 67.5545 50.7413 68.4685 50.4027C68.577 50.1188 68.6521 49.8231 68.6535 49.5163C68.8749 49.7268 69.1401 49.876 69.4153 49.9941C70.2295 49.5906 70.9762 49.0801 71.6412 48.4756C71.6354 48.1748 71.5945 47.874 71.4831 47.587C71.7666 47.7006 72.0658 47.7398 72.3666 47.7457C72.9982 47.0406 73.5262 46.246 73.9325 45.3792C73.8073 45.1039 73.6543 44.8447 73.4395 44.6268C73.7461 44.6186 74.0416 44.5364 74.3228 44.4205C74.6185 43.5663 74.7957 42.6564 74.8415 41.7118C74.6238 41.5028 74.3828 41.3192 74.103 41.198C74.3811 41.0768 74.6218 40.8939 74.8388 40.6869C74.7841 39.7138 74.5903 38.7823 74.2728 37.9047C73.9916 37.798 73.6959 37.7218 73.3922 37.7218C73.6027 37.4997 73.7519 37.2342 73.8715 36.9541C73.4731 36.1398 72.9691 35.3898 72.3695 34.72C72.0689 34.7254 71.7679 34.7658 71.4831 34.8781C71.5974 34.5933 71.6368 34.2921 71.6419 33.9892C70.9107 33.326 70.0787 32.7712 69.1705 32.3534C68.8916 32.4775 68.6292 32.6331 68.4093 32.8498C68.4013 32.5431 68.3204 32.2493 68.2061 31.9677C67.3896 31.6924 66.5243 31.5259 65.627 31.4772C65.4194 31.6938 65.2353 31.9335 65.1159 32.2136C64.9958 31.9321 64.8106 31.6911 64.6001 31.4744C63.5825 31.5246 62.6059 31.7267 61.6933 32.0651C61.5846 32.3489 61.5098 32.6442 61.5069 32.9515C61.2855 32.7394 61.0218 32.592 60.7451 32.4737C60.3058 32.6915 59.8849 32.9356 59.4865 33.2133C60.1749 34.5481 61.8891 36.8334 63.2432 38.6387C64.1911 39.9022 64.9625 40.9307 65.0825 41.2336C64.7815 41.1145 63.761 40.3591 62.5036 39.4284L62.5034 39.4283L62.5034 39.4283L62.5033 39.4282C60.6869 38.0838 58.3762 36.3735 57.0261 35.6864C56.7224 36.1269 56.4601 36.5979 56.23 37.0877C56.3545 37.3627 56.5074 37.6242 56.7231 37.8409C56.4158 37.8492 56.1214 37.9305 55.8389 38.0462C55.5432 38.901 55.3676 39.8096 55.3202 40.7544C55.5372 40.9641 55.7798 41.148 56.0601 41.2693C55.7797 41.3887 55.5385 41.573 55.3231 41.7805ZM17.0822 57.878H16.2803V55.8496C16.2803 55.2589 15.801 54.7797 15.21 54.7797C14.6193 54.7797 14.14 55.2589 14.14 55.8496V57.878H13.3381C11.6089 57.878 10.2018 59.2853 10.2018 61.0159C10.2018 62.7444 11.6089 64.1501 13.3381 64.1501H14.14V76.5191C14.14 77.1098 14.6193 77.589 15.21 77.589C15.801 77.589 16.2803 77.1098 16.2803 76.5191V64.1501H17.0822C18.8114 64.1501 20.2178 62.7444 20.2178 61.0159C20.2178 59.2853 18.8114 57.878 17.0822 57.878ZM17.0822 62.0092H16.2803H14.14H13.3381C12.7887 62.0092 12.3417 61.565 12.3417 61.0158C12.3417 60.466 12.7885 60.0187 13.3381 60.0187H14.14H16.2803H17.0822C17.6311 60.0187 18.0775 60.466 18.0775 61.0158C18.0775 61.565 17.6296 62.0092 17.0822 62.0092ZM27.8376 67.9483V55.8496C27.8376 55.2589 28.3169 54.7797 28.9079 54.7797C29.4979 54.7797 29.9779 55.2589 29.9779 55.8496V67.9483H30.7798C32.509 67.9483 33.9157 69.3542 33.9157 71.0847C33.9157 72.8139 32.509 74.2195 30.7798 74.2195H29.9779V76.5176C29.9779 77.1083 29.4979 77.5876 28.9079 77.5876C28.3169 77.5876 27.8376 77.1083 27.8376 76.5176V74.2195H27.0357C25.3058 74.2195 23.8994 72.8139 23.8994 71.0847C23.8994 69.354 25.3058 67.9483 27.0357 67.9483H27.8376ZM30.7798 72.0798C31.3287 72.0798 31.7754 71.6352 31.7754 71.0847C31.7754 70.5354 31.3287 70.0898 30.7798 70.0898H29.9779H27.8376H27.0357C26.4862 70.0898 26.0397 70.5356 26.0397 71.0847C26.0397 71.6354 26.4862 72.0798 27.0357 72.0798H27.8376H29.9779H30.7798ZM43.8258 54.7797H41.9539H40.0821C38.353 54.7797 36.9461 56.1868 36.9461 57.9174C36.9461 59.6452 38.353 61.0508 40.0821 61.0508H40.8841V76.5189C40.8841 77.1096 41.3641 77.5889 41.9541 77.5889C42.5448 77.5889 43.0248 77.1096 43.0248 76.5189V61.0521H43.826C45.5552 61.0521 46.963 59.6477 46.963 57.9172C46.9628 56.1882 45.555 54.7797 43.8258 54.7797ZM43.8258 58.9123H43.0246H40.8841H40.0821C39.5332 58.9123 39.0864 58.4665 39.0864 57.9172C39.0864 57.368 39.5332 56.9223 40.0821 56.9223H40.8841H43.0246H43.8258C44.3763 56.9223 44.8222 57.368 44.8222 57.9172C44.8222 58.4665 44.3763 58.9123 43.8258 58.9123ZM53.2886 67.0036C51.5608 67.0036 50.153 65.5981 50.153 63.8696C50.153 62.139 51.561 60.7317 53.2886 60.7317H54.0912V55.8496C54.0912 55.2589 54.5706 54.7797 55.1613 54.7797C55.752 54.7797 56.2313 55.2589 56.2313 55.8496V60.7317H57.0339C58.7617 60.7317 60.1688 62.1392 60.1688 63.8696C60.1688 65.5981 58.7617 67.0036 57.0339 67.0036H56.2313V76.5191C56.2313 77.1098 55.752 77.589 55.1613 77.589C54.5706 77.589 54.0912 77.1098 54.0912 76.5191V67.0036H53.2886ZM54.0912 62.8724H53.2886C52.7395 62.8724 52.2938 63.3195 52.2936 63.8695C52.2936 64.4187 52.7395 64.8629 53.2886 64.8629H54.0912H56.2311H57.0337C57.583 64.8629 58.0287 64.4185 58.0287 63.8695C58.0287 63.3195 57.5828 62.8724 57.0337 62.8724H56.2311H54.0912ZM70.7306 67.9498H69.928V55.8524C69.928 55.2617 69.4487 54.7824 68.858 54.7824C68.2673 54.7824 67.788 55.2617 67.788 55.8524V67.9498H66.9869C65.2577 67.9498 63.8506 69.3569 63.8506 71.0847C63.8506 72.8151 65.2577 74.2195 66.9869 74.2195H67.788V76.5189C67.788 77.1096 68.2673 77.5889 68.858 77.5889C69.4487 77.5889 69.928 77.1096 69.928 76.5189V74.2195H70.7306C72.4598 74.2195 73.8662 72.8151 73.8662 71.0847C73.8662 69.3569 72.4598 67.9498 70.7306 67.9498ZM70.7306 72.0798H69.928H67.7882H66.9871C66.4363 72.0798 65.9907 71.6354 65.9907 71.0847C65.9907 70.5356 66.4363 70.0898 66.9871 70.0898H67.7882H69.928H70.7306C71.2797 70.0898 71.7257 70.5354 71.7257 71.0847C71.7257 71.6352 71.2799 72.0798 70.7306 72.0798Z" fill="white"/>
</svg>
