<?xml version="1.0" encoding="UTF-8"?>
<svg width="71px" height="56px" viewBox="0 0 71 56" version="1.1" xmlns="http://www.w3.org/2000/svg" xmlns:xlink="http://www.w3.org/1999/xlink">
    <title>photo-camera-5</title>
    <g id="Page-1" stroke="none" stroke-width="1" fill="none" fill-rule="evenodd">
        <g id="Group-38" transform="translate(-2289.000000, -170.000000)" fill="#ffffff" fill-rule="nonzero">
            <g id="photo-camera-5" transform="translate(2289.000000, 170.000000)">
                <path d="M29.579,17.365 C21.738,17.365 15.354,23.746 15.354,31.588 C15.354,39.433 21.735,45.817 29.579,45.817 C37.428,45.817 43.803,39.436 43.803,31.588 C43.803,23.747 37.423,17.365 29.579,17.365 Z M36.724,40.232 C37.934,38.305 38.664,36.043 38.664,33.597 C38.664,26.679 33.054,21.074 26.133,21.074 C25.883,21.074 25.645,21.132 25.402,21.148 C26.701,20.63 28.103,20.327 29.581,20.327 C35.804,20.327 40.845,25.367 40.845,31.588 C40.84,35.082 39.219,38.164 36.724,40.232 Z" id="Shape"></path>
                <path d="M58.519,5.188 L40.165,5.188 L40.165,4.73 C40.165,2.314 38.596,0.355 36.666,0.361981299 L22.464,0.392 C20.534,0.394 18.969,2.361 18.979,4.776 L18.979,5.187 L11.556,5.187 C5.176,5.188 0,10.726 0,17.559 L0,43.337 C0,50.172 5.176,55.71 11.556,55.71 L58.519,55.71 C64.899,55.71 70.073,50.169 70.073,43.337 L70.073,17.562 C70.072,10.726 64.898,5.188 58.519,5.188 Z M29.579,49.259 C19.834,49.259 11.911,41.33 11.911,31.588 C11.911,21.845 19.839,13.92 29.579,13.92 C39.319,13.92 47.255,21.846 47.255,31.588 C47.25,41.33 39.323,49.259 29.579,49.259 Z" id="Shape"></path>
            </g>
        </g>
    </g>
</svg>