<?xml version="1.0" encoding="UTF-8"?>
<svg width="98px" height="98px" viewBox="0 0 98 98" version="1.1" xmlns="http://www.w3.org/2000/svg" xmlns:xlink="http://www.w3.org/1999/xlink">
    <title>trust-building</title>
    <defs>
        <radialGradient cx="98.0933134%" cy="100%" fx="98.0933134%" fy="100%" r="110.469721%" id="radialGradient-1">
            <stop stop-color="#C24074" offset="0%"></stop>
            <stop stop-color="#322C61" offset="100%"></stop>
        </radialGradient>
    </defs>
    <g id="Page-1" stroke="none" stroke-width="1" fill="none" fill-rule="evenodd">
        <g id="Home-v1" transform="translate(-285.000000, -2211.000000)">
            <g id="Group-24" transform="translate(167.000000, 1973.000000)">
                <g id="trust-building" transform="translate(118.000000, 238.000000)">
                    <path d="M49,98 C49,58.9814815 98,76.0619527 98,49 C98,21.9380473 76.0619527,0 49,0 C21.9380473,0 0,21.9380473 0,49 C0,76.0619527 21.9380473,98 49,98 Z" id="Mask" fill="url(#radialGradient-1)"></path>
                    <path d="M62.5005855,27.2558472 C62.0052324,26.3981291 61.2080338,25.7854733 60.2559728,25.5305673 C59.3042871,25.2755675 58.3074839,25.4080361 57.4491283,25.903317 C56.5909603,26.3985041 55.9777955,27.195191 55.7229433,28.1464715 L53.1391531,37.7843392 L51.8791496,28.2168777 C51.612854,26.1947855 49.7500037,24.7660366 47.7261941,25.0318176 C45.7027597,25.2982549 44.2734489,27.1601285 44.5399322,29.1822207 L45.4959327,36.441934 C45.1001004,36.2971841 44.6731269,36.2181529 44.2276749,36.2181529 C42.8851283,36.2181529 41.7073867,36.9365586 41.058672,38.0088703 C40.4179303,37.4786207 39.5962501,37.1594022 38.7013128,37.1594022 C36.6604318,37.1594022 35,38.8189634 35,40.8587744 L35,44.0846157 C35,44.0858344 35,44.0869594 35,44.0882719 L35,46.935176 C35,46.9364885 35,46.9376135 35,46.9388323 C35,46.941176 35,46.9436135 35,46.946051 L35,53.3866711 C35,56.9714809 36.5467473,60.3199471 39.0996776,62.6670703 L39.0996776,72.0625007 C39.0996776,72.5801878 39.5196163,73 40.0376687,73 L53.2166311,73 C53.7345898,73 54.1546222,72.5801878 54.1546222,72.0625007 L54.1546222,64.1546942 C57.9137153,61.8712272 60.2271765,57.7966678 60.2271765,53.3868586 L60.2271765,46.7554574 C60.2271765,45.7183957 59.797389,44.7804277 59.1074027,44.1080532 L62.872968,30.0615013 C63.1282891,29.109752 62.9960324,28.1133778 62.5005855,27.2558472 Z M47.970916,26.8908787 C48.9694075,26.7589726 49.8878883,27.4642533 50.0192071,28.461565 L51.8866536,42.641148 L51.8866536,43.0560852 L49.7544122,43.0560852 C49.0910649,43.0560852 48.4683326,43.2323351 47.9292692,43.5390848 L47.9292692,39.9174313 C47.9292692,39.4340567 47.835001,38.9725258 47.6655999,38.5488699 L46.3999685,28.9375334 C46.2684621,27.9403154 46.9733624,27.0221286 47.970916,26.8908787 Z M42.4029071,44.5423028 L42.4029071,40.8588681 L42.4029071,39.9174313 C42.4029071,38.9115884 43.2216795,38.0932452 44.2279563,38.0932452 C44.9730026,38.0932452 45.6142133,38.5422136 45.8976743,39.1831819 C45.9007696,39.1901194 45.9042402,39.1968694 45.9075232,39.2038069 C46.0011347,39.4231817 46.053287,39.6643065 46.053287,39.9174313 L46.053287,49.5767678 C46.053287,50.582517 45.2345146,51.4006726 44.2279563,51.4006726 L44.2277687,51.4006726 C43.2215857,51.4006726 42.4029071,50.5824233 42.4029071,49.5767678 L42.4029071,44.5423028 L42.4029071,44.5423028 Z M36.876076,44.0810532 L36.876076,40.8588681 C36.876076,39.8528376 37.6949422,39.0344945 38.7015942,39.0344945 C39.7080587,39.0344945 40.5269249,39.8529314 40.5269249,40.8588681 L40.5269249,44.5423028 L40.5269249,46.938926 C40.5269249,47.9448628 39.7080587,48.7632059 38.7014066,48.7632059 C37.6961616,48.7632059 36.8782334,47.9467378 36.8762636,46.9425823 L36.8762636,44.0847094 C36.8762636,44.0834907 36.876076,44.0823657 36.876076,44.0810532 Z M58.3512881,53.3866711 C58.3512881,57.2972619 56.2135126,60.8995092 52.7718357,62.790164 C52.7425704,62.805914 52.7144307,62.8233515 52.6871351,62.8421015 C52.6766296,62.8493202 52.6668745,62.8572889 52.6567442,62.8647889 C52.642862,62.8751014 52.6288859,62.8852264 52.6156602,62.8962889 C52.6015904,62.9080077 52.5884585,62.9206639 52.5750452,62.9331326 C52.5666033,62.9411014 52.5577862,62.9487889 52.5496257,62.9570389 C52.5357434,62.9711014 52.5228929,62.9859138 52.5099486,63.0007263 C52.5030075,63.0086951 52.495785,63.0163826 52.4891252,63.0245388 C52.4772127,63.0391638 52.4662382,63.0543513 52.4553575,63.0696325 C52.4485102,63.0792888 52.4413815,63.08857 52.4347217,63.0985075 C52.4254356,63.11257 52.4170875,63.1270075 52.4086456,63.141445 C52.4016107,63.1535387 52.3942943,63.1653512 52.3876346,63.17782 C52.3808811,63.1907574 52.3747841,63.2040699 52.3685934,63.2173824 C52.3618398,63.2317262 52.3548049,63.2461636 52.3488018,63.2609761 C52.3436428,63.2735386 52.3393281,63.2863824 52.3348257,63.2991324 C52.3291977,63.3148823 52.3233822,63.3304448 52.3185046,63.3465698 C52.3141899,63.3609136 52.3109069,63.3757261 52.3072488,63.390351 C52.3036844,63.4047885 52.2997448,63.4191323 52.2968371,63.433851 C52.2926161,63.4547572 52.2898959,63.4757572 52.2871757,63.4969447 C52.2860502,63.5056635 52.2844556,63.5141947 52.2836114,63.5228197 C52.280047,63.5575072 52.2784524,63.5924759 52.2789214,63.6275384 L52.2789214,71.1252827 L40.9757536,71.1252827 L40.9757536,69.4626277 L44.8453421,69.4626277 C45.3633945,69.4626277 45.7833331,69.0428155 45.7833331,68.5251284 C45.7833331,68.0074413 45.3633945,67.5876291 44.8453421,67.5876291 L40.9757536,67.5876291 L40.9757536,64.0937568 C41.7038223,64.5471314 42.4834805,64.9319749 43.3094754,65.2338496 C43.4158436,65.2726621 43.5245568,65.2911308 43.6315816,65.2911308 C44.0141882,65.2911308 44.3735325,65.0553498 44.5126366,64.6753813 C44.6905735,64.1891004 44.4403175,63.6506946 43.9538753,63.4729447 C39.7205339,61.9256022 36.8763574,57.872324 36.8763574,53.3868586 L36.8763574,50.1552048 C37.4155146,50.4619546 38.0382469,50.6382045 38.701688,50.6382045 C39.3823882,50.6382045 40.0201283,50.4527671 40.5686655,50.1311111 C40.8301774,51.862391 42.2967265,53.2032963 44.0839747,53.272015 C43.9301442,53.5150148 43.7845679,53.7648583 43.65006,54.0232331 C43.4109661,54.482514 43.5897472,55.0486699 44.0493628,55.2874509 C44.1877165,55.3593571 44.3356377,55.3934821 44.4814015,55.3934821 C44.8200163,55.3934821 45.1472814,55.2095447 45.3143376,54.8883575 C46.7376453,52.1535783 49.5378301,50.4547359 52.6222262,50.4547359 L53.7628233,50.4547359 C54.2808758,50.4547359 54.7008144,50.0350174 54.7008144,49.5172366 C54.7008144,48.9995495 54.2808758,48.5797373 53.7628233,48.5797373 L49.7544122,48.5797373 C48.7480416,48.5797373 47.9292692,47.7613004 47.9292692,46.7553637 C47.9292692,45.7494269 48.7481354,44.93099 49.7544122,44.93099 L56.5259575,44.93099 C56.8918678,44.93099 57.2322648,45.0402087 57.5182582,45.2262086 C57.5312963,45.2351148 57.5443344,45.2438336 57.5579353,45.2519898 C58.0365921,45.5812396 58.3512881,46.1320204 58.3512881,46.7552699 L58.3512881,53.3866711 L58.3512881,53.3866711 Z M61.0610506,29.5760642 L57.4180808,43.1653039 C57.1321811,43.0942414 56.8335247,43.0559915 56.5259575,43.0559915 L53.7626357,43.0559915 L53.7626357,42.7029292 L57.5351421,28.6315337 C57.6603639,28.1640965 57.9629598,27.7717531 58.3872132,27.526972 C58.8114666,27.2822847 59.3026925,27.2163785 59.7705624,27.3415346 C60.2385262,27.4668783 60.6310755,27.7693156 60.8758911,28.193159 C61.1208006,28.6171899 61.1865538,29.108252 61.0610506,29.5760642 Z" id="Shape" fill="#FFFFFF" fill-rule="nonzero"></path>
                </g>
            </g>
        </g>
    </g>
</svg>