<?xml version="1.0" encoding="UTF-8"?>
<svg width="36px" height="29px" viewBox="0 0 36 29" version="1.1" xmlns="http://www.w3.org/2000/svg" xmlns:xlink="http://www.w3.org/1999/xlink">
    <title>twitter</title>
    <g id="Page-1" stroke="none" stroke-width="1" fill="none" fill-rule="evenodd">
        <g id="footer" transform="translate(-847.000000, -522.000000)" fill="#11243B" fill-rule="nonzero">
            <g id="Group" transform="translate(0.000000, 42.777778)">
                <path d="M878.738156,486.397082 C878.751816,486.700173 878.75841,487.004674 878.75841,487.310585 C878.75841,496.650967 871.631871,507.421752 858.599207,507.422222 L858.599678,507.422222 L858.599207,507.422222 C854.597888,507.422222 850.874472,506.252149 847.738889,504.247047 C848.29328,504.312364 848.857562,504.344788 849.42891,504.344788 C852.748662,504.344788 855.803701,503.215127 858.228985,501.319044 C855.127315,501.261715 852.51221,499.21808 851.609735,496.409434 C852.04166,496.492138 852.485833,496.537249 852.941309,496.537249 C853.58802,496.537249 854.214478,496.450316 854.809847,496.288197 C851.567814,495.640663 849.125573,492.782206 849.125573,489.359389 C849.125573,489.327435 849.125573,489.29877 849.126515,489.269166 C850.081273,489.798754 851.173099,490.117352 852.335577,490.153065 C850.433126,488.88666 849.182566,486.721789 849.182566,484.269334 C849.182566,482.974265 849.533477,481.760959 850.142035,480.716352 C853.636065,484.993464 858.857797,487.806339 864.746494,488.101912 C864.624971,487.584072 864.562325,487.044617 864.562325,486.490124 C864.562325,482.587999 867.73559,479.422222 871.648357,479.422222 C873.686462,479.422222 875.52721,480.281686 876.820161,481.6557 C878.434348,481.338041 879.950092,480.749715 881.319348,479.940062 C880.78945,481.589913 879.666537,482.974265 878.203548,483.849705 C879.636863,483.678658 881.002822,483.299442 882.272222,482.736491 C881.324058,484.154206 880.121543,485.399465 878.738156,486.397082 Z" id="twitter"></path>
            </g>
        </g>
    </g>
</svg>