<?xml version="1.0" encoding="UTF-8"?>
<svg width="252px" height="252px" viewBox="0 0 252 252" version="1.1" xmlns="http://www.w3.org/2000/svg" xmlns:xlink="http://www.w3.org/1999/xlink">
    <title>Group 56</title>
    <defs>
        <radialGradient cx="98.0933134%" cy="100%" fx="98.0933134%" fy="100%" r="110.469721%" id="radialGradient-1">
            <stop stop-color="#C24074" offset="0%"></stop>
            <stop stop-color="#322C61" offset="100%"></stop>
        </radialGradient>
        <radialGradient cx="98.0933134%" cy="100%" fx="98.0933134%" fy="100%" r="131.683612%" gradientTransform="translate(0.980933,1.000000),scale(1.000000,0.834298),rotate(-99.160597),translate(-0.980933,-1.000000)" id="radialGradient-2">
            <stop stop-color="#C24074" offset="0%"></stop>
            <stop stop-color="#322C61" offset="100%"></stop>
        </radialGradient>
    </defs>
    <g id="Page-1" stroke="none" stroke-width="1" fill="none" fill-rule="evenodd">
        <g id="Group-51" transform="translate(-224.000000, -33.000000)">
            <g id="Group-56" transform="translate(226.000000, 35.000000)">
                <path d="M124,248 C192.483309,248 248,192.483309 248,124 C248,55.516691 192.483309,0 124,0 C55.516691,0 0,55.516691 0,124 C0,192.483309 55.516691,248 124,248 Z" id="Oval" stroke="url(#radialGradient-1)" stroke-width="3" fill="#FFFFFF" stroke-dasharray="300"></path>
                <path d="M93.778125,121.194922 C95.3460936,121.194922 96.8636718,121.838281 99.7886718,123.744922 C101.617969,124.936719 103.727344,126.296094 106.058203,127.785547 C108.067969,129.067578 110.79375,130.26875 114.157031,131.355078 C117.445313,132.417969 120.779297,132.957031 124.071094,132.957031 C127.362891,132.957031 130.698047,132.417969 133.982813,131.355078 C137.349609,130.267578 140.075391,129.066406 142.0875,127.784375 C144.440625,126.280859 146.548828,124.921484 148.351172,123.746094 C151.279688,121.839453 152.796094,121.196094 154.364063,121.196094 C158.356641,121.196094 162.089063,121.871094 165.457031,123.203516 C168.836719,124.542969 171.759375,126.379297 174.146484,128.663281 C176.429297,130.846484 178.463672,133.499609 180.195703,136.546484 C181.864453,139.482031 183.214453,142.545313 184.207031,145.647266 C185.167969,148.648438 185.970703,151.932031 186.594141,155.405469 C187.211719,158.853125 187.63125,162.117969 187.838672,165.110938 C188.04375,168.035938 188.149219,171.088672 188.149219,174.183594 C188.149219,182.205078 185.600391,188.697266 180.573047,193.480859 C175.607813,198.205859 169.041797,200.601172 161.054297,200.601172 L161.054297,200.601172 L87.0949218,200.601172 C79.1074218,200.601172 72.5390625,198.204688 67.575,193.480859 C62.5488282,188.69375 60,182.202734 60,174.184766 C60,171.103906 60.103125,168.053516 60.3070314,165.114453 C60.5144532,162.114453 60.9339843,158.848438 61.5515625,155.405469 C62.175,151.932031 62.9777343,148.649609 63.9375,145.648438 C64.93125,142.544141 66.28125,139.482031 67.9488282,136.546484 C69.6785157,133.500781 71.7140625,130.848828 73.9957032,128.664453 C76.3851564,126.378125 79.3089843,124.541797 82.6863282,123.204688 C86.053125,121.871094 89.784375,121.194922 93.778125,121.194922 Z M123.105469,47 C133.269141,47 142.069922,50.6457032 149.262891,57.8363282 C156.455859,65.0304686 160.101563,73.83125 160.101563,83.99375 C160.101563,94.1597657 156.455859,102.959375 149.264063,110.151172 C142.072266,117.344141 133.270313,120.989844 123.105469,120.989844 C112.942969,120.989844 104.142188,117.342969 96.9492186,110.152344 C89.75625,102.960547 86.109375,94.1597657 86.109375,83.99375 C86.109375,73.8300782 89.75625,65.0292968 96.9480468,57.8375 C104.139844,50.6457032 112.939453,47 123.105469,47 Z" id="Combined-Shape" fill="url(#radialGradient-2)" fill-rule="nonzero" opacity="0.15906343"></path>
            </g>
        </g>
    </g>
</svg>