<?xml version="1.0" encoding="UTF-8"?>
<svg width="27px" height="25px" viewBox="0 0 27 25" version="1.1" xmlns="http://www.w3.org/2000/svg" xmlns:xlink="http://www.w3.org/1999/xlink">
    <title>Path</title>
    <g id="Page-1" stroke="none" stroke-width="1" fill="none" fill-rule="evenodd">
        <g id="Artist-Status" transform="translate(-596.000000, -3836.000000)" fill="#007AFF" fill-rule="nonzero">
            <path d="M620.565513,3838.11326 C617.715908,3835.29504 613.160355,3835.29565 610.311466,3838.11465 L598.362993,3850.19184 C596.20247,3852.42711 596.24376,3856.00942 598.45522,3858.19321 C600.630295,3860.34111 604.104044,3860.34111 606.27912,3858.19321 L617.098655,3847.25717 C618.505211,3845.83547 618.505211,3843.53038 617.098655,3842.10868 C615.692099,3840.68698 613.411566,3840.68698 612.005011,3842.10868 L601.655871,3852.5692 C601.294902,3852.94698 601.305266,3853.54898 601.679024,3853.91384 C602.043631,3854.26978 602.621634,3854.26978 602.986241,3853.91384 L613.335326,3843.45332 C614.021598,3842.7888 615.1109,3842.81248 615.768284,3843.50614 C616.405824,3844.17885 616.405824,3845.23982 615.768284,3845.91253 L604.948804,3856.84851 C603.487177,3858.30487 601.134208,3858.28782 599.693363,3856.81046 C598.267072,3855.34802 598.267072,3852.99891 599.693363,3851.53648 L611.641837,3839.45929 C613.770165,3837.30727 617.221422,3837.30665 619.350522,3839.45784 C621.479622,3841.60903 621.480229,3845.09751 619.351955,3847.24954 L607.403427,3859.32673 C607.008775,3859.66835 606.9628,3860.26868 607.300781,3860.66758 C607.638762,3861.06648 608.232697,3861.11295 608.627348,3860.77133 C608.664173,3860.73946 608.698461,3860.7048 608.729994,3860.66758 L620.678522,3848.59039 C623.50966,3845.66569 623.459109,3840.97488 620.565513,3838.11326 Z" id="Path"></path>
        </g>
    </g>
</svg>