<?xml version="1.0" encoding="UTF-8"?>
<svg width="31px" height="32px" viewBox="0 0 31 32" version="1.1" xmlns="http://www.w3.org/2000/svg" xmlns:xlink="http://www.w3.org/1999/xlink">
    <title>whatsapp</title>
    <g id="Page-1" stroke="none" stroke-width="1" fill="none" fill-rule="evenodd">
        <g id="footer" transform="translate(-762.000000, -520.000000)" fill="#11243B" fill-rule="nonzero">
            <g id="Group" transform="translate(0.000000, 42.777778)">
                <path d="M777.434392,478.022222 C768.939877,478.022222 762.031558,484.927495 762.027779,493.415609 C762.026835,496.324336 762.84119,499.157013 764.382512,501.608033 L764.748594,502.19044 L763.192628,507.871383 L769.021123,506.342861 L769.583708,506.67634 C771.947888,508.079217 774.658311,508.821277 777.421638,508.822222 L777.427779,508.822222 C785.915681,508.822222 792.823999,501.916477 792.827779,493.42789 C792.829195,489.314201 791.228827,485.446607 788.321429,482.536936 C785.41403,479.627265 781.547262,478.023639 777.434392,478.022222 L777.434392,478.022222 Z M786.426322,500.025189 C786.04347,501.093827 784.208877,502.06952 783.326491,502.201232 C782.535015,502.318931 781.534072,502.367973 780.433785,502.020011 C779.76649,501.808899 778.911283,501.527261 777.815213,501.055995 C773.208345,499.073784 770.199425,494.451738 769.969808,494.146279 C769.74019,493.840821 768.094445,491.664779 768.094445,489.412138 C768.094445,487.159965 769.280956,486.052561 769.701765,485.59484 C770.123042,485.136652 770.620702,485.022222 770.926702,485.022222 C771.232701,485.022222 771.53917,485.025025 771.806744,485.038102 C772.088845,485.052114 772.467479,484.931145 772.840021,485.823701 C773.222872,486.740076 774.14134,488.99225 774.256149,489.22111 C774.370957,489.450438 774.44734,489.717597 774.294575,490.023056 C774.14134,490.328514 773.632434,490.987539 773.146489,491.588181 C772.942646,491.839927 772.676946,492.064117 772.944989,492.522305 C773.212563,492.980025 774.13478,494.478828 775.49983,495.692255 C777.254292,497.251308 778.73415,497.73425 779.193384,497.963578 C779.65215,498.192438 779.920193,498.154139 780.188235,497.849147 C780.455809,497.543689 781.336321,496.512883 781.64232,496.054695 C781.94832,495.596507 782.254789,495.673105 782.675597,495.825834 C783.096874,495.978097 785.354619,497.085501 785.813853,497.314361 C786.273087,497.543689 786.579087,497.658119 786.693896,497.849147 C786.809173,498.040176 786.809173,498.956084 786.426322,500.025189 L786.426322,500.025189 Z" id="whatsapp"></path>
            </g>
        </g>
    </g>
</svg>