<?xml version="1.0" encoding="UTF-8"?>
<svg width="36px" height="25px" viewBox="0 0 36 25" version="1.1" xmlns="http://www.w3.org/2000/svg" xmlns:xlink="http://www.w3.org/1999/xlink">
    <title>yt</title>
    <g id="Page-1" stroke="none" stroke-width="1" fill="none" fill-rule="evenodd">
        <g id="footer" transform="translate(-673.000000, -524.000000)" fill="#11243B" fill-rule="nonzero">
            <g id="Group" transform="translate(0.000000, 42.777778)">
                <path d="M696.840851,481.390845 L697.476954,481.412788 C700.242524,481.514072 703.082995,481.697649 704.294372,482.030383 C705.773492,482.429862 706.939754,483.600793 707.338205,485.085298 C707.993724,487.489242 708.045921,492.203154 708.049319,493.243454 L708.049321,493.483877 C708.049288,493.495097 708.049238,493.509022 708.049163,493.525551 L708.048345,493.655179 C708.040204,494.690493 707.968572,499.382461 707.338205,501.786405 C706.939754,503.27091 705.773492,504.441418 704.294372,504.840897 C703.082995,505.160921 700.242524,505.337486 697.476954,505.434901 L696.840851,505.456006 C694.307961,505.535039 691.950579,505.550845 691.108942,505.554007 L690.457586,505.553975 C689.478059,505.550141 686.439976,505.528411 683.462048,505.405275 L682.825614,505.377307 C680.501059,505.26884 678.307069,505.094089 677.271342,504.812544 C675.792222,504.413065 674.62596,503.242134 674.227509,501.757629 C673.613196,499.440177 673.529426,494.90792 673.518003,493.714943 L673.516266,493.455692 C673.516232,493.444418 673.516216,493.43586 673.516207,493.430122 C673.516199,493.421464 673.516199,493.409844 673.516266,493.387406 L673.518003,493.129371 C673.529426,491.941786 673.613196,487.427603 674.227509,485.085298 C674.625539,483.600793 675.820472,482.401509 677.271342,482.00203 C678.436128,481.694315 681.107102,481.519235 683.76942,481.419621 L684.407435,481.397133 C686.952623,481.312744 689.378148,481.293688 690.34377,481.289385 L691.221944,481.289435 C692.147332,481.293723 694.413498,481.312097 696.840851,481.390845 Z M686.582866,488.28813 L686.582866,498.554797 L695.449532,493.421464 L686.582866,488.28813 Z" id="yt"></path>
            </g>
        </g>
    </g>
</svg>